ISO-10303-21;
HEADER;
FILE_DESCRIPTION (( 'STEP AP214' ),
    '1' );
FILE_NAME ('bottom-case.STEP',
    '2026-07-19T19:00:25',
    ( '' ),
    ( '' ),
    'SwSTEP 2.0',
    'SolidWorks 2026',
    '' );
FILE_SCHEMA (( 'AUTOMOTIVE_DESIGN' ));
ENDSEC;

DATA;
#1 = DIRECTION ( 'NONE',  ( 0.7071067811865474617, 8.659560562354932858E-17, -0.7071067811865474617 ) ) ;
#2 = ORIENTED_EDGE ( 'NONE', *, *, #878, .T. ) ;
#3 = LINE ( 'NONE', #605, #445 ) ;
#4 = EDGE_LOOP ( 'NONE', ( #632, #1083 ) ) ;
#5 = LINE ( 'NONE', #306, #567 ) ;
#6 = LINE ( 'NONE', #204, #485 ) ;
#7 = CIRCLE ( 'NONE', #303, 2.749999999999999112 ) ;
#8 = CARTESIAN_POINT ( 'NONE',  ( 26.60000000000017906, -38.10511776651520677, 0.000000000000000000 ) ) ;
#9 = ORIENTED_EDGE ( 'NONE', *, *, #385, .F. ) ;
#10 = VECTOR ( 'NONE', #1019, 1000.000000000000114 ) ;
#11 = AXIS2_PLACEMENT_3D ( 'NONE', #532, #913, #431 ) ;
#12 = AXIS2_PLACEMENT_3D ( 'NONE', #978, #92, #194 ) ;
#13 = ORIENTED_EDGE ( 'NONE', *, *, #345, .T. ) ;
#14 = EDGE_CURVE ( 'NONE', #591, #42, #1042, .T. ) ;
#15 = DIRECTION ( 'NONE',  ( -0.000000000000000000, -0.000000000000000000, -1.000000000000000000 ) ) ;
#16 = ORIENTED_EDGE ( 'NONE', *, *, #646, .T. ) ;
#17 = DIRECTION ( 'NONE',  ( -1.000000000000000000, 0.000000000000000000, 0.000000000000000000 ) ) ;
#18 = ORIENTED_EDGE ( 'NONE', *, *, #26, .T. ) ;
#19 = ORIENTED_EDGE ( 'NONE', *, *, #804, .T. ) ;
#20 = DIRECTION ( 'NONE',  ( -0.000000000000000000, -0.000000000000000000, -1.000000000000000000 ) ) ;
#21 = DIRECTION ( 'NONE',  ( -0.000000000000000000, -0.000000000000000000, -1.000000000000000000 ) ) ;
#22 = EDGE_LOOP ( 'NONE', ( #563, #1104 ) ) ;
#23 = CARTESIAN_POINT ( 'NONE',  ( -23.60000000000000142, -23.60000000000000142, 6.000000000000000000 ) ) ;
#24 = ORIENTED_EDGE ( 'NONE', *, *, #1157, .T. ) ;
#25 = LINE ( 'NONE', #139, #968 ) ;
#26 = EDGE_CURVE ( 'NONE', #1169, #948, #565, .T. ) ;
#27 = DIRECTION ( 'NONE',  ( 0.000000000000000000, 0.000000000000000000, -1.000000000000000000 ) ) ;
#28 = EDGE_CURVE ( 'NONE', #308, #822, #258, .T. ) ;
#29 = ORIENTED_EDGE ( 'NONE', *, *, #1145, .F. ) ;
#30 = FACE_OUTER_BOUND ( 'NONE', #126, .T. ) ;
#31 = VERTEX_POINT ( 'NONE', #474 ) ;
#32 = AXIS2_PLACEMENT_3D ( 'NONE', #601, #879, #333 ) ;
#33 = VECTOR ( 'NONE', #1, 1000.000000000000114 ) ;
#34 = CARTESIAN_POINT ( 'NONE',  ( 24.75000000000017764, -38.10511776651520677, 0.000000000000000000 ) ) ;
#35 = CIRCLE ( 'NONE', #1016, 3.300000000000000711 ) ;
#36 = CIRCLE ( 'NONE', #731, 2.749999999999999112 ) ;
#37 = VERTEX_POINT ( 'NONE', #348 ) ;
#38 = DIRECTION ( 'NONE',  ( -1.000000000000000000, 0.000000000000000000, 0.000000000000000000 ) ) ;
#39 = VERTEX_POINT ( 'NONE', #1126 ) ;
#40 = DIRECTION ( 'NONE',  ( 0.000000000000000000, 0.000000000000000000, -1.000000000000000000 ) ) ;
#41 = DIRECTION ( 'NONE',  ( 0.000000000000000000, 0.000000000000000000, -1.000000000000000000 ) ) ;
#42 = VERTEX_POINT ( 'NONE', #1222 ) ;
#43 = DIRECTION ( 'NONE',  ( -1.000000000000000000, 0.000000000000000000, 0.000000000000000000 ) ) ;
#44 = EDGE_CURVE ( 'NONE', #133, #896, #1144, .T. ) ;
#45 = ORIENTED_EDGE ( 'NONE', *, *, #1157, .F. ) ;
#46 = CARTESIAN_POINT ( 'NONE',  ( -23.60000000000000142, -23.60000000000000142, 6.000000000000000000 ) ) ;
#47 = CARTESIAN_POINT ( 'NONE',  ( 44.00000000000000000, 0.000000000000000000, 0.000000000000000000 ) ) ;
#48 = CARTESIAN_POINT ( 'NONE',  ( 20.30000000000000071, -23.60000000000000142, 0.000000000000000000 ) ) ;
#49 = CONICAL_SURFACE ( 'NONE', #695, 4.599999999999999645, 0.7853981633974482790 ) ;
#50 = ADVANCED_FACE ( 'NONE', ( #457, #1023, #351, #151, #370, #62, #645, #468 ), #1131, .T. ) ;
#51 = AXIS2_PLACEMENT_3D ( 'NONE', #180, #1084, #282 ) ;
#52 =( NAMED_UNIT ( * ) PLANE_ANGLE_UNIT ( ) SI_UNIT ( $, .RADIAN. ) );
#53 = CIRCLE ( 'NONE', #239, 49.00000000000000000 ) ;
#54 = DIRECTION ( 'NONE',  ( -1.000000000000000000, 0.000000000000000000, 0.000000000000000000 ) ) ;
#55 = PRODUCT_DEFINITION_SHAPE ( 'NONE', 'NONE',  #1252 ) ;
#56 = FACE_BOUND ( 'NONE', #954, .T. ) ;
#57 = SURFACE_STYLE_USAGE ( .BOTH. , #556 ) ;
#58 = DIRECTION ( 'NONE',  ( -0.000000000000000000, -0.000000000000000000, -1.000000000000000000 ) ) ;
#59 = EDGE_LOOP ( 'NONE', ( #727, #211, #160, #416 ) ) ;
#60 = CARTESIAN_POINT ( 'NONE',  ( -23.60000000000000142, -23.60000000000000142, 6.000000000000000000 ) ) ;
#61 = PRODUCT ( 'bottom-case', 'bottom-case', '', ( #871 ) ) ;
#62 = FACE_BOUND ( 'NONE', #1078, .T. ) ;
#63 = VERTEX_POINT ( 'NONE', #1229 ) ;
#64 = DIRECTION ( 'NONE',  ( 0.000000000000000000, 0.000000000000000000, 1.000000000000000000 ) ) ;
#65 = EDGE_CURVE ( 'NONE', #406, #42, #1172, .T. ) ;
#66 = CIRCLE ( 'NONE', #699, 2.749999999999995559 ) ;
#67 = DIRECTION ( 'NONE',  ( -0.000000000000000000, -0.000000000000000000, -1.000000000000000000 ) ) ;
#68 = CIRCLE ( 'NONE', #217, 2.749999999999999112 ) ;
#69 = AXIS2_PLACEMENT_3D ( 'NONE', #329, #1192, #711 ) ;
#70 = ORIENTED_EDGE ( 'NONE', *, *, #704, .T. ) ;
#71 = AXIS2_PLACEMENT_3D ( 'NONE', #410, #107, #705 ) ;
#72 = PLANE ( 'NONE',  #1079 ) ;
#73 = ORIENTED_EDGE ( 'NONE', *, *, #1049, .T. ) ;
#74 = AXIS2_PLACEMENT_3D ( 'NONE', #187, #969, #1177 ) ;
#75 = AXIS2_PLACEMENT_3D ( 'NONE', #378, #1161, #81 ) ;
#76 = AXIS2_PLACEMENT_3D ( 'NONE', #958, #477, #283 ) ;
#77 = ORIENTED_EDGE ( 'NONE', *, *, #85, .F. ) ;
#78 = CARTESIAN_POINT ( 'NONE',  ( -48.59999999999999432, 0.000000000000000000, 0.000000000000000000 ) ) ;
#79 = CARTESIAN_POINT ( 'NONE',  ( 0.000000000000000000, 0.000000000000000000, 7.000000000000000000 ) ) ;
#80 = CARTESIAN_POINT ( 'NONE',  ( -19.25000000000044409, 38.10511776651503624, 6.999999999999999112 ) ) ;
#81 = DIRECTION ( 'NONE',  ( -1.000000000000000000, 0.000000000000000000, 0.000000000000000000 ) ) ;
#82 = EDGE_CURVE ( 'NONE', #308, #394, #68, .T. ) ;
#83 = ORIENTED_EDGE ( 'NONE', *, *, #640, .T. ) ;
#84 = APPLICATION_CONTEXT ( 'automotive_design' ) ;
#85 = EDGE_CURVE ( 'NONE', #39, #228, #714, .T. ) ;
#86 = CARTESIAN_POINT ( 'NONE',  ( -23.60000000000000142, -23.60000000000000142, 6.000000000000000000 ) ) ;
#87 = CARTESIAN_POINT ( 'NONE',  ( 21.99999999999964473, 38.10511776651549809, 0.000000000000000000 ) ) ;
#88 = DIRECTION ( 'NONE',  ( -0.000000000000000000, -0.000000000000000000, -1.000000000000000000 ) ) ;
#89 = EDGE_CURVE ( 'NONE', #31, #668, #269, .T. ) ;
#90 = DIRECTION ( 'NONE',  ( -0.000000000000000000, -0.000000000000000000, -1.000000000000000000 ) ) ;
#91 = ORIENTED_EDGE ( 'NONE', *, *, #957, .F. ) ;
#92 = DIRECTION ( 'NONE',  ( 0.000000000000000000, 0.000000000000000000, 1.000000000000000000 ) ) ;
#93 = DIRECTION ( 'NONE',  ( -1.000000000000000000, 0.000000000000000000, 0.000000000000000000 ) ) ;
#94 = FACE_OUTER_BOUND ( 'NONE', #1043, .T. ) ;
#95 = VECTOR ( 'NONE', #384, 999.9999999999998863 ) ;
#96 = CARTESIAN_POINT ( 'NONE',  ( -41.25000000000000000, 3.367778697655215588E-16, 6.999999999999999112 ) ) ;
#97 = CIRCLE ( 'NONE', #530, 3.299999999999997158 ) ;
#98 = AXIS2_PLACEMENT_3D ( 'NONE', #636, #331, #726 ) ;
#99 = CIRCLE ( 'NONE', #550, 2.749999999999999112 ) ;
#100 = DIRECTION ( 'NONE',  ( -1.000000000000000000, 0.000000000000000000, 0.000000000000000000 ) ) ;
#101 = VERTEX_POINT ( 'NONE', #263 ) ;
#102 = AXIS2_PLACEMENT_3D ( 'NONE', #798, #1188, #314 ) ;
#103 = EDGE_LOOP ( 'NONE', ( #917, #1209, #854, #933 ) ) ;
#104 = EDGE_CURVE ( 'NONE', #1108, #309, #667, .T. ) ;
#105 = DIRECTION ( 'NONE',  ( -0.000000000000000000, -0.000000000000000000, -1.000000000000000000 ) ) ;
#106 = CARTESIAN_POINT ( 'NONE',  ( 23.60000000000000142, 23.60000000000000142, 6.000000000000000000 ) ) ;
#107 = DIRECTION ( 'NONE',  ( 0.000000000000000000, 0.000000000000000000, 1.000000000000000000 ) ) ;
#108 = VERTEX_POINT ( 'NONE', #96 ) ;
#109 = APPLICATION_PROTOCOL_DEFINITION ( 'draft international standard', 'automotive_design', 1998, #84 ) ;
#110 = VERTEX_POINT ( 'NONE', #975 ) ;
#111 = LINE ( 'NONE', #501, #733 ) ;
#112 = CARTESIAN_POINT ( 'NONE',  ( 22.00000000000017764, -38.10511776651520677, 0.000000000000000000 ) ) ;
#113 = LINE ( 'NONE', #988, #810 ) ;
#114 = VERTEX_POINT ( 'NONE', #874 ) ;
#115 = EDGE_CURVE ( 'NONE', #899, #1146, #945, .T. ) ;
#116 = ORIENTED_EDGE ( 'NONE', *, *, #652, .T. ) ;
#117 = CARTESIAN_POINT ( 'NONE',  ( 26.90000000000000213, 23.60000000000000142, 6.000000000000000000 ) ) ;
#118 = CARTESIAN_POINT ( 'NONE',  ( -17.39999999999991331, -38.10511776651534888, 0.000000000000000000 ) ) ;
#119 = EDGE_LOOP ( 'NONE', ( #1227, #723, #19, #200 ) ) ;
#120 = CONICAL_SURFACE ( 'NONE', #828, 4.599999999999999645, 0.7853981633974492782 ) ;
#121 = ORIENTED_EDGE ( 'NONE', *, *, #140, .T. ) ;
#122 = AXIS2_PLACEMENT_3D ( 'NONE', #585, #963, #382 ) ;
#123 = CARTESIAN_POINT ( 'NONE',  ( -26.90000000000000213, 23.60000000000000142, 6.000000000000000000 ) ) ;
#124 = ORIENTED_EDGE ( 'NONE', *, *, #878, .F. ) ;
#125 = CARTESIAN_POINT ( 'NONE',  ( 26.59999999999964615, 38.10511776651549809, 0.000000000000000000 ) ) ;
#126 = EDGE_LOOP ( 'NONE', ( #1010, #222, #328, #270 ) ) ;
#127 = ADVANCED_FACE ( 'NONE', ( #769 ), #1256, .F. ) ;
#128 = EDGE_CURVE ( 'NONE', #458, #318, #320, .T. ) ;
#129 = DIRECTION ( 'NONE',  ( -1.000000000000000000, 0.000000000000000000, 0.000000000000000000 ) ) ;
#130 = FACE_OUTER_BOUND ( 'NONE', #797, .T. ) ;
#131 = EDGE_LOOP ( 'NONE', ( #91, #521 ) ) ;
#132 = FACE_OUTER_BOUND ( 'NONE', #583, .T. ) ;
#133 = VERTEX_POINT ( 'NONE', #1058 ) ;
#134 = CARTESIAN_POINT ( 'NONE',  ( -44.00000000000000000, 0.000000000000000000, 1.850000000000000977 ) ) ;
#135 = EDGE_LOOP ( 'NONE', ( #706, #1015, #816, #360 ) ) ;
#136 = CARTESIAN_POINT ( 'NONE',  ( 24.74999999999964473, 38.10511776651549809, 6.999999999999999112 ) ) ;
#137 = EDGE_LOOP ( 'NONE', ( #611, #469, #991, #819 ) ) ;
#138 = CIRCLE ( 'NONE', #1028, 25.00000000000000000 ) ;
#139 = CARTESIAN_POINT ( 'NONE',  ( -26.89999999999999858, -23.60000000000000142, 6.000000000000000000 ) ) ;
#140 = EDGE_CURVE ( 'NONE', #108, #1106, #6, .T. ) ;
#141 = DIRECTION ( 'NONE',  ( 0.000000000000000000, 0.000000000000000000, 1.000000000000000000 ) ) ;
#142 = EDGE_LOOP ( 'NONE', ( #849, #811, #940, #872 ) ) ;
#143 = CARTESIAN_POINT ( 'NONE',  ( -21.99999999999991118, -38.10511776651534888, 6.999999999999999112 ) ) ;
#144 = VERTEX_POINT ( 'NONE', #1071 ) ;
#145 = CARTESIAN_POINT ( 'NONE',  ( 44.00000000000000000, 0.000000000000000000, 0.000000000000000000 ) ) ;
#146 =( LENGTH_UNIT ( ) NAMED_UNIT ( * ) SI_UNIT ( .MILLI., .METRE. ) );
#147 = ORIENTED_EDGE ( 'NONE', *, *, #1210, .T. ) ;
#148 = ADVANCED_FACE ( 'NONE', ( #775 ), #490, .F. ) ;
#149 = CARTESIAN_POINT ( 'NONE',  ( -48.59999999999999432, 0.000000000000000000, 0.000000000000000000 ) ) ;
#150 = FILL_AREA_STYLE_COLOUR ( '', #1077 ) ;
#151 = FACE_BOUND ( 'NONE', #514, .T. ) ;
#152 = PLANE ( 'NONE',  #946 ) ;
#153 = AXIS2_PLACEMENT_3D ( 'NONE', #1037, #64, #951 ) ;
#154 = AXIS2_PLACEMENT_3D ( 'NONE', #618, #232, #38 ) ;
#155 = CARTESIAN_POINT ( 'NONE',  ( 0.000000000000000000, 0.000000000000000000, 0.000000000000000000 ) ) ;
#156 = DIRECTION ( 'NONE',  ( -0.000000000000000000, -0.000000000000000000, -1.000000000000000000 ) ) ;
#157 = DIRECTION ( 'NONE',  ( -0.000000000000000000, -0.000000000000000000, -1.000000000000000000 ) ) ;
#158 = ADVANCED_FACE ( 'NONE', ( #684 ), #1081, .F. ) ;
#159 = DIRECTION ( 'NONE',  ( -1.000000000000000000, 0.000000000000000000, 0.000000000000000000 ) ) ;
#160 = ORIENTED_EDGE ( 'NONE', *, *, #471, .F. ) ;
#161 = EDGE_CURVE ( 'NONE', #1106, #877, #1159, .T. ) ;
#162 = ORIENTED_EDGE ( 'NONE', *, *, #28, .F. ) ;
#163 = LINE ( 'NONE', #749, #992 ) ;
#164 = CARTESIAN_POINT ( 'NONE',  ( -49.00000000000000000, 0.000000000000000000, 0.000000000000000000 ) ) ;
#165 = ORIENTED_EDGE ( 'NONE', *, *, #1228, .F. ) ;
#166 = FACE_OUTER_BOUND ( 'NONE', #500, .T. ) ;
#167 = DIRECTION ( 'NONE',  ( -0.7071067811865474617, 0.000000000000000000, -0.7071067811865474617 ) ) ;
#168 = ORIENTED_EDGE ( 'NONE', *, *, #866, .T. ) ;
#169 = DIRECTION ( 'NONE',  ( -1.000000000000000000, 0.000000000000000000, 0.000000000000000000 ) ) ;
#170 = VECTOR ( 'NONE', #414, 1000.000000000000000 ) ;
#171 = LINE ( 'NONE', #681, #638 ) ;
#172 = AXIS2_PLACEMENT_3D ( 'NONE', #752, #1236, #54 ) ;
#173 = CIRCLE ( 'NONE', #483, 3.300000000000000711 ) ;
#174 = ADVANCED_FACE ( 'NONE', ( #285 ), #1171, .F. ) ;
#175 = DIRECTION ( 'NONE',  ( -0.000000000000000000, -0.000000000000000000, -1.000000000000000000 ) ) ;
#176 = VERTEX_POINT ( 'NONE', #276 ) ;
#177 = EDGE_CURVE ( 'NONE', #1137, #896, #99, .T. ) ;
#178 = AXIS2_PLACEMENT_3D ( 'NONE', #86, #273, #673 ) ;
#179 = ORIENTED_EDGE ( 'NONE', *, *, #1064, .F. ) ;
#180 = CARTESIAN_POINT ( 'NONE',  ( -44.00000000000000000, 0.000000000000000000, 6.999999999999999112 ) ) ;
#181 = CARTESIAN_POINT ( 'NONE',  ( 44.00000000000000000, 0.000000000000000000, 6.999999999999999112 ) ) ;
#182 = EDGE_CURVE ( 'NONE', #176, #259, #651, .T. ) ;
#183 = DIRECTION ( 'NONE',  ( 0.000000000000000000, 0.000000000000000000, -1.000000000000000000 ) ) ;
#184 = DIRECTION ( 'NONE',  ( -0.000000000000000000, -0.000000000000000000, -1.000000000000000000 ) ) ;
#185 = CARTESIAN_POINT ( 'NONE',  ( -21.99999999999991118, -38.10511776651534888, 6.999999999999999112 ) ) ;
#186 = ORIENTED_EDGE ( 'NONE', *, *, #494, .F. ) ;
#187 = CARTESIAN_POINT ( 'NONE',  ( -23.60000000000000142, -23.60000000000000142, 6.000000000000000000 ) ) ;
#188 = CYLINDRICAL_SURFACE ( 'NONE', #122, 2.749999999999999112 ) ;
#189 = DIRECTION ( 'NONE',  ( -0.000000000000000000, -0.000000000000000000, -1.000000000000000000 ) ) ;
#190 = DIRECTION ( 'NONE',  ( -0.000000000000000000, -0.000000000000000000, -1.000000000000000000 ) ) ;
#191 = DIRECTION ( 'NONE',  ( -1.000000000000000000, 0.000000000000000000, 0.000000000000000000 ) ) ;
#192 = ORIENTED_EDGE ( 'NONE', *, *, #471, .T. ) ;
#193 = ADVANCED_FACE ( 'NONE', ( #677 ), #580, .F. ) ;
#194 = DIRECTION ( 'NONE',  ( 1.000000000000000000, 0.000000000000000000, 0.000000000000000000 ) ) ;
#195 = ORIENTED_EDGE ( 'NONE', *, *, #910, .F. ) ;
#196 = LINE ( 'NONE', #1057, #912 ) ;
#197 = DIRECTION ( 'NONE',  ( -1.000000000000000000, 0.000000000000000000, 0.000000000000000000 ) ) ;
#198 = VECTOR ( 'NONE', #301, 1000.000000000000000 ) ;
#199 = LINE ( 'NONE', #1173, #198 ) ;
#200 = ORIENTED_EDGE ( 'NONE', *, *, #1243, .F. ) ;
#201 = VECTOR ( 'NONE', #780, 1000.000000000000000 ) ;
#202 = ORIENTED_EDGE ( 'NONE', *, *, #1176, .T. ) ;
#203 = CARTESIAN_POINT ( 'NONE',  ( -23.60000000000000142, 23.60000000000000142, 6.000000000000000000 ) ) ;
#204 = CARTESIAN_POINT ( 'NONE',  ( -41.25000000000000000, 3.367778697655215588E-16, 0.000000000000000000 ) ) ;
#205 = CARTESIAN_POINT ( 'NONE',  ( 26.60000000000017906, -38.10511776651520677, 0.000000000000000000 ) ) ;
#206 = ORIENTED_EDGE ( 'NONE', *, *, #1094, .T. ) ;
#207 = ORIENTED_EDGE ( 'NONE', *, *, #1186, .F. ) ;
#208 = DIRECTION ( 'NONE',  ( 0.000000000000000000, 0.000000000000000000, -1.000000000000000000 ) ) ;
#209 = CARTESIAN_POINT ( 'NONE',  ( 23.60000000000000142, -23.60000000000000142, 6.000000000000000000 ) ) ;
#210 = ORIENTED_EDGE ( 'NONE', *, *, #449, .T. ) ;
#211 = ORIENTED_EDGE ( 'NONE', *, *, #738, .T. ) ;
#212 = APPLICATION_CONTEXT ( 'automotive_design' ) ;
#213 = CARTESIAN_POINT ( 'NONE',  ( 23.60000000000000142, -23.60000000000000142, 6.000000000000000000 ) ) ;
#214 = ORIENTED_EDGE ( 'NONE', *, *, #177, .T. ) ;
#215 = ADVANCED_FACE ( 'NONE', ( #30 ), #531, .F. ) ;
#216 = AXIS2_PLACEMENT_3D ( 'NONE', #1140, #157, #653 ) ;
#217 = AXIS2_PLACEMENT_3D ( 'NONE', #452, #655, #839 ) ;
#218 = DIRECTION ( 'NONE',  ( -0.000000000000000000, -0.000000000000000000, -1.000000000000000000 ) ) ;
#219 = ADVANCED_FACE ( 'NONE', ( #132 ), #1205, .T. ) ;
#220 = DIRECTION ( 'NONE',  ( -1.000000000000000000, 0.000000000000000000, 0.000000000000000000 ) ) ;
#221 = DIRECTION ( 'NONE',  ( 0.000000000000000000, 0.000000000000000000, -1.000000000000000000 ) ) ;
#222 = ORIENTED_EDGE ( 'NONE', *, *, #987, .F. ) ;
#223 = CARTESIAN_POINT ( 'NONE',  ( -44.00000000000000000, 0.000000000000000000, 0.000000000000000000 ) ) ;
#224 = ORIENTED_EDGE ( 'NONE', *, *, #415, .F. ) ;
#225 = CARTESIAN_POINT ( 'NONE',  ( 23.60000000000000142, -23.60000000000000142, 6.000000000000000000 ) ) ;
#226 = ORIENTED_EDGE ( 'NONE', *, *, #544, .T. ) ;
#227 = LINE ( 'NONE', #628, #571 ) ;
#228 = VERTEX_POINT ( 'NONE', #722 ) ;
#229 = ADVANCED_FACE ( 'NONE', ( #1109 ), #437, .F. ) ;
#230 = CARTESIAN_POINT ( 'NONE',  ( -44.00000000000000000, 0.000000000000000000, 0.000000000000000000 ) ) ;
#231 = EDGE_LOOP ( 'NONE', ( #1100, #1223, #262, #322 ) ) ;
#232 = DIRECTION ( 'NONE',  ( -0.000000000000000000, -0.000000000000000000, -1.000000000000000000 ) ) ;
#233 = ORIENTED_EDGE ( 'NONE', *, *, #1160, .T. ) ;
#234 = AXIS2_PLACEMENT_3D ( 'NONE', #79, #472, #665 ) ;
#235 = VECTOR ( 'NONE', #1138, 1000.000000000000000 ) ;
#236 = CIRCLE ( 'NONE', #908, 3.299999999999997158 ) ;
#237 = CIRCLE ( 'NONE', #1051, 3.299999999999997158 ) ;
#238 = DIRECTION ( 'NONE',  ( -0.000000000000000000, -0.000000000000000000, -1.000000000000000000 ) ) ;
#239 = AXIS2_PLACEMENT_3D ( 'NONE', #155, #1014, #548 ) ;
#240 = AXIS2_PLACEMENT_3D ( 'NONE', #767, #572, #659 ) ;
#241 = CARTESIAN_POINT ( 'NONE',  ( -20.30000000000000071, 23.60000000000000142, 6.000000000000000000 ) ) ;
#242 = ADVANCED_FACE ( 'NONE', ( #1101 ), #909, .F. ) ;
#243 = ORIENTED_EDGE ( 'NONE', *, *, #82, .T. ) ;
#244 = CARTESIAN_POINT ( 'NONE',  ( 41.25000000000000000, 0.000000000000000000, 1.850000000000000977 ) ) ;
#245 = DIRECTION ( 'NONE',  ( 1.000000000000000000, 0.000000000000000000, 0.000000000000000000 ) ) ;
#246 = DIRECTION ( 'NONE',  ( -0.000000000000000000, -0.000000000000000000, -1.000000000000000000 ) ) ;
#247 = DIRECTION ( 'NONE',  ( -0.000000000000000000, -0.000000000000000000, -1.000000000000000000 ) ) ;
#248 = CARTESIAN_POINT ( 'NONE',  ( -19.24999999999991473, -38.10511776651534888, 0.000000000000000000 ) ) ;
#249 = EDGE_CURVE ( 'NONE', #309, #259, #425, .T. ) ;
#250 = EDGE_CURVE ( 'NONE', #590, #436, #399, .T. ) ;
#251 = AXIS2_PLACEMENT_3D ( 'NONE', #981, #595, #290 ) ;
#252 = DIRECTION ( 'NONE',  ( -1.000000000000000000, 0.000000000000000000, 0.000000000000000000 ) ) ;
#253 = VECTOR ( 'NONE', #815, 1000.000000000000000 ) ;
#254 = AXIS2_PLACEMENT_3D ( 'NONE', #498, #504, #685 ) ;
#255 = CARTESIAN_POINT ( 'NONE',  ( 23.60000000000000142, -23.60000000000000142, 6.000000000000000000 ) ) ;
#256 = CIRCLE ( 'NONE', #617, 2.749999999999999112 ) ;
#257 = EDGE_CURVE ( 'NONE', #977, #1137, #525, .T. ) ;
#258 = LINE ( 'NONE', #936, #1197 ) ;
#259 = VERTEX_POINT ( 'NONE', #1200 ) ;
#260 = FACE_BOUND ( 'NONE', #131, .T. ) ;
#261 = CARTESIAN_POINT ( 'NONE',  ( 25.00000000000000000, 3.061616997868383043E-15, 0.000000000000000000 ) ) ;
#262 = ORIENTED_EDGE ( 'NONE', *, *, #546, .T. ) ;
#263 = CARTESIAN_POINT ( 'NONE',  ( 19.24999999999964473, 38.10511776651549809, 1.850000000000000977 ) ) ;
#264 = EDGE_LOOP ( 'NONE', ( #45, #688, #526, #893 ) ) ;
#265 = DIRECTION ( 'NONE',  ( 0.000000000000000000, 0.000000000000000000, -1.000000000000000000 ) ) ;
#266 = EDGE_CURVE ( 'NONE', #877, #1036, #298, .T. ) ;
#267 = FACE_OUTER_BOUND ( 'NONE', #59, .T. ) ;
#268 = DIRECTION ( 'NONE',  ( -0.000000000000000000, -0.000000000000000000, -1.000000000000000000 ) ) ;
#269 = LINE ( 'NONE', #549, #235 ) ;
#270 = ORIENTED_EDGE ( 'NONE', *, *, #957, .T. ) ;
#271 = FACE_BOUND ( 'NONE', #919, .T. ) ;
#272 = CONICAL_SURFACE ( 'NONE', #825, 4.599999999999999645, 0.7853981633974482790 ) ;
#273 = DIRECTION ( 'NONE',  ( 0.000000000000000000, 0.000000000000000000, -1.000000000000000000 ) ) ;
#274 = AXIS2_PLACEMENT_3D ( 'NONE', #225, #40, #439 ) ;
#275 = DIRECTION ( 'NONE',  ( -1.000000000000000000, 0.000000000000000000, 0.000000000000000000 ) ) ;
#276 = CARTESIAN_POINT ( 'NONE',  ( -17.40000000000044267, 38.10511776651503624, 0.000000000000000000 ) ) ;
#277 = CIRCLE ( 'NONE', #994, 2.749999999999995559 ) ;
#278 = CIRCLE ( 'NONE', #446, 4.599999999999999645 ) ;
#279 = AXIS2_PLACEMENT_3D ( 'NONE', #1149, #189, #959 ) ;
#280 = EDGE_CURVE ( 'NONE', #977, #133, #1114, .T. ) ;
#281 = ORIENTED_EDGE ( 'NONE', *, *, #1024, .T. ) ;
#282 = DIRECTION ( 'NONE',  ( -1.000000000000000000, 0.000000000000000000, 0.000000000000000000 ) ) ;
#283 = DIRECTION ( 'NONE',  ( -1.000000000000000000, 0.000000000000000000, 0.000000000000000000 ) ) ;
#284 = FACE_OUTER_BOUND ( 'NONE', #119, .T. ) ;
#285 = FACE_OUTER_BOUND ( 'NONE', #747, .T. ) ;
#286 = CARTESIAN_POINT ( 'NONE',  ( -49.00000000000000000, 0.000000000000000000, 7.000000000000000000 ) ) ;
#287 = ORIENTED_EDGE ( 'NONE', *, *, #299, .T. ) ;
#288 = ORIENTED_EDGE ( 'NONE', *, *, #678, .T. ) ;
#289 = CARTESIAN_POINT ( 'NONE',  ( -20.30000000000000426, -23.60000000000000142, 6.000000000000000000 ) ) ;
#290 = DIRECTION ( 'NONE',  ( -1.000000000000000000, 0.000000000000000000, 0.000000000000000000 ) ) ;
#291 = DIRECTION ( 'NONE',  ( -0.000000000000000000, -0.000000000000000000, -1.000000000000000000 ) ) ;
#292 = ORIENTED_EDGE ( 'NONE', *, *, #704, .F. ) ;
#293 = ADVANCED_BREP_SHAPE_REPRESENTATION ( 'bottom-case', ( #506, #12 ), #487 ) ;
#294 = ORIENTED_EDGE ( 'NONE', *, *, #610, .F. ) ;
#295 = CARTESIAN_POINT ( 'NONE',  ( 0.000000000000000000, 0.000000000000000000, 7.000000000000000000 ) ) ;
#296 = DIRECTION ( 'NONE',  ( -0.000000000000000000, -0.000000000000000000, -1.000000000000000000 ) ) ;
#297 = VECTOR ( 'NONE', #801, 1000.000000000000114 ) ;
#298 = CIRCLE ( 'NONE', #993, 4.599999999999999645 ) ;
#299 = EDGE_CURVE ( 'NONE', #763, #1204, #227, .T. ) ;
#300 = STYLED_ITEM ( 'NONE', ( #924 ), #506 ) ;
#301 = DIRECTION ( 'NONE',  ( -0.000000000000000000, -0.000000000000000000, -1.000000000000000000 ) ) ;
#302 = VERTEX_POINT ( 'NONE', #125 ) ;
#303 = AXIS2_PLACEMENT_3D ( 'NONE', #1056, #1141, #93 ) ;
#304 = DIRECTION ( 'NONE',  ( -0.000000000000000000, -0.000000000000000000, -1.000000000000000000 ) ) ;
#305 = VERTEX_POINT ( 'NONE', #520 ) ;
#306 = CARTESIAN_POINT ( 'NONE',  ( 48.59999999999999432, 5.633375276077824112E-16, 0.000000000000000000 ) ) ;
#307 = DIRECTION ( 'NONE',  ( -0.000000000000000000, -0.000000000000000000, -1.000000000000000000 ) ) ;
#308 = VERTEX_POINT ( 'NONE', #136 ) ;
#309 = VERTEX_POINT ( 'NONE', #900 ) ;
#310 = EDGE_CURVE ( 'NONE', #591, #358, #841, .T. ) ;
#311 = DIRECTION ( 'NONE',  ( -0.000000000000000000, -0.000000000000000000, -1.000000000000000000 ) ) ;
#312 = EDGE_CURVE ( 'NONE', #719, #114, #237, .T. ) ;
#313 = ORIENTED_EDGE ( 'NONE', *, *, #652, .F. ) ;
#314 = DIRECTION ( 'NONE',  ( -1.000000000000000000, 0.000000000000000000, 0.000000000000000000 ) ) ;
#315 = ADVANCED_FACE ( 'NONE', ( #321 ), #608, .F. ) ;
#316 = CARTESIAN_POINT ( 'NONE',  ( 0.000000000000000000, 0.000000000000000000, 0.000000000000000000 ) ) ;
#317 = DIRECTION ( 'NONE',  ( -1.000000000000000000, 0.000000000000000000, 0.000000000000000000 ) ) ;
#318 = VERTEX_POINT ( 'NONE', #286 ) ;
#319 = AXIS2_PLACEMENT_3D ( 'NONE', #631, #413, #736 ) ;
#320 = CIRCLE ( 'NONE', #732, 49.00000000000000000 ) ;
#321 = FACE_OUTER_BOUND ( 'NONE', #499, .T. ) ;
#322 = ORIENTED_EDGE ( 'NONE', *, *, #1006, .F. ) ;
#323 = VECTOR ( 'NONE', #905, 1000.000000000000000 ) ;
#324 = DIRECTION ( 'NONE',  ( -0.000000000000000000, -0.000000000000000000, -1.000000000000000000 ) ) ;
#325 = VERTEX_POINT ( 'NONE', #961 ) ;
#326 = DIRECTION ( 'NONE',  ( -0.000000000000000000, -0.000000000000000000, -1.000000000000000000 ) ) ;
#327 = ADVANCED_FACE ( 'NONE', ( #1257 ), #782, .F. ) ;
#328 = ORIENTED_EDGE ( 'NONE', *, *, #1142, .T. ) ;
#329 = CARTESIAN_POINT ( 'NONE',  ( -21.99999999999991118, -38.10511776651534888, 0.000000000000000000 ) ) ;
#330 = ORIENTED_EDGE ( 'NONE', *, *, #257, .T. ) ;
#331 = DIRECTION ( 'NONE',  ( -0.000000000000000000, -0.000000000000000000, -1.000000000000000000 ) ) ;
#332 = VERTEX_POINT ( 'NONE', #710 ) ;
#333 = DIRECTION ( 'NONE',  ( -1.000000000000000000, 0.000000000000000000, 0.000000000000000000 ) ) ;
#334 = EDGE_CURVE ( 'NONE', #394, #101, #113, .T. ) ;
#335 = DIRECTION ( 'NONE',  ( -1.000000000000000000, 0.000000000000000000, 0.000000000000000000 ) ) ;
#336 = ORIENTED_EDGE ( 'NONE', *, *, #44, .T. ) ;
#337 = AXIS2_PLACEMENT_3D ( 'NONE', #374, #367, #1148 ) ;
#338 = AXIS2_PLACEMENT_3D ( 'NONE', #106, #965, #880 ) ;
#339 = CONICAL_SURFACE ( 'NONE', #511, 4.599999999999999645, 0.7853981633974492782 ) ;
#340 = DIRECTION ( 'NONE',  ( -0.000000000000000000, -0.000000000000000000, -1.000000000000000000 ) ) ;
#341 = AXIS2_PLACEMENT_3D ( 'NONE', #346, #247, #1034 ) ;
#342 = AXIS2_PLACEMENT_3D ( 'NONE', #1158, #1170, #1240 ) ;
#343 = CARTESIAN_POINT ( 'NONE',  ( 49.00000000000000000, 6.000769315822030937E-15, 0.000000000000000000 ) ) ;
#344 = DIRECTION ( 'NONE',  ( -0.000000000000000000, -0.000000000000000000, -1.000000000000000000 ) ) ;
#345 = EDGE_CURVE ( 'NONE', #609, #1146, #597, .T. ) ;
#346 = CARTESIAN_POINT ( 'NONE',  ( -21.99999999999991118, -38.10511776651534888, 0.000000000000000000 ) ) ;
#347 = EDGE_CURVE ( 'NONE', #553, #660, #512, .T. ) ;
#348 = CARTESIAN_POINT ( 'NONE',  ( 17.39999999999964331, 38.10511776651549809, 0.000000000000000000 ) ) ;
#349 = CARTESIAN_POINT ( 'NONE',  ( 26.59999999999964615, 38.10511776651549809, 0.000000000000000000 ) ) ;
#350 = CARTESIAN_POINT ( 'NONE',  ( 20.30000000000000071, 23.60000000000000142, 0.000000000000000000 ) ) ;
#351 = FACE_BOUND ( 'NONE', #901, .T. ) ;
#352 = ORIENTED_EDGE ( 'NONE', *, *, #555, .F. ) ;
#353 = FACE_OUTER_BOUND ( 'NONE', #103, .T. ) ;
#354 = AXIS2_PLACEMENT_3D ( 'NONE', #915, #1198, #220 ) ;
#355 = DIRECTION ( 'NONE',  ( -1.000000000000000000, 0.000000000000000000, 0.000000000000000000 ) ) ;
#356 = AXIS2_PLACEMENT_3D ( 'NONE', #1041, #666, #1046 ) ;
#357 = ORIENTED_EDGE ( 'NONE', *, *, #415, .T. ) ;
#358 = VERTEX_POINT ( 'NONE', #691 ) ;
#359 = ADVANCED_FACE ( 'NONE', ( #603 ), #492, .T. ) ;
#360 = ORIENTED_EDGE ( 'NONE', *, *, #104, .F. ) ;
#361 = CYLINDRICAL_SURFACE ( 'NONE', #1248, 2.749999999999999112 ) ;
#362 = DIRECTION ( 'NONE',  ( -0.000000000000000000, -0.000000000000000000, -1.000000000000000000 ) ) ;
#363 = CARTESIAN_POINT ( 'NONE',  ( -44.00000000000000000, 0.000000000000000000, 6.999999999999999112 ) ) ;
#364 = ORIENTED_EDGE ( 'NONE', *, *, #818, .F. ) ;
#365 = ORIENTED_EDGE ( 'NONE', *, *, #14, .F. ) ;
#366 = FACE_BOUND ( 'NONE', #1179, .T. ) ;
#367 = DIRECTION ( 'NONE',  ( 0.000000000000000000, 0.000000000000000000, -1.000000000000000000 ) ) ;
#368 = EDGE_CURVE ( 'NONE', #948, #1169, #886, .T. ) ;
#369 = FACE_OUTER_BOUND ( 'NONE', #22, .T. ) ;
#370 = FACE_BOUND ( 'NONE', #1199, .T. ) ;
#371 = ORIENTED_EDGE ( 'NONE', *, *, #1160, .F. ) ;
#372 = ORIENTED_EDGE ( 'NONE', *, *, #347, .F. ) ;
#373 = AXIS2_PLACEMENT_3D ( 'NONE', #569, #344, #830 ) ;
#374 = CARTESIAN_POINT ( 'NONE',  ( -23.60000000000000142, 23.60000000000000142, 6.000000000000000000 ) ) ;
#375 = AXIS2_PLACEMENT_3D ( 'NONE', #781, #698, #502 ) ;
#376 = CARTESIAN_POINT ( 'NONE',  ( -23.60000000000000142, 23.60000000000000142, 0.000000000000000000 ) ) ;
#377 = DIRECTION ( 'NONE',  ( -1.000000000000000000, 0.000000000000000000, 0.000000000000000000 ) ) ;
#378 = CARTESIAN_POINT ( 'NONE',  ( -44.00000000000000000, 0.000000000000000000, 0.000000000000000000 ) ) ;
#379 = EDGE_LOOP ( 'NONE', ( #904, #168 ) ) ;
#380 = FACE_OUTER_BOUND ( 'NONE', #614, .T. ) ;
#381 = ORIENTED_EDGE ( 'NONE', *, *, #334, .F. ) ;
#382 = DIRECTION ( 'NONE',  ( -1.000000000000000000, 0.000000000000000000, 0.000000000000000000 ) ) ;
#383 = DIRECTION ( 'NONE',  ( -0.000000000000000000, -0.000000000000000000, -1.000000000000000000 ) ) ;
#384 = DIRECTION ( 'NONE',  ( 0.7071067811865483499, 8.659560562354942719E-17, -0.7071067811865467956 ) ) ;
#385 = EDGE_CURVE ( 'NONE', #144, #325, #1130, .T. ) ;
#386 = CARTESIAN_POINT ( 'NONE',  ( 20.30000000000000071, -23.60000000000000142, 6.000000000000000000 ) ) ;
#387 = ORIENTED_EDGE ( 'NONE', *, *, #405, .T. ) ;
#388 = EDGE_LOOP ( 'NONE', ( #914, #692, #73, #281 ) ) ;
#389 = FACE_OUTER_BOUND ( 'NONE', #1258, .T. ) ;
#390 = DIRECTION ( 'NONE',  ( -0.000000000000000000, -0.000000000000000000, -1.000000000000000000 ) ) ;
#391 = CARTESIAN_POINT ( 'NONE',  ( -19.25000000000044409, 38.10511776651503624, 1.850000000000000977 ) ) ;
#392 = ORIENTED_EDGE ( 'NONE', *, *, #641, .F. ) ;
#393 = CYLINDRICAL_SURFACE ( 'NONE', #74, 3.299999999999997158 ) ;
#394 = VERTEX_POINT ( 'NONE', #589 ) ;
#395 = CIRCLE ( 'NONE', #573, 2.749999999999999112 ) ;
#396 = CARTESIAN_POINT ( 'NONE',  ( -23.60000000000000142, 23.60000000000000142, 6.000000000000000000 ) ) ;
#397 = AXIS2_PLACEMENT_3D ( 'NONE', #587, #1063, #690 ) ;
#398 = AXIS2_PLACEMENT_3D ( 'NONE', #46, #340, #537 ) ;
#399 = CIRCLE ( 'NONE', #616, 2.749999999999999112 ) ;
#400 = CARTESIAN_POINT ( 'NONE',  ( 44.00000000000000000, 0.000000000000000000, 1.850000000000000977 ) ) ;
#401 = ORIENTED_EDGE ( 'NONE', *, *, #1030, .T. ) ;
#402 = VECTOR ( 'NONE', #1143, 1000.000000000000000 ) ;
#403 = EDGE_CURVE ( 'NONE', #358, #406, #777, .T. ) ;
#404 =( NAMED_UNIT ( * ) SI_UNIT ( $, .STERADIAN. ) SOLID_ANGLE_UNIT ( ) );
#405 = EDGE_CURVE ( 'NONE', #948, #228, #793, .T. ) ;
#406 = VERTEX_POINT ( 'NONE', #205 ) ;
#407 = PRODUCT_DEFINITION_CONTEXT ( 'detailed design', #212, 'design' ) ;
#408 = DIRECTION ( 'NONE',  ( -1.000000000000000000, 0.000000000000000000, 0.000000000000000000 ) ) ;
#409 = ORIENTED_EDGE ( 'NONE', *, *, #368, .F. ) ;
#410 = CARTESIAN_POINT ( 'NONE',  ( 0.000000000000000000, 0.000000000000000000, 0.000000000000000000 ) ) ;
#411 = ORIENTED_EDGE ( 'NONE', *, *, #600, .T. ) ;
#412 = ORIENTED_EDGE ( 'NONE', *, *, #1094, .F. ) ;
#413 = DIRECTION ( 'NONE',  ( -0.000000000000000000, -0.000000000000000000, -1.000000000000000000 ) ) ;
#414 = DIRECTION ( 'NONE',  ( -0.000000000000000000, -0.000000000000000000, -1.000000000000000000 ) ) ;
#415 = EDGE_CURVE ( 'NONE', #842, #948, #199, .T. ) ;
#416 = ORIENTED_EDGE ( 'NONE', *, *, #89, .F. ) ;
#417 = DIRECTION ( 'NONE',  ( -0.7071067811865474617, 0.000000000000000000, -0.7071067811865474617 ) ) ;
#418 = VERTEX_POINT ( 'NONE', #391 ) ;
#419 = CYLINDRICAL_SURFACE ( 'NONE', #789, 2.749999999999999112 ) ;
#420 = DIRECTION ( 'NONE',  ( -1.000000000000000000, 0.000000000000000000, -0.000000000000000000 ) ) ;
#421 = ADVANCED_FACE ( 'NONE', ( #513 ), #843, .F. ) ;
#422 = ORIENTED_EDGE ( 'NONE', *, *, #486, .T. ) ;
#423 = AXIS2_PLACEMENT_3D ( 'NONE', #203, #221, #898 ) ;
#424 = AXIS2_PLACEMENT_3D ( 'NONE', #821, #1004, #1105 ) ;
#425 = LINE ( 'NONE', #623, #863 ) ;
#426 = EDGE_LOOP ( 'NONE', ( #186, #372 ) ) ;
#427 = AXIS2_PLACEMENT_3D ( 'NONE', #892, #1167, #17 ) ;
#428 = CIRCLE ( 'NONE', #1048, 2.749999999999995559 ) ;
#429 = DIRECTION ( 'NONE',  ( 0.000000000000000000, 0.000000000000000000, -1.000000000000000000 ) ) ;
#430 = ORIENTED_EDGE ( 'NONE', *, *, #1086, .F. ) ;
#431 = DIRECTION ( 'NONE',  ( -1.000000000000000000, 0.000000000000000000, 0.000000000000000000 ) ) ;
#432 = EDGE_LOOP ( 'NONE', ( #629, #1073, #18, #224 ) ) ;
#433 = CARTESIAN_POINT ( 'NONE',  ( -17.39999999999991331, -38.10511776651534888, 0.000000000000000000 ) ) ;
#434 = UNCERTAINTY_MEASURE_WITH_UNIT (LENGTH_MEASURE( 1.000000000000000082E-05 ), #687, 'distance_accuracy_value', 'NONE');
#435 = CARTESIAN_POINT ( 'NONE',  ( -20.30000000000000426, -23.60000000000000142, 6.000000000000000000 ) ) ;
#436 = VERTEX_POINT ( 'NONE', #966 ) ;
#437 = CYLINDRICAL_SURFACE ( 'NONE', #154, 2.749999999999995559 ) ;
#438 = VERTEX_POINT ( 'NONE', #118 ) ;
#439 = DIRECTION ( 'NONE',  ( -1.000000000000000000, 0.000000000000000000, 0.000000000000000000 ) ) ;
#440 = DIRECTION ( 'NONE',  ( -0.000000000000000000, -0.000000000000000000, -1.000000000000000000 ) ) ;
#441 = AXIS2_PLACEMENT_3D ( 'NONE', #1239, #760, #464 ) ;
#442 = AXIS2_PLACEMENT_3D ( 'NONE', #903, #27, #420 ) ;
#443 = EDGE_CURVE ( 'NONE', #436, #590, #864, .T. ) ;
#444 = CARTESIAN_POINT ( 'NONE',  ( 46.74999999999999289, 3.367778697655215588E-16, 1.850000000000000977 ) ) ;
#445 = VECTOR ( 'NONE', #984, 1000.000000000000000 ) ;
#446 = AXIS2_PLACEMENT_3D ( 'NONE', #730, #1208, #335 ) ;
#447 = EDGE_CURVE ( 'NONE', #805, #891, #491, .T. ) ;
#448 = DIRECTION ( 'NONE',  ( -0.000000000000000000, -0.000000000000000000, -1.000000000000000000 ) ) ;
#449 = EDGE_CURVE ( 'NONE', #133, #977, #672, .T. ) ;
#450 = LINE ( 'NONE', #349, #925 ) ;
#451 = DIRECTION ( 'NONE',  ( -0.000000000000000000, -0.000000000000000000, -1.000000000000000000 ) ) ;
#452 = CARTESIAN_POINT ( 'NONE',  ( 21.99999999999964473, 38.10511776651549809, 6.999999999999999112 ) ) ;
#453 = ORIENTED_EDGE ( 'NONE', *, *, #600, .F. ) ;
#454 = FACE_OUTER_BOUND ( 'NONE', #545, .T. ) ;
#455 = CARTESIAN_POINT ( 'NONE',  ( -22.00000000000044409, 38.10511776651503624, 1.850000000000000977 ) ) ;
#456 = ADVANCED_FACE ( 'NONE', ( #861 ), #1249, .F. ) ;
#457 = FACE_BOUND ( 'NONE', #779, .T. ) ;
#458 = VERTEX_POINT ( 'NONE', #1027 ) ;
#459 = CIRCLE ( 'NONE', #441, 3.300000000000000711 ) ;
#460 = CARTESIAN_POINT ( 'NONE',  ( 44.00000000000000000, 0.000000000000000000, 6.999999999999999112 ) ) ;
#461 = CIRCLE ( 'NONE', #1050, 4.599999999999999645 ) ;
#462 = AXIS2_PLACEMENT_3D ( 'NONE', #143, #326, #918 ) ;
#463 = VECTOR ( 'NONE', #680, 1000.000000000000000 ) ;
#464 = DIRECTION ( 'NONE',  ( -1.000000000000000000, 0.000000000000000000, 0.000000000000000000 ) ) ;
#465 = AXIS2_PLACEMENT_3D ( 'NONE', #939, #67, #683 ) ;
#466 = EDGE_LOOP ( 'NONE', ( #207, #604 ) ) ;
#467 = DIRECTION ( 'NONE',  ( -0.000000000000000000, -0.000000000000000000, -1.000000000000000000 ) ) ;
#468 = FACE_BOUND ( 'NONE', #773, .T. ) ;
#469 = ORIENTED_EDGE ( 'NONE', *, *, #848, .T. ) ;
#470 = CARTESIAN_POINT ( 'NONE',  ( 22.00000000000017764, -38.10511776651520677, 0.000000000000000000 ) ) ;
#471 = EDGE_CURVE ( 'NONE', #668, #529, #970, .T. ) ;
#472 = DIRECTION ( 'NONE',  ( -0.000000000000000000, -0.000000000000000000, -1.000000000000000000 ) ) ;
#473 = CYLINDRICAL_SURFACE ( 'NONE', #1118, 2.749999999999999112 ) ;
#474 = CARTESIAN_POINT ( 'NONE',  ( -25.00000000000000000, 0.000000000000000000, 7.000000000000000000 ) ) ;
#475 = VERTEX_POINT ( 'NONE', #935 ) ;
#476 = SHAPE_DEFINITION_REPRESENTATION ( #55, #293 ) ;
#477 = DIRECTION ( 'NONE',  ( -0.000000000000000000, -0.000000000000000000, -1.000000000000000000 ) ) ;
#478 = DIRECTION ( 'NONE',  ( -1.000000000000000000, 0.000000000000000000, 0.000000000000000000 ) ) ;
#479 = DIRECTION ( 'NONE',  ( -1.000000000000000000, 0.000000000000000000, 0.000000000000000000 ) ) ;
#480 = DIRECTION ( 'NONE',  ( -1.000000000000000000, 0.000000000000000000, 0.000000000000000000 ) ) ;
#481 = VERTEX_POINT ( 'NONE', #750 ) ;
#482 = EDGE_CURVE ( 'NONE', #309, #418, #256, .T. ) ;
#483 = AXIS2_PLACEMENT_3D ( 'NONE', #213, #208, #523 ) ;
#484 = CARTESIAN_POINT ( 'NONE',  ( 19.25000000000018119, -38.10511776651520677, 1.850000000000000977 ) ) ;
#485 = VECTOR ( 'NONE', #390, 1000.000000000000000 ) ;
#486 = EDGE_CURVE ( 'NONE', #891, #805, #1230, .T. ) ;
#487 =( GEOMETRIC_REPRESENTATION_CONTEXT ( 3 ) GLOBAL_UNCERTAINTY_ASSIGNED_CONTEXT ( ( #434 ) ) GLOBAL_UNIT_ASSIGNED_CONTEXT ( ( #687, #772, #404 ) ) REPRESENTATION_CONTEXT ( 'NONE', 'WORKASPACE' ) );
#488 = AXIS2_PLACEMENT_3D ( 'NONE', #770, #869, #976 ) ;
#489 = CARTESIAN_POINT ( 'NONE',  ( -22.00000000000044409, 38.10511776651503624, 6.999999999999999112 ) ) ;
#490 = CYLINDRICAL_SURFACE ( 'NONE', #1029, 25.00000000000000000 ) ;
#491 = CIRCLE ( 'NONE', #102, 3.300000000000000711 ) ;
#492 = PLANE ( 'NONE',  #254 ) ;
#493 = ORIENTED_EDGE ( 'NONE', *, *, #482, .F. ) ;
#494 = EDGE_CURVE ( 'NONE', #660, #553, #53, .T. ) ;
#495 = VERTEX_POINT ( 'NONE', #241 ) ;
#496 = DIRECTION ( 'NONE',  ( -1.000000000000000000, 0.000000000000000000, 0.000000000000000000 ) ) ;
#497 = DIRECTION ( 'NONE',  ( 1.000000000000000000, 0.000000000000000000, 0.000000000000000000 ) ) ;
#498 = CARTESIAN_POINT ( 'NONE',  ( 23.60000000000000142, -23.60000000000000142, 6.000000000000000000 ) ) ;
#499 = EDGE_LOOP ( 'NONE', ( #1202, #179, #13, #855 ) ) ;
#500 = EDGE_LOOP ( 'NONE', ( #124, #493, #758, #202 ) ) ;
#501 = CARTESIAN_POINT ( 'NONE',  ( -17.40000000000044267, 38.10511776651503624, 0.000000000000000000 ) ) ;
#502 = DIRECTION ( 'NONE',  ( -1.000000000000000000, 0.000000000000000000, 0.000000000000000000 ) ) ;
#503 = EDGE_CURVE ( 'NONE', #31, #63, #812, .T. ) ;
#504 = DIRECTION ( 'NONE',  ( 0.000000000000000000, 0.000000000000000000, -1.000000000000000000 ) ) ;
#505 = ORIENTED_EDGE ( 'NONE', *, *, #482, .T. ) ;
#506 = MANIFOLD_SOLID_BREP ( 'Wytnij-wyci\X2\0105\X0\gni\X2\0119\X0\cie1', #784 ) ;
#507 = ORIENTED_EDGE ( 'NONE', *, *, #249, .F. ) ;
#508 = CIRCLE ( 'NONE', #342, 25.00000000000000000 ) ;
#509 = CARTESIAN_POINT ( 'NONE',  ( -21.99999999999991118, -38.10511776651534888, 0.000000000000000000 ) ) ;
#510 = ORIENTED_EDGE ( 'NONE', *, *, #1210, .F. ) ;
#511 = AXIS2_PLACEMENT_3D ( 'NONE', #837, #923, #1044 ) ;
#512 = CIRCLE ( 'NONE', #71, 49.00000000000000000 ) ;
#513 = FACE_OUTER_BOUND ( 'NONE', #231, .T. ) ;
#514 = EDGE_LOOP ( 'NONE', ( #637, #1250 ) ) ;
#515 = AXIS2_PLACEMENT_3D ( 'NONE', #845, #362, #1244 ) ;
#516 = ORIENTED_EDGE ( 'NONE', *, *, #1243, .T. ) ;
#517 = EDGE_CURVE ( 'NONE', #1146, #899, #35, .T. ) ;
#518 = CARTESIAN_POINT ( 'NONE',  ( -39.39999999999999858, 5.633375276077824112E-16, 0.000000000000000000 ) ) ;
#519 = ORIENTED_EDGE ( 'NONE', *, *, #1212, .T. ) ;
#520 = CARTESIAN_POINT ( 'NONE',  ( -26.59999999999991260, -38.10511776651534888, 0.000000000000000000 ) ) ;
#521 = ORIENTED_EDGE ( 'NONE', *, *, #266, .F. ) ;
#522 = CARTESIAN_POINT ( 'NONE',  ( -23.60000000000000142, -23.60000000000000142, 0.000000000000000000 ) ) ;
#523 = DIRECTION ( 'NONE',  ( -1.000000000000000000, 0.000000000000000000, 0.000000000000000000 ) ) ;
#524 = ORIENTED_EDGE ( 'NONE', *, *, #806, .T. ) ;
#525 = LINE ( 'NONE', #540, #323 ) ;
#526 = ORIENTED_EDGE ( 'NONE', *, *, #834, .T. ) ;
#527 = CYLINDRICAL_SURFACE ( 'NONE', #398, 3.299999999999997158 ) ;
#528 = ADVANCED_FACE ( 'NONE', ( #1125 ), #1136, .F. ) ;
#529 = VERTEX_POINT ( 'NONE', #261 ) ;
#530 = AXIS2_PLACEMENT_3D ( 'NONE', #522, #429, #921 ) ;
#531 = CONICAL_SURFACE ( 'NONE', #947, 4.599999999999999645, 0.7853981633974492782 ) ;
#532 = CARTESIAN_POINT ( 'NONE',  ( 22.00000000000017764, -38.10511776651520677, 1.850000000000000977 ) ) ;
#533 = EDGE_LOOP ( 'NONE', ( #814, #1260 ) ) ;
#534 = AXIS2_PLACEMENT_3D ( 'NONE', #460, #844, #1233 ) ;
#535 = VECTOR ( 'NONE', #311, 1000.000000000000000 ) ;
#536 = ADVANCED_FACE ( 'NONE', ( #922 ), #120, .F. ) ;
#537 = DIRECTION ( 'NONE',  ( -1.000000000000000000, 0.000000000000000000, 0.000000000000000000 ) ) ;
#538 = DIRECTION ( 'NONE',  ( 0.000000000000000000, 0.000000000000000000, 1.000000000000000000 ) ) ;
#539 = ORIENTED_EDGE ( 'NONE', *, *, #104, .T. ) ;
#540 = CARTESIAN_POINT ( 'NONE',  ( -24.74999999999991118, -38.10511776651534888, 0.000000000000000000 ) ) ;
#541 = ORIENTED_EDGE ( 'NONE', *, *, #177, .F. ) ;
#542 = LINE ( 'NONE', #433, #635 ) ;
#543 =( NAMED_UNIT ( * ) SI_UNIT ( $, .STERADIAN. ) SOLID_ANGLE_UNIT ( ) );
#544 = EDGE_CURVE ( 'NONE', #719, #1154, #824, .T. ) ;
#545 = EDGE_LOOP ( 'NONE', ( #1040, #1089, #330, #214 ) ) ;
#546 = EDGE_CURVE ( 'NONE', #302, #37, #278, .T. ) ;
#547 = DIRECTION ( 'NONE',  ( -0.000000000000000000, -0.000000000000000000, -1.000000000000000000 ) ) ;
#548 = DIRECTION ( 'NONE',  ( 1.000000000000000000, 0.000000000000000000, 0.000000000000000000 ) ) ;
#549 = CARTESIAN_POINT ( 'NONE',  ( -25.00000000000000000, 0.000000000000000000, 7.000000000000000000 ) ) ;
#550 = AXIS2_PLACEMENT_3D ( 'NONE', #1166, #184, #1262 ) ;
#551 = DIRECTION ( 'NONE',  ( -1.000000000000000000, 0.000000000000000000, -0.000000000000000000 ) ) ;
#552 = DIRECTION ( 'NONE',  ( -1.000000000000000000, 0.000000000000000000, 0.000000000000000000 ) ) ;
#553 = VERTEX_POINT ( 'NONE', #343 ) ;
#554 = FACE_BOUND ( 'NONE', #466, .T. ) ;
#555 = EDGE_CURVE ( 'NONE', #896, #1137, #792, .T. ) ;
#556 = SURFACE_SIDE_STYLE ('',( #1225 ) ) ;
#557 = ORIENTED_EDGE ( 'NONE', *, *, #250, .F. ) ;
#558 = VERTEX_POINT ( 'NONE', #350 ) ;
#559 = DIRECTION ( 'NONE',  ( -0.000000000000000000, -0.000000000000000000, -1.000000000000000000 ) ) ;
#560 = DIRECTION ( 'NONE',  ( -0.000000000000000000, -0.000000000000000000, -1.000000000000000000 ) ) ;
#561 = EDGE_LOOP ( 'NONE', ( #721, #77 ) ) ;
#562 = DIRECTION ( 'NONE',  ( -1.000000000000000000, 0.000000000000000000, 0.000000000000000000 ) ) ;
#563 = ORIENTED_EDGE ( 'NONE', *, *, #894, .T. ) ;
#564 = ADVANCED_FACE ( 'NONE', ( #743 ), #1128, .F. ) ;
#565 = CIRCLE ( 'NONE', #568, 2.749999999999995559 ) ;
#566 = ORIENTED_EDGE ( 'NONE', *, *, #182, .T. ) ;
#567 = VECTOR ( 'NONE', #803, 999.9999999999998863 ) ;
#568 = AXIS2_PLACEMENT_3D ( 'NONE', #1031, #58, #552 ) ;
#569 = CARTESIAN_POINT ( 'NONE',  ( -22.00000000000044409, 38.10511776651503624, 0.000000000000000000 ) ) ;
#570 = VECTOR ( 'NONE', #929, 999.9999999999998863 ) ;
#571 = VECTOR ( 'NONE', #1009, 1000.000000000000000 ) ;
#572 = DIRECTION ( 'NONE',  ( 0.000000000000000000, 0.000000000000000000, -1.000000000000000000 ) ) ;
#573 = AXIS2_PLACEMENT_3D ( 'NONE', #867, #467, #846 ) ;
#574 = CYLINDRICAL_SURFACE ( 'NONE', #829, 2.749999999999999112 ) ;
#575 = ORIENTED_EDGE ( 'NONE', *, *, #546, .F. ) ;
#576 = ORIENTED_EDGE ( 'NONE', *, *, #1121, .F. ) ;
#577 = DIRECTION ( 'NONE',  ( -1.000000000000000000, 0.000000000000000000, 0.000000000000000000 ) ) ;
#578 = DIRECTION ( 'NONE',  ( -1.000000000000000000, 0.000000000000000000, 0.000000000000000000 ) ) ;
#579 = CARTESIAN_POINT ( 'NONE',  ( -22.00000000000044409, 38.10511776651503624, 0.000000000000000000 ) ) ;
#580 = CYLINDRICAL_SURFACE ( 'NONE', #1075, 3.300000000000000711 ) ;
#581 = ADVANCED_FACE ( 'NONE', ( #1234 ), #1132, .F. ) ;
#582 = CARTESIAN_POINT ( 'NONE',  ( -23.60000000000000142, 23.60000000000000142, 0.000000000000000000 ) ) ;
#583 = EDGE_LOOP ( 'NONE', ( #657, #882, #1134, #453 ) ) ;
#584 = EDGE_CURVE ( 'NONE', #1108, #745, #7, .T. ) ;
#585 = CARTESIAN_POINT ( 'NONE',  ( 21.99999999999964473, 38.10511776651549809, 0.000000000000000000 ) ) ;
#586 = CARTESIAN_POINT ( 'NONE',  ( -22.00000000000044409, 38.10511776651503624, 0.000000000000000000 ) ) ;
#587 = CARTESIAN_POINT ( 'NONE',  ( 23.60000000000000142, -23.60000000000000142, 0.000000000000000000 ) ) ;
#588 = ADVANCED_FACE ( 'NONE', ( #267 ), #852, .F. ) ;
#589 = CARTESIAN_POINT ( 'NONE',  ( 19.24999999999964473, 38.10511776651549809, 6.999999999999999112 ) ) ;
#590 = VERTEX_POINT ( 'NONE', #1045 ) ;
#591 = VERTEX_POINT ( 'NONE', #484 ) ;
#592 = CONICAL_SURFACE ( 'NONE', #32, 4.599999999999999645, 0.7853981633974482790 ) ;
#593 = AXIS2_PLACEMENT_3D ( 'NONE', #582, #1072, #191 ) ;
#594 = DIRECTION ( 'NONE',  ( 0.000000000000000000, 0.000000000000000000, -1.000000000000000000 ) ) ;
#595 = DIRECTION ( 'NONE',  ( -0.000000000000000000, -0.000000000000000000, -1.000000000000000000 ) ) ;
#596 = CIRCLE ( 'NONE', #178, 3.299999999999997158 ) ;
#597 = LINE ( 'NONE', #386, #1013 ) ;
#598 = ORIENTED_EDGE ( 'NONE', *, *, #1221, .F. ) ;
#599 = EDGE_LOOP ( 'NONE', ( #83, #1187 ) ) ;
#600 = EDGE_CURVE ( 'NONE', #318, #660, #171, .T. ) ;
#601 = CARTESIAN_POINT ( 'NONE',  ( 22.00000000000017764, -38.10511776651520677, 0.000000000000000000 ) ) ;
#602 = CARTESIAN_POINT ( 'NONE',  ( -39.39999999999999858, 5.633375276077824112E-16, 0.000000000000000000 ) ) ;
#603 = FACE_OUTER_BOUND ( 'NONE', #379, .T. ) ;
#604 = ORIENTED_EDGE ( 'NONE', *, *, #65, .F. ) ;
#605 = CARTESIAN_POINT ( 'NONE',  ( 26.90000000000000213, 23.60000000000000142, 6.000000000000000000 ) ) ;
#606 = EDGE_LOOP ( 'NONE', ( #800, #243 ) ) ;
#607 = DIRECTION ( 'NONE',  ( -1.000000000000000000, 0.000000000000000000, 0.000000000000000000 ) ) ;
#608 = CYLINDRICAL_SURFACE ( 'NONE', #1032, 3.300000000000000711 ) ;
#609 = VERTEX_POINT ( 'NONE', #1254 ) ;
#610 = EDGE_CURVE ( 'NONE', #558, #475, #735, .T. ) ;
#611 = ORIENTED_EDGE ( 'NONE', *, *, #866, .F. ) ;
#612 = CARTESIAN_POINT ( 'NONE',  ( 26.90000000000000213, -23.60000000000000142, 6.000000000000000000 ) ) ;
#613 = VECTOR ( 'NONE', #156, 1000.000000000000000 ) ;
#614 = EDGE_LOOP ( 'NONE', ( #1090, #1066, #997, #1206 ) ) ;
#615 = CIRCLE ( 'NONE', #216, 4.599999999999999645 ) ;
#616 = AXIS2_PLACEMENT_3D ( 'NONE', #817, #1093, #998 ) ;
#617 = AXIS2_PLACEMENT_3D ( 'NONE', #455, #654, #1115 ) ;
#618 = CARTESIAN_POINT ( 'NONE',  ( 44.00000000000000000, 0.000000000000000000, 0.000000000000000000 ) ) ;
#619 = ORIENTED_EDGE ( 'NONE', *, *, #26, .F. ) ;
#620 = DIRECTION ( 'NONE',  ( -1.000000000000000000, 0.000000000000000000, 0.000000000000000000 ) ) ;
#621 = CARTESIAN_POINT ( 'NONE',  ( 26.90000000000000213, -23.60000000000000142, 0.000000000000000000 ) ) ;
#622 = EDGE_LOOP ( 'NONE', ( #707, #1237, #288, #381 ) ) ;
#623 = CARTESIAN_POINT ( 'NONE',  ( -26.60000000000044196, 38.10511776651503624, 0.000000000000000000 ) ) ;
#624 = ORIENTED_EDGE ( 'NONE', *, *, #1038, .T. ) ;
#625 = EDGE_CURVE ( 'NONE', #475, #558, #459, .T. ) ;
#626 = DIRECTION ( 'NONE',  ( -0.000000000000000000, -0.000000000000000000, -1.000000000000000000 ) ) ;
#627 = ORIENTED_EDGE ( 'NONE', *, *, #746, .F. ) ;
#628 = CARTESIAN_POINT ( 'NONE',  ( -46.74999999999999289, 0.000000000000000000, 0.000000000000000000 ) ) ;
#629 = ORIENTED_EDGE ( 'NONE', *, *, #646, .F. ) ;
#630 = EDGE_CURVE ( 'NONE', #495, #110, #972, .T. ) ;
#631 = CARTESIAN_POINT ( 'NONE',  ( -44.00000000000000000, 0.000000000000000000, 0.000000000000000000 ) ) ;
#632 = ORIENTED_EDGE ( 'NONE', *, *, #910, .T. ) ;
#633 = CIRCLE ( 'NONE', #279, 2.749999999999999112 ) ;
#634 = AXIS2_PLACEMENT_3D ( 'NONE', #741, #448, #847 ) ;
#635 = VECTOR ( 'NONE', #820, 1000.000000000000114 ) ;
#636 = CARTESIAN_POINT ( 'NONE',  ( 0.000000000000000000, 0.000000000000000000, 7.000000000000000000 ) ) ;
#637 = ORIENTED_EDGE ( 'NONE', *, *, #250, .T. ) ;
#638 = VECTOR ( 'NONE', #857, 1000.000000000000000 ) ;
#639 = LINE ( 'NONE', #897, #297 ) ;
#640 = EDGE_CURVE ( 'NONE', #114, #719, #596, .T. ) ;
#641 = EDGE_CURVE ( 'NONE', #481, #1169, #1156, .T. ) ;
#642 = ORIENTED_EDGE ( 'NONE', *, *, #716, .F. ) ;
#643 = FACE_OUTER_BOUND ( 'NONE', #751, .T. ) ;
#644 = CARTESIAN_POINT ( 'NONE',  ( 0.000000000000000000, 0.000000000000000000, 7.000000000000000000 ) ) ;
#645 = FACE_OUTER_BOUND ( 'NONE', #4, .T. ) ;
#646 = EDGE_CURVE ( 'NONE', #481, #842, #428, .T. ) ;
#647 = CARTESIAN_POINT ( 'NONE',  ( -21.99999999999991118, -38.10511776651534888, 0.000000000000000000 ) ) ;
#648 = DIRECTION ( 'NONE',  ( 0.000000000000000000, 0.000000000000000000, -1.000000000000000000 ) ) ;
#649 = EDGE_LOOP ( 'NONE', ( #876, #24, #70, #979 ) ) ;
#650 = CIRCLE ( 'NONE', #69, 4.599999999999999645 ) ;
#651 = CIRCLE ( 'NONE', #375, 4.599999999999999645 ) ;
#652 = EDGE_CURVE ( 'NONE', #101, #822, #1180, .T. ) ;
#653 = DIRECTION ( 'NONE',  ( -1.000000000000000000, 0.000000000000000000, 0.000000000000000000 ) ) ;
#654 = DIRECTION ( 'NONE',  ( -0.000000000000000000, -0.000000000000000000, -1.000000000000000000 ) ) ;
#655 = DIRECTION ( 'NONE',  ( -0.000000000000000000, -0.000000000000000000, -1.000000000000000000 ) ) ;
#656 = ADVANCED_FACE ( 'NONE', ( #1061 ), #188, .F. ) ;
#657 = ORIENTED_EDGE ( 'NONE', *, *, #128, .F. ) ;
#658 = PLANE ( 'NONE',  #153 ) ;
#659 = DIRECTION ( 'NONE',  ( -1.000000000000000000, 0.000000000000000000, 0.000000000000000000 ) ) ;
#660 = VERTEX_POINT ( 'NONE', #164 ) ;
#661 = ORIENTED_EDGE ( 'NONE', *, *, #334, .T. ) ;
#662 = EDGE_CURVE ( 'NONE', #394, #308, #996, .T. ) ;
#663 = ORIENTED_EDGE ( 'NONE', *, *, #1049, .F. ) ;
#664 = CARTESIAN_POINT ( 'NONE',  ( -22.00000000000044409, 38.10511776651503624, 1.850000000000000977 ) ) ;
#665 = DIRECTION ( 'NONE',  ( -1.000000000000000000, 0.000000000000000000, 0.000000000000000000 ) ) ;
#666 = DIRECTION ( 'NONE',  ( -0.000000000000000000, -0.000000000000000000, -1.000000000000000000 ) ) ;
#667 = LINE ( 'NONE', #1047, #669 ) ;
#668 = VERTEX_POINT ( 'NONE', #1246 ) ;
#669 = VECTOR ( 'NONE', #926, 1000.000000000000000 ) ;
#670 = CARTESIAN_POINT ( 'NONE',  ( -46.74999999999999289, 0.000000000000000000, 1.850000000000000977 ) ) ;
#671 = CIRCLE ( 'NONE', #1226, 4.599999999999999645 ) ;
#672 = CIRCLE ( 'NONE', #790, 2.749999999999999112 ) ;
#673 = DIRECTION ( 'NONE',  ( -1.000000000000000000, 0.000000000000000000, 0.000000000000000000 ) ) ;
#674 = VECTOR ( 'NONE', #1039, 1000.000000000000000 ) ;
#675 = ADVANCED_FACE ( 'NONE', ( #389 ), #574, .F. ) ;
#676 = DIRECTION ( 'NONE',  ( -1.000000000000000000, 0.000000000000000000, 0.000000000000000000 ) ) ;
#677 = FACE_OUTER_BOUND ( 'NONE', #264, .T. ) ;
#678 = EDGE_CURVE ( 'NONE', #822, #101, #633, .T. ) ;
#679 = ORIENTED_EDGE ( 'NONE', *, *, #610, .T. ) ;
#680 = DIRECTION ( 'NONE',  ( -0.000000000000000000, -0.000000000000000000, -1.000000000000000000 ) ) ;
#681 = CARTESIAN_POINT ( 'NONE',  ( -49.00000000000000000, 0.000000000000000000, 7.000000000000000000 ) ) ;
#682 = EDGE_CURVE ( 'NONE', #745, #1108, #36, .T. ) ;
#683 = DIRECTION ( 'NONE',  ( -1.000000000000000000, 0.000000000000000000, 0.000000000000000000 ) ) ;
#684 = FACE_OUTER_BOUND ( 'NONE', #1162, .T. ) ;
#685 = DIRECTION ( 'NONE',  ( -1.000000000000000000, 0.000000000000000000, -0.000000000000000000 ) ) ;
#686 = EDGE_LOOP ( 'NONE', ( #352, #1018, #206, #1003 ) ) ;
#687 =( LENGTH_UNIT ( ) NAMED_UNIT ( * ) SI_UNIT ( .MILLI., .METRE. ) );
#688 = ORIENTED_EDGE ( 'NONE', *, *, #894, .F. ) ;
#689 = CYLINDRICAL_SURFACE ( 'NONE', #1231, 49.00000000000000000 ) ;
#690 = DIRECTION ( 'NONE',  ( -1.000000000000000000, 0.000000000000000000, 0.000000000000000000 ) ) ;
#691 = CARTESIAN_POINT ( 'NONE',  ( 24.75000000000017764, -38.10511776651520677, 1.850000000000000977 ) ) ;
#692 = ORIENTED_EDGE ( 'NONE', *, *, #640, .F. ) ;
#693 = EDGE_CURVE ( 'NONE', #745, #418, #873, .T. ) ;
#694 = EDGE_LOOP ( 'NONE', ( #392, #510, #357, #1196 ) ) ;
#695 = AXIS2_PLACEMENT_3D ( 'NONE', #1181, #1087, #317 ) ;
#696 = UNCERTAINTY_MEASURE_WITH_UNIT (LENGTH_MEASURE( 1.000000000000000082E-05 ), #146, 'distance_accuracy_value', 'NONE');
#697 = FACE_OUTER_BOUND ( 'NONE', #649, .T. ) ;
#698 = DIRECTION ( 'NONE',  ( -0.000000000000000000, -0.000000000000000000, -1.000000000000000000 ) ) ;
#699 = AXIS2_PLACEMENT_3D ( 'NONE', #363, #21, #607 ) ;
#700 = DIRECTION ( 'NONE',  ( -0.000000000000000000, -0.000000000000000000, -1.000000000000000000 ) ) ;
#701 = ORIENTED_EDGE ( 'NONE', *, *, #1006, .T. ) ;
#702 = EDGE_LOOP ( 'NONE', ( #911, #870, #539, #505 ) ) ;
#703 = CYLINDRICAL_SURFACE ( 'NONE', #862, 3.300000000000000711 ) ;
#704 = EDGE_CURVE ( 'NONE', #325, #144, #944, .T. ) ;
#705 = DIRECTION ( 'NONE',  ( 1.000000000000000000, 0.000000000000000000, 0.000000000000000000 ) ) ;
#706 = ORIENTED_EDGE ( 'NONE', *, *, #682, .F. ) ;
#707 = ORIENTED_EDGE ( 'NONE', *, *, #82, .F. ) ;
#708 = CARTESIAN_POINT ( 'NONE',  ( 0.000000000000000000, 0.000000000000000000, 7.000000000000000000 ) ) ;
#709 = ORIENTED_EDGE ( 'NONE', *, *, #555, .T. ) ;
#710 = CARTESIAN_POINT ( 'NONE',  ( 26.90000000000000213, -23.60000000000000142, 6.000000000000000000 ) ) ;
#711 = DIRECTION ( 'NONE',  ( -1.000000000000000000, 0.000000000000000000, 0.000000000000000000 ) ) ;
#712 = CIRCLE ( 'NONE', #373, 4.599999999999999645 ) ;
#713 = DIRECTION ( 'NONE',  ( -0.000000000000000000, -0.000000000000000000, -1.000000000000000000 ) ) ;
#714 = CIRCLE ( 'NONE', #172, 4.599999999999999645 ) ;
#715 = ORIENTED_EDGE ( 'NONE', *, *, #85, .T. ) ;
#716 = EDGE_CURVE ( 'NONE', #458, #553, #1070, .T. ) ;
#717 = DIRECTION ( 'NONE',  ( -0.000000000000000000, -0.000000000000000000, -1.000000000000000000 ) ) ;
#718 = ADVANCED_FACE ( 'NONE', ( #953 ), #473, .F. ) ;
#719 = VERTEX_POINT ( 'NONE', #289 ) ;
#720 = FACE_OUTER_BOUND ( 'NONE', #388, .T. ) ;
#721 = ORIENTED_EDGE ( 'NONE', *, *, #1067, .F. ) ;
#722 = CARTESIAN_POINT ( 'NONE',  ( 39.39999999999999858, 0.000000000000000000, 0.000000000000000000 ) ) ;
#723 = ORIENTED_EDGE ( 'NONE', *, *, #1000, .T. ) ;
#724 = CARTESIAN_POINT ( 'NONE',  ( -41.25000000000000000, 3.367778697655215588E-16, 1.850000000000000977 ) ) ;
#725 = ORIENTED_EDGE ( 'NONE', *, *, #987, .T. ) ;
#726 = DIRECTION ( 'NONE',  ( -1.000000000000000000, 0.000000000000000000, 0.000000000000000000 ) ) ;
#727 = ORIENTED_EDGE ( 'NONE', *, *, #503, .T. ) ;
#728 = ADVANCED_FACE ( 'NONE', ( #94 ), #689, .T. ) ;
#729 = CARTESIAN_POINT ( 'NONE',  ( 17.39999999999964331, 38.10511776651549809, 0.000000000000000000 ) ) ;
#730 = CARTESIAN_POINT ( 'NONE',  ( 21.99999999999964473, 38.10511776651549809, 0.000000000000000000 ) ) ;
#731 = AXIS2_PLACEMENT_3D ( 'NONE', #489, #774, #275 ) ;
#732 = AXIS2_PLACEMENT_3D ( 'NONE', #1247, #860, #497 ) ;
#733 = VECTOR ( 'NONE', #986, 1000.000000000000114 ) ;
#734 = ORIENTED_EDGE ( 'NONE', *, *, #405, .F. ) ;
#735 = CIRCLE ( 'NONE', #240, 3.300000000000000711 ) ;
#736 = DIRECTION ( 'NONE',  ( -1.000000000000000000, 0.000000000000000000, 0.000000000000000000 ) ) ;
#737 = CARTESIAN_POINT ( 'NONE',  ( -21.99999999999991118, -38.10511776651534888, 1.850000000000000977 ) ) ;
#738 = EDGE_CURVE ( 'NONE', #63, #529, #196, .T. ) ;
#739 = CARTESIAN_POINT ( 'NONE',  ( -26.89999999999999858, -23.60000000000000142, 0.000000000000000000 ) ) ;
#740 = CARTESIAN_POINT ( 'NONE',  ( 23.60000000000000142, -23.60000000000000142, 0.000000000000000000 ) ) ;
#741 = CARTESIAN_POINT ( 'NONE',  ( 22.00000000000017764, -38.10511776651520677, 0.000000000000000000 ) ) ;
#742 = FACE_OUTER_BOUND ( 'NONE', #599, .T. ) ;
#743 = FACE_OUTER_BOUND ( 'NONE', #137, .T. ) ;
#744 = VECTOR ( 'NONE', #167, 1000.000000000000114 ) ;
#745 = VERTEX_POINT ( 'NONE', #80 ) ;
#746 = EDGE_CURVE ( 'NONE', #63, #31, #508, .T. ) ;
#747 = EDGE_LOOP ( 'NONE', ( #884, #557, #516, #1059 ) ) ;
#748 = MECHANICAL_DESIGN_GEOMETRIC_PRESENTATION_REPRESENTATION (  '', ( #300 ), #888 ) ;
#749 = CARTESIAN_POINT ( 'NONE',  ( -20.30000000000000071, 23.60000000000000142, 6.000000000000000000 ) ) ;
#750 = CARTESIAN_POINT ( 'NONE',  ( 46.74999999999999289, 3.367778697655215588E-16, 6.999999999999999112 ) ) ;
#751 = EDGE_LOOP ( 'NONE', ( #29, #2, #566, #507 ) ) ;
#752 = CARTESIAN_POINT ( 'NONE',  ( 44.00000000000000000, 0.000000000000000000, 0.000000000000000000 ) ) ;
#753 = ORIENTED_EDGE ( 'NONE', *, *, #1067, .T. ) ;
#754 = CARTESIAN_POINT ( 'NONE',  ( -44.00000000000000000, 0.000000000000000000, 1.850000000000000977 ) ) ;
#755 = DIRECTION ( 'NONE',  ( -0.000000000000000000, -0.000000000000000000, -1.000000000000000000 ) ) ;
#756 = CARTESIAN_POINT ( 'NONE',  ( 49.00000000000000000, 6.000769315822030937E-15, 7.000000000000000000 ) ) ;
#757 = EDGE_LOOP ( 'NONE', ( #1168, #336, #709, #795 ) ) ;
#758 = ORIENTED_EDGE ( 'NONE', *, *, #249, .T. ) ;
#759 = LINE ( 'NONE', #78, #570 ) ;
#760 = DIRECTION ( 'NONE',  ( 0.000000000000000000, 0.000000000000000000, -1.000000000000000000 ) ) ;
#761 = ADVANCED_FACE ( 'NONE', ( #284 ), #1235, .F. ) ;
#762 = CARTESIAN_POINT ( 'NONE',  ( -23.60000000000000142, 23.60000000000000142, 6.000000000000000000 ) ) ;
#763 = VERTEX_POINT ( 'NONE', #1261 ) ;
#764 = ORIENTED_EDGE ( 'NONE', *, *, #503, .F. ) ;
#765 = CONICAL_SURFACE ( 'NONE', #354, 4.599999999999999645, 0.7853981633974482790 ) ;
#766 = AXIS2_PLACEMENT_3D ( 'NONE', #1022, #538, #245 ) ;
#767 = CARTESIAN_POINT ( 'NONE',  ( 23.60000000000000142, 23.60000000000000142, 0.000000000000000000 ) ) ;
#768 = DIRECTION ( 'NONE',  ( -1.000000000000000000, 0.000000000000000000, 0.000000000000000000 ) ) ;
#769 = FACE_OUTER_BOUND ( 'NONE', #808, .T. ) ;
#770 = CARTESIAN_POINT ( 'NONE',  ( 44.00000000000000000, 0.000000000000000000, 0.000000000000000000 ) ) ;
#771 = EDGE_LOOP ( 'NONE', ( #371, #575 ) ) ;
#772 =( NAMED_UNIT ( * ) PLANE_ANGLE_UNIT ( ) SI_UNIT ( $, .RADIAN. ) );
#773 = EDGE_LOOP ( 'NONE', ( #764, #627 ) ) ;
#774 = DIRECTION ( 'NONE',  ( -0.000000000000000000, -0.000000000000000000, -1.000000000000000000 ) ) ;
#775 = FACE_OUTER_BOUND ( 'NONE', #142, .T. ) ;
#776 = ADVANCED_FACE ( 'NONE', ( #853 ), #272, .F. ) ;
#777 = LINE ( 'NONE', #8, #33 ) ;
#778 = ORIENTED_EDGE ( 'NONE', *, *, #447, .F. ) ;
#779 = EDGE_LOOP ( 'NONE', ( #967, #1110 ) ) ;
#780 = DIRECTION ( 'NONE',  ( -0.000000000000000000, -0.000000000000000000, -1.000000000000000000 ) ) ;
#781 = CARTESIAN_POINT ( 'NONE',  ( -22.00000000000044409, 38.10511776651503624, 0.000000000000000000 ) ) ;
#782 = CYLINDRICAL_SURFACE ( 'NONE', #488, 2.749999999999995559 ) ;
#783 = ORIENTED_EDGE ( 'NONE', *, *, #1024, .F. ) ;
#784 = CLOSED_SHELL ( 'NONE', ( #1263, #127, #564, #850, #973, #1111, #421, #656, #581, #327, #928, #761, #858, #528, #1133, #941, #588, #219, #50, #1201, #728, #148, #456, #215, #1190, #776, #174, #1245, #229, #536, #675, #242, #718, #788, #193, #802, #315, #359, #158, #920, #930, #1123 ) ) ;
#785 = AXIS2_PLACEMENT_3D ( 'NONE', #737, #451, #833 ) ;
#786 = AXIS2_PLACEMENT_3D ( 'NONE', #1150, #932, #1035 ) ;
#787 = EDGE_LOOP ( 'NONE', ( #838, #226, #989, #663 ) ) ;
#788 = ADVANCED_FACE ( 'NONE', ( #166 ), #1055, .F. ) ;
#789 = AXIS2_PLACEMENT_3D ( 'NONE', #809, #324, #1103 ) ;
#790 = AXIS2_PLACEMENT_3D ( 'NONE', #185, #90, #480 ) ;
#791 = CARTESIAN_POINT ( 'NONE',  ( 24.74999999999964473, 38.10511776651549809, 1.850000000000000977 ) ) ;
#792 = CIRCLE ( 'NONE', #785, 2.749999999999999112 ) ;
#793 = LINE ( 'NONE', #982, #1251 ) ;
#794 = ORIENTED_EDGE ( 'NONE', *, *, #486, .F. ) ;
#795 = ORIENTED_EDGE ( 'NONE', *, *, #257, .F. ) ;
#796 = CARTESIAN_POINT ( 'NONE',  ( -19.24999999999991473, -38.10511776651534888, 1.850000000000000977 ) ) ;
#797 = EDGE_LOOP ( 'NONE', ( #1005, #422 ) ) ;
#798 = CARTESIAN_POINT ( 'NONE',  ( 23.60000000000000142, 23.60000000000000142, 6.000000000000000000 ) ) ;
#799 = EDGE_LOOP ( 'NONE', ( #364, #409, #387, #753 ) ) ;
#800 = ORIENTED_EDGE ( 'NONE', *, *, #662, .T. ) ;
#801 = DIRECTION ( 'NONE',  ( -0.7071067811865474617, 0.000000000000000000, -0.7071067811865474617 ) ) ;
#802 = ADVANCED_FACE ( 'NONE', ( #369 ), #72, .T. ) ;
#803 = DIRECTION ( 'NONE',  ( 0.7071067811865483499, 8.659560562354942719E-17, -0.7071067811865467956 ) ) ;
#804 = EDGE_CURVE ( 'NONE', #358, #591, #395, .T. ) ;
#805 = VERTEX_POINT ( 'NONE', #1255 ) ;
#806 = EDGE_CURVE ( 'NONE', #763, #108, #66, .T. ) ;
#807 = DIRECTION ( 'NONE',  ( 0.000000000000000000, 0.000000000000000000, -1.000000000000000000 ) ) ;
#808 = EDGE_LOOP ( 'NONE', ( #794, #1119, #831, #1164 ) ) ;
#809 = CARTESIAN_POINT ( 'NONE',  ( -22.00000000000044409, 38.10511776651503624, 0.000000000000000000 ) ) ;
#810 = VECTOR ( 'NONE', #291, 1000.000000000000000 ) ;
#811 = ORIENTED_EDGE ( 'NONE', *, *, #746, .T. ) ;
#812 = CIRCLE ( 'NONE', #1214, 25.00000000000000000 ) ;
#813 = DIRECTION ( 'NONE',  ( -1.000000000000000000, 0.000000000000000000, 0.000000000000000000 ) ) ;
#814 = ORIENTED_EDGE ( 'NONE', *, *, #1176, .F. ) ;
#815 = DIRECTION ( 'NONE',  ( -0.000000000000000000, -0.000000000000000000, -1.000000000000000000 ) ) ;
#816 = ORIENTED_EDGE ( 'NONE', *, *, #1145, .T. ) ;
#817 = CARTESIAN_POINT ( 'NONE',  ( 22.00000000000017764, -38.10511776651520677, 6.999999999999999112 ) ) ;
#818 = EDGE_CURVE ( 'NONE', #1169, #39, #5, .T. ) ;
#819 = ORIENTED_EDGE ( 'NONE', *, *, #345, .F. ) ;
#820 = DIRECTION ( 'NONE',  ( 0.7071067811865474617, 8.659560562354932858E-17, -0.7071067811865474617 ) ) ;
#821 = CARTESIAN_POINT ( 'NONE',  ( 21.99999999999964473, 38.10511776651549809, 0.000000000000000000 ) ) ;
#822 = VERTEX_POINT ( 'NONE', #791 ) ;
#823 = DIRECTION ( 'NONE',  ( -1.000000000000000000, 0.000000000000000000, 0.000000000000000000 ) ) ;
#824 = LINE ( 'NONE', #435, #1053 ) ;
#825 = AXIS2_PLACEMENT_3D ( 'NONE', #1062, #383, #562 ) ;
#826 = AXIS2_PLACEMENT_3D ( 'NONE', #664, #246, #252 ) ;
#827 = AXIS2_PLACEMENT_3D ( 'NONE', #400, #1065, #875 ) ;
#828 = AXIS2_PLACEMENT_3D ( 'NONE', #47, #440, #159 ) ;
#829 = AXIS2_PLACEMENT_3D ( 'NONE', #87, #105, #496 ) ;
#830 = DIRECTION ( 'NONE',  ( -1.000000000000000000, 0.000000000000000000, 0.000000000000000000 ) ) ;
#831 = ORIENTED_EDGE ( 'NONE', *, *, #625, .T. ) ;
#832 = FACE_BOUND ( 'NONE', #533, .T. ) ;
#833 = DIRECTION ( 'NONE',  ( -1.000000000000000000, 0.000000000000000000, 0.000000000000000000 ) ) ;
#834 = EDGE_CURVE ( 'NONE', #110, #144, #1193, .T. ) ;
#835 = DIRECTION ( 'NONE',  ( -0.000000000000000000, -0.000000000000000000, -1.000000000000000000 ) ) ;
#836 = ORIENTED_EDGE ( 'NONE', *, *, #65, .T. ) ;
#837 = CARTESIAN_POINT ( 'NONE',  ( -44.00000000000000000, 0.000000000000000000, 0.000000000000000000 ) ) ;
#838 = ORIENTED_EDGE ( 'NONE', *, *, #312, .F. ) ;
#839 = DIRECTION ( 'NONE',  ( -1.000000000000000000, 0.000000000000000000, 0.000000000000000000 ) ) ;
#840 = AXIS2_PLACEMENT_3D ( 'NONE', #134, #20, #1112 ) ;
#841 = CIRCLE ( 'NONE', #11, 2.749999999999999112 ) ;
#842 = VERTEX_POINT ( 'NONE', #1185 ) ;
#843 = CONICAL_SURFACE ( 'NONE', #950, 4.599999999999999645, 0.7853981633974482790 ) ;
#844 = DIRECTION ( 'NONE',  ( -0.000000000000000000, -0.000000000000000000, -1.000000000000000000 ) ) ;
#845 = CARTESIAN_POINT ( 'NONE',  ( 44.00000000000000000, 0.000000000000000000, 0.000000000000000000 ) ) ;
#846 = DIRECTION ( 'NONE',  ( -1.000000000000000000, 0.000000000000000000, 0.000000000000000000 ) ) ;
#847 = DIRECTION ( 'NONE',  ( -1.000000000000000000, 0.000000000000000000, 0.000000000000000000 ) ) ;
#848 = EDGE_CURVE ( 'NONE', #332, #899, #889, .T. ) ;
#849 = ORIENTED_EDGE ( 'NONE', *, *, #738, .F. ) ;
#850 = ADVANCED_FACE ( 'NONE', ( #697 ), #703, .F. ) ;
#851 = FACE_BOUND ( 'NONE', #906, .T. ) ;
#852 = CYLINDRICAL_SURFACE ( 'NONE', #234, 25.00000000000000000 ) ;
#853 = FACE_OUTER_BOUND ( 'NONE', #1189, .T. ) ;
#854 = ORIENTED_EDGE ( 'NONE', *, *, #266, .T. ) ;
#855 = ORIENTED_EDGE ( 'NONE', *, *, #517, .T. ) ;
#856 = CARTESIAN_POINT ( 'NONE',  ( 20.30000000000000071, 23.60000000000000142, 6.000000000000000000 ) ) ;
#857 = DIRECTION ( 'NONE',  ( -0.000000000000000000, -0.000000000000000000, -1.000000000000000000 ) ) ;
#858 = ADVANCED_FACE ( 'NONE', ( #1099 ), #49, .F. ) ;
#859 = DIRECTION ( 'NONE',  ( -0.000000000000000000, -0.000000000000000000, -1.000000000000000000 ) ) ;
#860 = DIRECTION ( 'NONE',  ( 0.000000000000000000, 0.000000000000000000, 1.000000000000000000 ) ) ;
#861 = FACE_OUTER_BOUND ( 'NONE', #1232, .T. ) ;
#862 = AXIS2_PLACEMENT_3D ( 'NONE', #396, #713, #995 ) ;
#863 = VECTOR ( 'NONE', #417, 1000.000000000000114 ) ;
#864 = CIRCLE ( 'NONE', #427, 2.749999999999999112 ) ;
#865 = CARTESIAN_POINT ( 'NONE',  ( 46.74999999999999289, 3.367778697655215588E-16, 0.000000000000000000 ) ) ;
#866 = EDGE_CURVE ( 'NONE', #332, #609, #173, .T. ) ;
#867 = CARTESIAN_POINT ( 'NONE',  ( 22.00000000000017764, -38.10511776651520677, 1.850000000000000977 ) ) ;
#868 = CARTESIAN_POINT ( 'NONE',  ( 0.000000000000000000, 0.000000000000000000, 7.000000000000000000 ) ) ;
#869 = DIRECTION ( 'NONE',  ( -0.000000000000000000, -0.000000000000000000, -1.000000000000000000 ) ) ;
#870 = ORIENTED_EDGE ( 'NONE', *, *, #584, .F. ) ;
#871 = PRODUCT_CONTEXT ( 'NONE', #84, 'mechanical' ) ;
#872 = ORIENTED_EDGE ( 'NONE', *, *, #1030, .F. ) ;
#873 = LINE ( 'NONE', #1165, #402 ) ;
#874 = CARTESIAN_POINT ( 'NONE',  ( -26.89999999999999858, -23.60000000000000142, 6.000000000000000000 ) ) ;
#875 = DIRECTION ( 'NONE',  ( -1.000000000000000000, 0.000000000000000000, 0.000000000000000000 ) ) ;
#876 = ORIENTED_EDGE ( 'NONE', *, *, #630, .F. ) ;
#877 = VERTEX_POINT ( 'NONE', #518 ) ;
#878 = EDGE_CURVE ( 'NONE', #418, #176, #111, .T. ) ;
#879 = DIRECTION ( 'NONE',  ( -0.000000000000000000, -0.000000000000000000, -1.000000000000000000 ) ) ;
#880 = DIRECTION ( 'NONE',  ( -1.000000000000000000, 0.000000000000000000, 0.000000000000000000 ) ) ;
#881 = DIRECTION ( 'NONE',  ( -0.000000000000000000, -0.000000000000000000, -1.000000000000000000 ) ) ;
#882 = ORIENTED_EDGE ( 'NONE', *, *, #716, .T. ) ;
#883 = AXIS2_PLACEMENT_3D ( 'NONE', #376, #594, #676 ) ;
#884 = ORIENTED_EDGE ( 'NONE', *, *, #1000, .F. ) ;
#885 = CIRCLE ( 'NONE', #840, 2.749999999999995559 ) ;
#886 = CIRCLE ( 'NONE', #827, 2.749999999999995559 ) ;
#887 = CIRCLE ( 'NONE', #51, 2.749999999999995559 ) ;
#888 =( GEOMETRIC_REPRESENTATION_CONTEXT ( 3 ) GLOBAL_UNCERTAINTY_ASSIGNED_CONTEXT ( ( #696 ) ) GLOBAL_UNIT_ASSIGNED_CONTEXT ( ( #146, #52, #543 ) ) REPRESENTATION_CONTEXT ( 'NONE', 'WORKASPACE' ) );
#889 = LINE ( 'NONE', #612, #535 ) ;
#890 = AXIS2_PLACEMENT_3D ( 'NONE', #255, #755, #952 ) ;
#891 = VERTEX_POINT ( 'NONE', #117 ) ;
#892 = CARTESIAN_POINT ( 'NONE',  ( 22.00000000000017764, -38.10511776651520677, 6.999999999999999112 ) ) ;
#893 = ORIENTED_EDGE ( 'NONE', *, *, #385, .T. ) ;
#894 = EDGE_CURVE ( 'NONE', #110, #495, #1074, .T. ) ;
#895 = EDGE_CURVE ( 'NONE', #305, #438, #1012, .T. ) ;
#896 = VERTEX_POINT ( 'NONE', #796 ) ;
#897 = CARTESIAN_POINT ( 'NONE',  ( -26.59999999999991260, -38.10511776651534888, 0.000000000000000000 ) ) ;
#898 = DIRECTION ( 'NONE',  ( -1.000000000000000000, 0.000000000000000000, 0.000000000000000000 ) ) ;
#899 = VERTEX_POINT ( 'NONE', #621 ) ;
#900 = CARTESIAN_POINT ( 'NONE',  ( -24.75000000000044054, 38.10511776651503624, 1.850000000000000977 ) ) ;
#901 = EDGE_LOOP ( 'NONE', ( #147, #16 ) ) ;
#902 = CARTESIAN_POINT ( 'NONE',  ( -23.60000000000000142, -23.60000000000000142, 0.000000000000000000 ) ) ;
#903 = CARTESIAN_POINT ( 'NONE',  ( 23.60000000000000142, 23.60000000000000142, 6.000000000000000000 ) ) ;
#904 = ORIENTED_EDGE ( 'NONE', *, *, #1064, .T. ) ;
#905 = DIRECTION ( 'NONE',  ( -0.000000000000000000, -0.000000000000000000, -1.000000000000000000 ) ) ;
#906 = EDGE_LOOP ( 'NONE', ( #1242, #1241 ) ) ;
#907 = FACE_OUTER_BOUND ( 'NONE', #999, .T. ) ;
#908 = AXIS2_PLACEMENT_3D ( 'NONE', #902, #1021, #620 ) ;
#909 = CONICAL_SURFACE ( 'NONE', #424, 4.599999999999999645, 0.7853981633974482790 ) ;
#910 = EDGE_CURVE ( 'NONE', #318, #458, #1113, .T. ) ;
#911 = ORIENTED_EDGE ( 'NONE', *, *, #693, .F. ) ;
#912 = VECTOR ( 'NONE', #268, 1000.000000000000000 ) ;
#913 = DIRECTION ( 'NONE',  ( -0.000000000000000000, -0.000000000000000000, -1.000000000000000000 ) ) ;
#914 = ORIENTED_EDGE ( 'NONE', *, *, #544, .F. ) ;
#915 = CARTESIAN_POINT ( 'NONE',  ( -22.00000000000044409, 38.10511776651503624, 0.000000000000000000 ) ) ;
#916 = DIRECTION ( 'NONE',  ( -1.000000000000000000, 0.000000000000000000, 0.000000000000000000 ) ) ;
#917 = ORIENTED_EDGE ( 'NONE', *, *, #1212, .F. ) ;
#918 = DIRECTION ( 'NONE',  ( -1.000000000000000000, 0.000000000000000000, 0.000000000000000000 ) ) ;
#919 = EDGE_LOOP ( 'NONE', ( #192, #401 ) ) ;
#920 = ADVANCED_FACE ( 'NONE', ( #130 ), #980, .T. ) ;
#921 = DIRECTION ( 'NONE',  ( -1.000000000000000000, 0.000000000000000000, 0.000000000000000000 ) ) ;
#922 = FACE_OUTER_BOUND ( 'NONE', #799, .T. ) ;
#923 = DIRECTION ( 'NONE',  ( -0.000000000000000000, -0.000000000000000000, -1.000000000000000000 ) ) ;
#924 = PRESENTATION_STYLE_ASSIGNMENT (( #57 ) ) ;
#925 = VECTOR ( 'NONE', #1026, 1000.000000000000114 ) ;
#926 = DIRECTION ( 'NONE',  ( -0.000000000000000000, -0.000000000000000000, -1.000000000000000000 ) ) ;
#927 = CIRCLE ( 'NONE', #534, 2.749999999999995559 ) ;
#928 = ADVANCED_FACE ( 'NONE', ( #1080 ), #592, .F. ) ;
#929 = DIRECTION ( 'NONE',  ( -0.7071067811865483499, 0.000000000000000000, -0.7071067811865467956 ) ) ;
#930 = ADVANCED_FACE ( 'NONE', ( #720 ), #527, .F. ) ;
#931 = DIRECTION ( 'NONE',  ( -0.000000000000000000, -0.000000000000000000, -1.000000000000000000 ) ) ;
#932 = DIRECTION ( 'NONE',  ( 0.000000000000000000, 0.000000000000000000, 1.000000000000000000 ) ) ;
#933 = ORIENTED_EDGE ( 'NONE', *, *, #1142, .F. ) ;
#934 = DIRECTION ( 'NONE',  ( -0.000000000000000000, -0.000000000000000000, -1.000000000000000000 ) ) ;
#935 = CARTESIAN_POINT ( 'NONE',  ( 26.90000000000000213, 23.60000000000000142, 0.000000000000000000 ) ) ;
#936 = CARTESIAN_POINT ( 'NONE',  ( 24.74999999999964473, 38.10511776651549809, 0.000000000000000000 ) ) ;
#937 = EDGE_LOOP ( 'NONE', ( #983, #1253, #836, #365 ) ) ;
#938 = FACE_OUTER_BOUND ( 'NONE', #426, .T. ) ;
#939 = CARTESIAN_POINT ( 'NONE',  ( 21.99999999999964473, 38.10511776651549809, 6.999999999999999112 ) ) ;
#940 = ORIENTED_EDGE ( 'NONE', *, *, #89, .T. ) ;
#941 = ADVANCED_FACE ( 'NONE', ( #907 ), #1211, .F. ) ;
#942 = DIRECTION ( 'NONE',  ( -1.000000000000000000, 0.000000000000000000, 0.000000000000000000 ) ) ;
#943 = ORIENTED_EDGE ( 'NONE', *, *, #895, .T. ) ;
#944 = CIRCLE ( 'NONE', #883, 3.300000000000000711 ) ;
#945 = CIRCLE ( 'NONE', #397, 3.300000000000000711 ) ;
#946 = AXIS2_PLACEMENT_3D ( 'NONE', #60, #265, #551 ) ;
#947 = AXIS2_PLACEMENT_3D ( 'NONE', #223, #717, #813 ) ;
#948 = VERTEX_POINT ( 'NONE', #244 ) ;
#949 = VECTOR ( 'NONE', #1060, 1000.000000000000000 ) ;
#950 = AXIS2_PLACEMENT_3D ( 'NONE', #1088, #307, #1082 ) ;
#951 = DIRECTION ( 'NONE',  ( 1.000000000000000000, 0.000000000000000000, -0.000000000000000000 ) ) ;
#952 = DIRECTION ( 'NONE',  ( -1.000000000000000000, 0.000000000000000000, 0.000000000000000000 ) ) ;
#953 = FACE_OUTER_BOUND ( 'NONE', #702, .T. ) ;
#954 = EDGE_LOOP ( 'NONE', ( #9, #292 ) ) ;
#955 = EDGE_LOOP ( 'NONE', ( #294, #1139 ) ) ;
#956 = CARTESIAN_POINT ( 'NONE',  ( 19.25000000000018119, -38.10511776651520677, 0.000000000000000000 ) ) ;
#957 = EDGE_CURVE ( 'NONE', #1036, #877, #671, .T. ) ;
#958 = CARTESIAN_POINT ( 'NONE',  ( 21.99999999999964473, 38.10511776651549809, 1.850000000000000977 ) ) ;
#959 = DIRECTION ( 'NONE',  ( -1.000000000000000000, 0.000000000000000000, 0.000000000000000000 ) ) ;
#960 = CARTESIAN_POINT ( 'NONE',  ( -23.60000000000000142, 23.60000000000000142, 6.000000000000000000 ) ) ;
#961 = CARTESIAN_POINT ( 'NONE',  ( -20.30000000000000071, 23.60000000000000142, 0.000000000000000000 ) ) ;
#962 = ORIENTED_EDGE ( 'NONE', *, *, #1221, .T. ) ;
#963 = DIRECTION ( 'NONE',  ( -0.000000000000000000, -0.000000000000000000, -1.000000000000000000 ) ) ;
#964 = DIRECTION ( 'NONE',  ( -1.000000000000000000, 0.000000000000000000, -0.000000000000000000 ) ) ;
#965 = DIRECTION ( 'NONE',  ( -0.000000000000000000, -0.000000000000000000, -1.000000000000000000 ) ) ;
#966 = CARTESIAN_POINT ( 'NONE',  ( 24.75000000000017764, -38.10511776651520677, 6.999999999999999112 ) ) ;
#967 = ORIENTED_EDGE ( 'NONE', *, *, #584, .T. ) ;
#968 = VECTOR ( 'NONE', #1203, 1000.000000000000000 ) ;
#969 = DIRECTION ( 'NONE',  ( -0.000000000000000000, -0.000000000000000000, -1.000000000000000000 ) ) ;
#970 = CIRCLE ( 'NONE', #766, 25.00000000000000000 ) ;
#971 = ORIENTED_EDGE ( 'NONE', *, *, #662, .F. ) ;
#972 = CIRCLE ( 'NONE', #337, 3.300000000000000711 ) ;
#973 = ADVANCED_FACE ( 'NONE', ( #643 ), #765, .F. ) ;
#974 = DIRECTION ( 'NONE',  ( -0.000000000000000000, -0.000000000000000000, -1.000000000000000000 ) ) ;
#975 = CARTESIAN_POINT ( 'NONE',  ( -26.90000000000000213, 23.60000000000000142, 6.000000000000000000 ) ) ;
#976 = DIRECTION ( 'NONE',  ( -1.000000000000000000, 0.000000000000000000, 0.000000000000000000 ) ) ;
#977 = VERTEX_POINT ( 'NONE', #1001 ) ;
#978 = CARTESIAN_POINT ( 'NONE',  ( 0.000000000000000000, 0.000000000000000000, 0.000000000000000000 ) ) ;
#979 = ORIENTED_EDGE ( 'NONE', *, *, #834, .F. ) ;
#980 = PLANE ( 'NONE',  #442 ) ;
#981 = CARTESIAN_POINT ( 'NONE',  ( 23.60000000000000142, 23.60000000000000142, 6.000000000000000000 ) ) ;
#982 = CARTESIAN_POINT ( 'NONE',  ( 39.39999999999999858, 0.000000000000000000, 0.000000000000000000 ) ) ;
#983 = ORIENTED_EDGE ( 'NONE', *, *, #804, .F. ) ;
#984 = DIRECTION ( 'NONE',  ( -0.000000000000000000, -0.000000000000000000, -1.000000000000000000 ) ) ;
#985 = EDGE_LOOP ( 'NONE', ( #783, #1085 ) ) ;
#986 = DIRECTION ( 'NONE',  ( 0.7071067811865474617, 8.659560562354932858E-17, -0.7071067811865474617 ) ) ;
#987 = EDGE_CURVE ( 'NONE', #1204, #1106, #885, .T. ) ;
#988 = CARTESIAN_POINT ( 'NONE',  ( 19.24999999999964473, 38.10511776651549809, 0.000000000000000000 ) ) ;
#989 = ORIENTED_EDGE ( 'NONE', *, *, #1025, .T. ) ;
#990 = AXIS2_PLACEMENT_3D ( 'NONE', #586, #175, #942 ) ;
#991 = ORIENTED_EDGE ( 'NONE', *, *, #115, .T. ) ;
#992 = VECTOR ( 'NONE', #934, 1000.000000000000000 ) ;
#993 = AXIS2_PLACEMENT_3D ( 'NONE', #1017, #218, #43 ) ;
#994 = AXIS2_PLACEMENT_3D ( 'NONE', #754, #547, #1147 ) ;
#995 = DIRECTION ( 'NONE',  ( -1.000000000000000000, 0.000000000000000000, 0.000000000000000000 ) ) ;
#996 = CIRCLE ( 'NONE', #465, 2.749999999999999112 ) ;
#997 = ORIENTED_EDGE ( 'NONE', *, *, #14, .T. ) ;
#998 = DIRECTION ( 'NONE',  ( -1.000000000000000000, 0.000000000000000000, 0.000000000000000000 ) ) ;
#999 = EDGE_LOOP ( 'NONE', ( #598, #121, #519, #1092 ) ) ;
#1000 = EDGE_CURVE ( 'NONE', #436, #358, #1007, .T. ) ;
#1001 = CARTESIAN_POINT ( 'NONE',  ( -24.74999999999991118, -38.10511776651534888, 6.999999999999999112 ) ) ;
#1002 = DIRECTION ( 'NONE',  ( 1.000000000000000000, 0.000000000000000000, 0.000000000000000000 ) ) ;
#1003 = ORIENTED_EDGE ( 'NONE', *, *, #1038, .F. ) ;
#1004 = DIRECTION ( 'NONE',  ( -0.000000000000000000, -0.000000000000000000, -1.000000000000000000 ) ) ;
#1005 = ORIENTED_EDGE ( 'NONE', *, *, #447, .T. ) ;
#1006 = EDGE_CURVE ( 'NONE', #101, #37, #1011, .T. ) ;
#1007 = LINE ( 'NONE', #34, #253 ) ;
#1008 = ORIENTED_EDGE ( 'NONE', *, *, #280, .T. ) ;
#1009 = DIRECTION ( 'NONE',  ( -0.000000000000000000, -0.000000000000000000, -1.000000000000000000 ) ) ;
#1010 = ORIENTED_EDGE ( 'NONE', *, *, #161, .F. ) ;
#1011 = LINE ( 'NONE', #729, #10 ) ;
#1012 = CIRCLE ( 'NONE', #1129, 4.599999999999999645 ) ;
#1013 = VECTOR ( 'NONE', #700, 1000.000000000000000 ) ;
#1014 = DIRECTION ( 'NONE',  ( 0.000000000000000000, 0.000000000000000000, 1.000000000000000000 ) ) ;
#1015 = ORIENTED_EDGE ( 'NONE', *, *, #693, .T. ) ;
#1016 = AXIS2_PLACEMENT_3D ( 'NONE', #740, #41, #355 ) ;
#1017 = CARTESIAN_POINT ( 'NONE',  ( -44.00000000000000000, 0.000000000000000000, 0.000000000000000000 ) ) ;
#1018 = ORIENTED_EDGE ( 'NONE', *, *, #1086, .T. ) ;
#1019 = DIRECTION ( 'NONE',  ( -0.7071067811865474617, 0.000000000000000000, -0.7071067811865474617 ) ) ;
#1020 = ORIENTED_EDGE ( 'NONE', *, *, #140, .F. ) ;
#1021 = DIRECTION ( 'NONE',  ( 0.000000000000000000, 0.000000000000000000, -1.000000000000000000 ) ) ;
#1022 = CARTESIAN_POINT ( 'NONE',  ( 0.000000000000000000, 0.000000000000000000, 0.000000000000000000 ) ) ;
#1023 = FACE_BOUND ( 'NONE', #606, .T. ) ;
#1024 = EDGE_CURVE ( 'NONE', #1194, #1154, #236, .T. ) ;
#1025 = EDGE_CURVE ( 'NONE', #1154, #1194, #97, .T. ) ;
#1026 = DIRECTION ( 'NONE',  ( 0.7071067811865474617, 8.659560562354932858E-17, -0.7071067811865474617 ) ) ;
#1027 = CARTESIAN_POINT ( 'NONE',  ( 49.00000000000000000, 6.000769315822030937E-15, 7.000000000000000000 ) ) ;
#1028 = AXIS2_PLACEMENT_3D ( 'NONE', #316, #1120, #1107 ) ;
#1029 = AXIS2_PLACEMENT_3D ( 'NONE', #868, #190, #197 ) ;
#1030 = EDGE_CURVE ( 'NONE', #529, #668, #138, .T. ) ;
#1031 = CARTESIAN_POINT ( 'NONE',  ( 44.00000000000000000, 0.000000000000000000, 1.850000000000000977 ) ) ;
#1032 = AXIS2_PLACEMENT_3D ( 'NONE', #209, #881, #100 ) ;
#1033 = DIRECTION ( 'NONE',  ( -0.000000000000000000, -0.000000000000000000, -1.000000000000000000 ) ) ;
#1034 = DIRECTION ( 'NONE',  ( -1.000000000000000000, 0.000000000000000000, 0.000000000000000000 ) ) ;
#1035 = DIRECTION ( 'NONE',  ( 1.000000000000000000, 0.000000000000000000, -0.000000000000000000 ) ) ;
#1036 = VERTEX_POINT ( 'NONE', #149 ) ;
#1037 = CARTESIAN_POINT ( 'NONE',  ( 0.000000000000000000, 0.000000000000000000, 0.000000000000000000 ) ) ;
#1038 = EDGE_CURVE ( 'NONE', #1137, #305, #639, .T. ) ;
#1039 = DIRECTION ( 'NONE',  ( -0.000000000000000000, -0.000000000000000000, -1.000000000000000000 ) ) ;
#1040 = ORIENTED_EDGE ( 'NONE', *, *, #44, .F. ) ;
#1041 = CARTESIAN_POINT ( 'NONE',  ( 22.00000000000017764, -38.10511776651520677, 0.000000000000000000 ) ) ;
#1042 = LINE ( 'NONE', #1218, #744 ) ;
#1043 = EDGE_LOOP ( 'NONE', ( #642, #195, #411, #1191 ) ) ;
#1044 = DIRECTION ( 'NONE',  ( -1.000000000000000000, 0.000000000000000000, 0.000000000000000000 ) ) ;
#1045 = CARTESIAN_POINT ( 'NONE',  ( 19.25000000000018119, -38.10511776651520677, 6.999999999999999112 ) ) ;
#1046 = DIRECTION ( 'NONE',  ( -1.000000000000000000, 0.000000000000000000, 0.000000000000000000 ) ) ;
#1047 = CARTESIAN_POINT ( 'NONE',  ( -24.75000000000044054, 38.10511776651503624, 0.000000000000000000 ) ) ;
#1048 = AXIS2_PLACEMENT_3D ( 'NONE', #181, #560, #578 ) ;
#1049 = EDGE_CURVE ( 'NONE', #114, #1194, #25, .T. ) ;
#1050 = AXIS2_PLACEMENT_3D ( 'NONE', #145, #238, #823 ) ;
#1051 = AXIS2_PLACEMENT_3D ( 'NONE', #23, #807, #1195 ) ;
#1052 = EDGE_LOOP ( 'NONE', ( #576, #313, #701, #233 ) ) ;
#1053 = VECTOR ( 'NONE', #931, 1000.000000000000000 ) ;
#1054 = LINE ( 'NONE', #856, #463 ) ;
#1055 = CONICAL_SURFACE ( 'NONE', #990, 4.599999999999999645, 0.7853981633974482790 ) ;
#1056 = CARTESIAN_POINT ( 'NONE',  ( -22.00000000000044409, 38.10511776651503624, 6.999999999999999112 ) ) ;
#1057 = CARTESIAN_POINT ( 'NONE',  ( 25.00000000000000000, 3.061616997868383043E-15, 7.000000000000000000 ) ) ;
#1058 = CARTESIAN_POINT ( 'NONE',  ( -19.24999999999991473, -38.10511776651534888, 6.999999999999999112 ) ) ;
#1059 = ORIENTED_EDGE ( 'NONE', *, *, #310, .T. ) ;
#1060 = DIRECTION ( 'NONE',  ( -0.000000000000000000, -0.000000000000000000, -1.000000000000000000 ) ) ;
#1061 = FACE_OUTER_BOUND ( 'NONE', #622, .T. ) ;
#1062 = CARTESIAN_POINT ( 'NONE',  ( -21.99999999999991118, -38.10511776651534888, 0.000000000000000000 ) ) ;
#1063 = DIRECTION ( 'NONE',  ( 0.000000000000000000, 0.000000000000000000, -1.000000000000000000 ) ) ;
#1064 = EDGE_CURVE ( 'NONE', #609, #332, #1152, .T. ) ;
#1065 = DIRECTION ( 'NONE',  ( -0.000000000000000000, -0.000000000000000000, -1.000000000000000000 ) ) ;
#1066 = ORIENTED_EDGE ( 'NONE', *, *, #310, .F. ) ;
#1067 = EDGE_CURVE ( 'NONE', #228, #39, #461, .T. ) ;
#1068 = LINE ( 'NONE', #956, #949 ) ;
#1069 = ORIENTED_EDGE ( 'NONE', *, *, #806, .F. ) ;
#1070 = LINE ( 'NONE', #756, #201 ) ;
#1071 = CARTESIAN_POINT ( 'NONE',  ( -26.90000000000000213, 23.60000000000000142, 0.000000000000000000 ) ) ;
#1072 = DIRECTION ( 'NONE',  ( 0.000000000000000000, 0.000000000000000000, -1.000000000000000000 ) ) ;
#1073 = ORIENTED_EDGE ( 'NONE', *, *, #641, .T. ) ;
#1074 = CIRCLE ( 'NONE', #423, 3.300000000000000711 ) ;
#1075 = AXIS2_PLACEMENT_3D ( 'NONE', #960, #88, #479 ) ;
#1076 = CARTESIAN_POINT ( 'NONE',  ( 22.00000000000017764, -38.10511776651520677, 0.000000000000000000 ) ) ;
#1077 = COLOUR_RGB ( '',0.7921568627450980005, 0.8196078431372548767, 0.9333333333333333481 ) ;
#1078 = EDGE_LOOP ( 'NONE', ( #524, #962 ) ) ;
#1079 = AXIS2_PLACEMENT_3D ( 'NONE', #762, #183, #964 ) ;
#1080 = FACE_OUTER_BOUND ( 'NONE', #937, .T. ) ;
#1081 = CYLINDRICAL_SURFACE ( 'NONE', #251, 3.300000000000000711 ) ;
#1082 = DIRECTION ( 'NONE',  ( -1.000000000000000000, 0.000000000000000000, 0.000000000000000000 ) ) ;
#1083 = ORIENTED_EDGE ( 'NONE', *, *, #128, .T. ) ;
#1084 = DIRECTION ( 'NONE',  ( -0.000000000000000000, -0.000000000000000000, -1.000000000000000000 ) ) ;
#1085 = ORIENTED_EDGE ( 'NONE', *, *, #1025, .F. ) ;
#1086 = EDGE_CURVE ( 'NONE', #896, #438, #542, .T. ) ;
#1087 = DIRECTION ( 'NONE',  ( -0.000000000000000000, -0.000000000000000000, -1.000000000000000000 ) ) ;
#1088 = CARTESIAN_POINT ( 'NONE',  ( 21.99999999999964473, 38.10511776651549809, 0.000000000000000000 ) ) ;
#1089 = ORIENTED_EDGE ( 'NONE', *, *, #280, .F. ) ;
#1090 = ORIENTED_EDGE ( 'NONE', *, *, #403, .F. ) ;
#1091 = DIRECTION ( 'NONE',  ( 0.000000000000000000, 0.000000000000000000, 1.000000000000000000 ) ) ;
#1092 = ORIENTED_EDGE ( 'NONE', *, *, #299, .F. ) ;
#1093 = DIRECTION ( 'NONE',  ( -0.000000000000000000, -0.000000000000000000, -1.000000000000000000 ) ) ;
#1094 = EDGE_CURVE ( 'NONE', #438, #305, #650, .T. ) ;
#1095 = AXIS2_PLACEMENT_3D ( 'NONE', #470, #1033, #169 ) ;
#1096 = FACE_OUTER_BOUND ( 'NONE', #135, .T. ) ;
#1097 = PRODUCT_DEFINITION_FORMATION_WITH_SPECIFIED_SOURCE ( 'ANY', '', #61, .NOT_KNOWN. ) ;
#1098 = PRODUCT_RELATED_PRODUCT_CATEGORY ( 'part', '', ( #61 ) ) ;
#1099 = FACE_OUTER_BOUND ( 'NONE', #686, .T. ) ;
#1100 = ORIENTED_EDGE ( 'NONE', *, *, #678, .F. ) ;
#1101 = FACE_OUTER_BOUND ( 'NONE', #1052, .T. ) ;
#1102 = ORIENTED_EDGE ( 'NONE', *, *, #895, .F. ) ;
#1103 = DIRECTION ( 'NONE',  ( -1.000000000000000000, 0.000000000000000000, 0.000000000000000000 ) ) ;
#1104 = ORIENTED_EDGE ( 'NONE', *, *, #630, .T. ) ;
#1105 = DIRECTION ( 'NONE',  ( -1.000000000000000000, 0.000000000000000000, 0.000000000000000000 ) ) ;
#1106 = VERTEX_POINT ( 'NONE', #724 ) ;
#1107 = DIRECTION ( 'NONE',  ( 1.000000000000000000, 0.000000000000000000, 0.000000000000000000 ) ) ;
#1108 = VERTEX_POINT ( 'NONE', #1207 ) ;
#1109 = FACE_OUTER_BOUND ( 'NONE', #694, .T. ) ;
#1110 = ORIENTED_EDGE ( 'NONE', *, *, #682, .T. ) ;
#1111 = ADVANCED_FACE ( 'NONE', ( #1096 ), #419, .F. ) ;
#1112 = DIRECTION ( 'NONE',  ( -1.000000000000000000, 0.000000000000000000, 0.000000000000000000 ) ) ;
#1113 = CIRCLE ( 'NONE', #1175, 49.00000000000000000 ) ;
#1114 = CIRCLE ( 'NONE', #462, 2.749999999999999112 ) ;
#1115 = DIRECTION ( 'NONE',  ( -1.000000000000000000, 0.000000000000000000, 0.000000000000000000 ) ) ;
#1116 = AXIS2_PLACEMENT_3D ( 'NONE', #1076, #304, #577 ) ;
#1117 = PRESENTATION_LAYER_ASSIGNMENT (  '', '', ( #300 ) ) ;
#1118 = AXIS2_PLACEMENT_3D ( 'NONE', #579, #859, #768 ) ;
#1119 = ORIENTED_EDGE ( 'NONE', *, *, #1228, .T. ) ;
#1120 = DIRECTION ( 'NONE',  ( 0.000000000000000000, 0.000000000000000000, 1.000000000000000000 ) ) ;
#1121 = EDGE_CURVE ( 'NONE', #822, #302, #450, .T. ) ;
#1122 = CARTESIAN_POINT ( 'NONE',  ( 23.60000000000000142, 23.60000000000000142, 6.000000000000000000 ) ) ;
#1123 = ADVANCED_FACE ( 'NONE', ( #742 ), #152, .T. ) ;
#1124 = FACE_BOUND ( 'NONE', #955, .T. ) ;
#1125 = FACE_OUTER_BOUND ( 'NONE', #757, .T. ) ;
#1126 = CARTESIAN_POINT ( 'NONE',  ( 48.59999999999999432, 5.633375276077824112E-16, 0.000000000000000000 ) ) ;
#1127 = CARTESIAN_POINT ( 'NONE',  ( -20.30000000000000426, -23.60000000000000142, 0.000000000000000000 ) ) ;
#1128 = CYLINDRICAL_SURFACE ( 'NONE', #890, 3.300000000000000711 ) ;
#1129 = AXIS2_PLACEMENT_3D ( 'NONE', #509, #15, #408 ) ;
#1130 = CIRCLE ( 'NONE', #593, 3.300000000000000711 ) ;
#1131 = PLANE ( 'NONE',  #786 ) ;
#1132 = CONICAL_SURFACE ( 'NONE', #515, 4.599999999999999645, 0.7853981633974492782 ) ;
#1133 = ADVANCED_FACE ( 'NONE', ( #353 ), #339, .F. ) ;
#1134 = ORIENTED_EDGE ( 'NONE', *, *, #347, .T. ) ;
#1135 = FACE_BOUND ( 'NONE', #985, .T. ) ;
#1136 = CYLINDRICAL_SURFACE ( 'NONE', #341, 2.749999999999999112 ) ;
#1137 = VERTEX_POINT ( 'NONE', #1238 ) ;
#1138 = DIRECTION ( 'NONE',  ( -0.000000000000000000, -0.000000000000000000, -1.000000000000000000 ) ) ;
#1139 = ORIENTED_EDGE ( 'NONE', *, *, #625, .F. ) ;
#1140 = CARTESIAN_POINT ( 'NONE',  ( 21.99999999999964473, 38.10511776651549809, 0.000000000000000000 ) ) ;
#1141 = DIRECTION ( 'NONE',  ( -0.000000000000000000, -0.000000000000000000, -1.000000000000000000 ) ) ;
#1142 = EDGE_CURVE ( 'NONE', #1204, #1036, #759, .T. ) ;
#1143 = DIRECTION ( 'NONE',  ( -0.000000000000000000, -0.000000000000000000, -1.000000000000000000 ) ) ;
#1144 = LINE ( 'NONE', #248, #613 ) ;
#1145 = EDGE_CURVE ( 'NONE', #418, #309, #1213, .T. ) ;
#1146 = VERTEX_POINT ( 'NONE', #48 ) ;
#1147 = DIRECTION ( 'NONE',  ( -1.000000000000000000, 0.000000000000000000, 0.000000000000000000 ) ) ;
#1148 = DIRECTION ( 'NONE',  ( -1.000000000000000000, 0.000000000000000000, 0.000000000000000000 ) ) ;
#1149 = CARTESIAN_POINT ( 'NONE',  ( 21.99999999999964473, 38.10511776651549809, 1.850000000000000977 ) ) ;
#1150 = CARTESIAN_POINT ( 'NONE',  ( 0.000000000000000000, 0.000000000000000000, 7.000000000000000000 ) ) ;
#1151 = CIRCLE ( 'NONE', #1095, 4.599999999999999645 ) ;
#1152 = CIRCLE ( 'NONE', #274, 3.300000000000000711 ) ;
#1153 = AXIS2_PLACEMENT_3D ( 'NONE', #112, #296, #377 ) ;
#1154 = VERTEX_POINT ( 'NONE', #1127 ) ;
#1155 = AXIS2_PLACEMENT_3D ( 'NONE', #1122, #648, #916 ) ;
#1156 = LINE ( 'NONE', #865, #674 ) ;
#1157 = EDGE_CURVE ( 'NONE', #495, #325, #163, .T. ) ;
#1158 = CARTESIAN_POINT ( 'NONE',  ( 0.000000000000000000, 0.000000000000000000, 7.000000000000000000 ) ) ;
#1159 = LINE ( 'NONE', #602, #95 ) ;
#1160 = EDGE_CURVE ( 'NONE', #37, #302, #615, .T. ) ;
#1161 = DIRECTION ( 'NONE',  ( -0.000000000000000000, -0.000000000000000000, -1.000000000000000000 ) ) ;
#1162 = EDGE_LOOP ( 'NONE', ( #165, #778, #1174, #679 ) ) ;
#1163 = FACE_OUTER_BOUND ( 'NONE', #787, .T. ) ;
#1164 = ORIENTED_EDGE ( 'NONE', *, *, #1217, .F. ) ;
#1165 = CARTESIAN_POINT ( 'NONE',  ( -19.25000000000044409, 38.10511776651503624, 0.000000000000000000 ) ) ;
#1166 = CARTESIAN_POINT ( 'NONE',  ( -21.99999999999991118, -38.10511776651534888, 1.850000000000000977 ) ) ;
#1167 = DIRECTION ( 'NONE',  ( -0.000000000000000000, -0.000000000000000000, -1.000000000000000000 ) ) ;
#1168 = ORIENTED_EDGE ( 'NONE', *, *, #449, .F. ) ;
#1169 = VERTEX_POINT ( 'NONE', #444 ) ;
#1170 = DIRECTION ( 'NONE',  ( 0.000000000000000000, 0.000000000000000000, 1.000000000000000000 ) ) ;
#1171 = CYLINDRICAL_SURFACE ( 'NONE', #1153, 2.749999999999999112 ) ;
#1172 = CIRCLE ( 'NONE', #634, 4.599999999999999645 ) ;
#1173 = CARTESIAN_POINT ( 'NONE',  ( 41.25000000000000000, 0.000000000000000000, 0.000000000000000000 ) ) ;
#1174 = ORIENTED_EDGE ( 'NONE', *, *, #1217, .T. ) ;
#1175 = AXIS2_PLACEMENT_3D ( 'NONE', #708, #1091, #1002 ) ;
#1176 = EDGE_CURVE ( 'NONE', #259, #176, #712, .T. ) ;
#1177 = DIRECTION ( 'NONE',  ( -1.000000000000000000, 0.000000000000000000, 0.000000000000000000 ) ) ;
#1178 = CONICAL_SURFACE ( 'NONE', #1116, 4.599999999999999645, 0.7853981633974482790 ) ;
#1179 = EDGE_LOOP ( 'NONE', ( #1102, #412 ) ) ;
#1180 = CIRCLE ( 'NONE', #76, 2.749999999999999112 ) ;
#1181 = CARTESIAN_POINT ( 'NONE',  ( -21.99999999999991118, -38.10511776651534888, 0.000000000000000000 ) ) ;
#1182 = DIRECTION ( 'NONE',  ( -0.7071067811865483499, 0.000000000000000000, -0.7071067811865467956 ) ) ;
#1183 = EDGE_LOOP ( 'NONE', ( #619, #1184, #715, #734 ) ) ;
#1184 = ORIENTED_EDGE ( 'NONE', *, *, #818, .T. ) ;
#1185 = CARTESIAN_POINT ( 'NONE',  ( 41.25000000000000000, 0.000000000000000000, 6.999999999999999112 ) ) ;
#1186 = EDGE_CURVE ( 'NONE', #42, #406, #1151, .T. ) ;
#1187 = ORIENTED_EDGE ( 'NONE', *, *, #312, .T. ) ;
#1188 = DIRECTION ( 'NONE',  ( 0.000000000000000000, 0.000000000000000000, -1.000000000000000000 ) ) ;
#1189 = EDGE_LOOP ( 'NONE', ( #430, #541, #624, #943 ) ) ;
#1190 = ADVANCED_FACE ( 'NONE', ( #454 ), #361, .F. ) ;
#1191 = ORIENTED_EDGE ( 'NONE', *, *, #494, .T. ) ;
#1192 = DIRECTION ( 'NONE',  ( -0.000000000000000000, -0.000000000000000000, -1.000000000000000000 ) ) ;
#1193 = LINE ( 'NONE', #123, #170 ) ;
#1194 = VERTEX_POINT ( 'NONE', #739 ) ;
#1195 = DIRECTION ( 'NONE',  ( -1.000000000000000000, 0.000000000000000000, 0.000000000000000000 ) ) ;
#1196 = ORIENTED_EDGE ( 'NONE', *, *, #368, .T. ) ;
#1197 = VECTOR ( 'NONE', #835, 1000.000000000000000 ) ;
#1198 = DIRECTION ( 'NONE',  ( -0.000000000000000000, -0.000000000000000000, -1.000000000000000000 ) ) ;
#1199 = EDGE_LOOP ( 'NONE', ( #1008, #210 ) ) ;
#1200 = CARTESIAN_POINT ( 'NONE',  ( -26.60000000000044196, 38.10511776651503624, 0.000000000000000000 ) ) ;
#1201 = ADVANCED_FACE ( 'NONE', ( #1135, #1124, #851, #56, #832, #1219, #1224, #554, #366, #260, #938, #271 ), #658, .F. ) ;
#1202 = ORIENTED_EDGE ( 'NONE', *, *, #848, .F. ) ;
#1203 = DIRECTION ( 'NONE',  ( -0.000000000000000000, -0.000000000000000000, -1.000000000000000000 ) ) ;
#1204 = VERTEX_POINT ( 'NONE', #670 ) ;
#1205 = CYLINDRICAL_SURFACE ( 'NONE', #98, 49.00000000000000000 ) ;
#1206 = ORIENTED_EDGE ( 'NONE', *, *, #1186, .T. ) ;
#1207 = CARTESIAN_POINT ( 'NONE',  ( -24.75000000000044054, 38.10511776651503624, 6.999999999999999112 ) ) ;
#1208 = DIRECTION ( 'NONE',  ( -0.000000000000000000, -0.000000000000000000, -1.000000000000000000 ) ) ;
#1209 = ORIENTED_EDGE ( 'NONE', *, *, #161, .T. ) ;
#1210 = EDGE_CURVE ( 'NONE', #842, #481, #927, .T. ) ;
#1211 = CYLINDRICAL_SURFACE ( 'NONE', #319, 2.749999999999995559 ) ;
#1212 = EDGE_CURVE ( 'NONE', #1106, #1204, #277, .T. ) ;
#1213 = CIRCLE ( 'NONE', #826, 2.749999999999999112 ) ;
#1214 = AXIS2_PLACEMENT_3D ( 'NONE', #644, #141, #1220 ) ;
#1215 = DIRECTION ( 'NONE',  ( -1.000000000000000000, 0.000000000000000000, 0.000000000000000000 ) ) ;
#1216 = FILL_AREA_STYLE ('',( #150 ) ) ;
#1217 = EDGE_CURVE ( 'NONE', #805, #558, #1054, .T. ) ;
#1218 = CARTESIAN_POINT ( 'NONE',  ( 17.40000000000017977, -38.10511776651520677, 0.000000000000000000 ) ) ;
#1219 = FACE_BOUND ( 'NONE', #771, .T. ) ;
#1220 = DIRECTION ( 'NONE',  ( 1.000000000000000000, 0.000000000000000000, 0.000000000000000000 ) ) ;
#1221 = EDGE_CURVE ( 'NONE', #108, #763, #887, .T. ) ;
#1222 = CARTESIAN_POINT ( 'NONE',  ( 17.40000000000017977, -38.10511776651520677, 0.000000000000000000 ) ) ;
#1223 = ORIENTED_EDGE ( 'NONE', *, *, #1121, .T. ) ;
#1224 = FACE_BOUND ( 'NONE', #561, .T. ) ;
#1225 = SURFACE_STYLE_FILL_AREA ( #1216 ) ;
#1226 = AXIS2_PLACEMENT_3D ( 'NONE', #230, #626, #129 ) ;
#1227 = ORIENTED_EDGE ( 'NONE', *, *, #443, .F. ) ;
#1228 = EDGE_CURVE ( 'NONE', #891, #475, #3, .T. ) ;
#1229 = CARTESIAN_POINT ( 'NONE',  ( 25.00000000000000000, 3.061616997868383043E-15, 7.000000000000000000 ) ) ;
#1230 = CIRCLE ( 'NONE', #1155, 3.300000000000000711 ) ;
#1231 = AXIS2_PLACEMENT_3D ( 'NONE', #295, #974, #478 ) ;
#1232 = EDGE_LOOP ( 'NONE', ( #1020, #1069, #287, #725 ) ) ;
#1233 = DIRECTION ( 'NONE',  ( -1.000000000000000000, 0.000000000000000000, 0.000000000000000000 ) ) ;
#1234 = FACE_OUTER_BOUND ( 'NONE', #1183, .T. ) ;
#1235 = CYLINDRICAL_SURFACE ( 'NONE', #356, 2.749999999999999112 ) ;
#1236 = DIRECTION ( 'NONE',  ( -0.000000000000000000, -0.000000000000000000, -1.000000000000000000 ) ) ;
#1237 = ORIENTED_EDGE ( 'NONE', *, *, #28, .T. ) ;
#1238 = CARTESIAN_POINT ( 'NONE',  ( -24.74999999999991118, -38.10511776651534888, 1.850000000000000977 ) ) ;
#1239 = CARTESIAN_POINT ( 'NONE',  ( 23.60000000000000142, 23.60000000000000142, 0.000000000000000000 ) ) ;
#1240 = DIRECTION ( 'NONE',  ( 1.000000000000000000, 0.000000000000000000, 0.000000000000000000 ) ) ;
#1241 = ORIENTED_EDGE ( 'NONE', *, *, #115, .F. ) ;
#1242 = ORIENTED_EDGE ( 'NONE', *, *, #517, .F. ) ;
#1243 = EDGE_CURVE ( 'NONE', #590, #591, #1068, .T. ) ;
#1244 = DIRECTION ( 'NONE',  ( -1.000000000000000000, 0.000000000000000000, 0.000000000000000000 ) ) ;
#1245 = ADVANCED_FACE ( 'NONE', ( #380 ), #1178, .F. ) ;
#1246 = CARTESIAN_POINT ( 'NONE',  ( -25.00000000000000000, 0.000000000000000000, 0.000000000000000000 ) ) ;
#1247 = CARTESIAN_POINT ( 'NONE',  ( 0.000000000000000000, 0.000000000000000000, 7.000000000000000000 ) ) ;
#1248 = AXIS2_PLACEMENT_3D ( 'NONE', #647, #559, #1215 ) ;
#1249 = CYLINDRICAL_SURFACE ( 'NONE', #75, 2.749999999999995559 ) ;
#1250 = ORIENTED_EDGE ( 'NONE', *, *, #443, .T. ) ;
#1251 = VECTOR ( 'NONE', #1182, 999.9999999999998863 ) ;
#1252 = PRODUCT_DEFINITION ( 'UNKNOWN', '', #1097, #407 ) ;
#1253 = ORIENTED_EDGE ( 'NONE', *, *, #403, .T. ) ;
#1254 = CARTESIAN_POINT ( 'NONE',  ( 20.30000000000000071, -23.60000000000000142, 6.000000000000000000 ) ) ;
#1255 = CARTESIAN_POINT ( 'NONE',  ( 20.30000000000000071, 23.60000000000000142, 6.000000000000000000 ) ) ;
#1256 = CYLINDRICAL_SURFACE ( 'NONE', #338, 3.300000000000000711 ) ;
#1257 = FACE_OUTER_BOUND ( 'NONE', #432, .T. ) ;
#1258 = EDGE_LOOP ( 'NONE', ( #162, #971, #661, #116 ) ) ;
#1259 = APPLICATION_PROTOCOL_DEFINITION ( 'draft international standard', 'automotive_design', 1998, #212 ) ;
#1260 = ORIENTED_EDGE ( 'NONE', *, *, #182, .F. ) ;
#1261 = CARTESIAN_POINT ( 'NONE',  ( -46.74999999999999289, 0.000000000000000000, 6.999999999999999112 ) ) ;
#1262 = DIRECTION ( 'NONE',  ( -1.000000000000000000, 0.000000000000000000, 0.000000000000000000 ) ) ;
#1263 = ADVANCED_FACE ( 'NONE', ( #1163 ), #393, .F. ) ;
ENDSEC;
END-ISO-10303-21;
