ISO-10303-21;
HEADER;
FILE_DESCRIPTION (( 'STEP AP214' ),
    '1' );
FILE_NAME ('top-case.STEP',
    '2026-07-19T19:01:59',
    ( '' ),
    ( '' ),
    'SwSTEP 2.0',
    'SolidWorks 2026',
    '' );
FILE_SCHEMA (( 'AUTOMOTIVE_DESIGN' ));
ENDSEC;

DATA;
#1 = CARTESIAN_POINT ( 'NONE',  ( -40.70000000000000284, 4.041334437186262058E-16, 0.000000000000000000 ) ) ;
#2 = FACE_OUTER_BOUND ( 'NONE', #656, .T. ) ;
#3 = VERTEX_POINT ( 'NONE', #283 ) ;
#4 = DIRECTION ( 'NONE',  ( -0.000000000000000000, 0.000000000000000000, -1.000000000000000000 ) ) ;
#5 = VERTEX_POINT ( 'NONE', #44 ) ;
#6 = DIRECTION ( 'NONE',  ( -1.000000000000000000, 0.000000000000000000, 0.000000000000000000 ) ) ;
#7 = CIRCLE ( 'NONE', #293, 3.299999999999997158 ) ;
#8 = DIRECTION ( 'NONE',  ( -1.000000000000000000, 0.000000000000000000, 0.000000000000000000 ) ) ;
#9 = DIRECTION ( 'NONE',  ( 0.4999999999999917843, 0.8660254037844433705, 0.000000000000000000 ) ) ;
#10 = VERTEX_POINT ( 'NONE', #632 ) ;
#11 = DIRECTION ( 'NONE',  ( -1.000000000000000000, 0.000000000000000000, 0.000000000000000000 ) ) ;
#12 = DIRECTION ( 'NONE',  ( 1.000000000000000000, 0.000000000000000000, 0.000000000000000000 ) ) ;
#13 = ADVANCED_FACE ( 'NONE', ( #349 ), #697, .F. ) ;
#14 = CARTESIAN_POINT ( 'NONE',  ( 0.000000000000000000, 0.000000000000000000, 15.00000000000000000 ) ) ;
#15 = EDGE_LOOP ( 'NONE', ( #263, #173 ) ) ;
#16 = LINE ( 'NONE', #168, #194 ) ;
#17 = SURFACE_STYLE_USAGE ( .BOTH. , #258 ) ;
#18 = EDGE_CURVE ( 'NONE', #396, #260, #642, .T. ) ;
#19 = CARTESIAN_POINT ( 'NONE',  ( 44.00000000000000000, 0.000000000000000000, 6.000000000000000000 ) ) ;
#20 = ORIENTED_EDGE ( 'NONE', *, *, #686, .F. ) ;
#21 = CARTESIAN_POINT ( 'NONE',  ( -40.70000000000000284, 4.041334437186262058E-16, 6.000000000000000000 ) ) ;
#22 = CIRCLE ( 'NONE', #645, 34.49999999999999289 ) ;
#23 = CYLINDRICAL_SURFACE ( 'NONE', #390, 3.299999999999997158 ) ;
#24 = PRODUCT ( 'top-case', 'top-case', '', ( #348 ) ) ;
#25 = CARTESIAN_POINT ( 'NONE',  ( -22.00000000000044409, 38.10511776651503624, 6.000000000000000000 ) ) ;
#26 = VERTEX_POINT ( 'NONE', #1 ) ;
#27 = EDGE_CURVE ( 'NONE', #629, #562, #578, .T. ) ;
#28 = FACE_OUTER_BOUND ( 'NONE', #525, .T. ) ;
#29 = APPLICATION_PROTOCOL_DEFINITION ( 'draft international standard', 'automotive_design', 1998, #487 ) ;
#30 = ORIENTED_EDGE ( 'NONE', *, *, #442, .F. ) ;
#31 = DIRECTION ( 'NONE',  ( 1.000000000000000000, 0.000000000000000000, 0.000000000000000000 ) ) ;
#32 = LINE ( 'NONE', #209, #432 ) ;
#33 = ORIENTED_EDGE ( 'NONE', *, *, #186, .T. ) ;
#34 = DIRECTION ( 'NONE',  ( -0.000000000000000000, -0.000000000000000000, -1.000000000000000000 ) ) ;
#35 = ORIENTED_EDGE ( 'NONE', *, *, #577, .T. ) ;
#36 = AXIS2_PLACEMENT_3D ( 'NONE', #317, #546, #251 ) ;
#37 = ORIENTED_EDGE ( 'NONE', *, *, #287, .T. ) ;
#38 = VERTEX_POINT ( 'NONE', #125 ) ;
#39 = EDGE_CURVE ( 'NONE', #192, #423, #301, .T. ) ;
#40 = ORIENTED_EDGE ( 'NONE', *, *, #516, .T. ) ;
#41 = AXIS2_PLACEMENT_3D ( 'NONE', #434, #605, #548 ) ;
#42 = AXIS2_PLACEMENT_3D ( 'NONE', #74, #441, #68 ) ;
#43 = EDGE_CURVE ( 'NONE', #562, #629, #527, .T. ) ;
#44 = CARTESIAN_POINT ( 'NONE',  ( -25.30000000000044125, 38.10511776651503624, 0.000000000000000000 ) ) ;
#45 = DIRECTION ( 'NONE',  ( -0.000000000000000000, -0.000000000000000000, -1.000000000000000000 ) ) ;
#46 = VERTEX_POINT ( 'NONE', #521 ) ;
#47 = CARTESIAN_POINT ( 'NONE',  ( 47.29999999999999716, 4.041334437186262058E-16, 0.000000000000000000 ) ) ;
#48 = EDGE_LOOP ( 'NONE', ( #20, #221, #639, #40 ) ) ;
#49 = DIRECTION ( 'NONE',  ( 1.000000000000000000, 0.000000000000000000, 0.000000000000000000 ) ) ;
#50 = DIRECTION ( 'NONE',  ( 1.000000000000000000, 0.000000000000000000, -0.000000000000000000 ) ) ;
#51 = DIRECTION ( 'NONE',  ( -0.000000000000000000, -0.000000000000000000, -1.000000000000000000 ) ) ;
#52 = DIRECTION ( 'NONE',  ( 1.000000000000000000, 0.000000000000000000, 0.000000000000000000 ) ) ;
#53 = UNCERTAINTY_MEASURE_WITH_UNIT (LENGTH_MEASURE( 1.000000000000000082E-05 ), #71, 'distance_accuracy_value', 'NONE');
#54 = VECTOR ( 'NONE', #113, 1000.000000000000000 ) ;
#55 = CIRCLE ( 'NONE', #559, 39.00000000000000000 ) ;
#56 = DIRECTION ( 'NONE',  ( -0.000000000000000000, 0.000000000000000000, -1.000000000000000000 ) ) ;
#57 = ORIENTED_EDGE ( 'NONE', *, *, #451, .T. ) ;
#58 = CARTESIAN_POINT ( 'NONE',  ( -18.70000000000044693, 38.10511776651503624, 6.000000000000000000 ) ) ;
#59 = DIRECTION ( 'NONE',  ( 0.5000000000000039968, -0.8660254037844363761, 0.000000000000000000 ) ) ;
#60 = ORIENTED_EDGE ( 'NONE', *, *, #484, .F. ) ;
#61 = CARTESIAN_POINT ( 'NONE',  ( -18.69999999999991402, -38.10511776651534888, 0.000000000000000000 ) ) ;
#62 = ADVANCED_FACE ( 'NONE', ( #749 ), #401, .F. ) ;
#63 = FACE_OUTER_BOUND ( 'NONE', #592, .T. ) ;
#64 = FACE_OUTER_BOUND ( 'NONE', #681, .T. ) ;
#65 = DIRECTION ( 'NONE',  ( 1.000000000000000000, 0.000000000000000000, 0.000000000000000000 ) ) ;
#66 = ORIENTED_EDGE ( 'NONE', *, *, #291, .F. ) ;
#67 = CIRCLE ( 'NONE', #429, 3.299999999999998934 ) ;
#68 = DIRECTION ( 'NONE',  ( -0.5000000000000105471, 0.8660254037844324904, 0.000000000000000000 ) ) ;
#69 = EDGE_CURVE ( 'NONE', #676, #545, #654, .T. ) ;
#70 = AXIS2_PLACEMENT_3D ( 'NONE', #14, #81, #320 ) ;
#71 =( LENGTH_UNIT ( ) NAMED_UNIT ( * ) SI_UNIT ( .MILLI., .METRE. ) );
#72 = CARTESIAN_POINT ( 'NONE',  ( 25.30000000000017479, -38.10511776651520677, 6.000000000000000000 ) ) ;
#73 = ORIENTED_EDGE ( 'NONE', *, *, #520, .F. ) ;
#74 = CARTESIAN_POINT ( 'NONE',  ( -22.00000000000044409, 38.10511776651503624, 6.000000000000000000 ) ) ;
#75 = EDGE_CURVE ( 'NONE', #211, #545, #207, .T. ) ;
#76 = DIRECTION ( 'NONE',  ( -0.000000000000000000, -0.000000000000000000, -1.000000000000000000 ) ) ;
#77 = DIRECTION ( 'NONE',  ( 0.000000000000000000, -0.000000000000000000, -1.000000000000000000 ) ) ;
#78 = EDGE_LOOP ( 'NONE', ( #741, #57 ) ) ;
#79 = FACE_BOUND ( 'NONE', #505, .T. ) ;
#80 = DIRECTION ( 'NONE',  ( -1.000000000000000000, 0.000000000000000000, 0.000000000000000000 ) ) ;
#81 = DIRECTION ( 'NONE',  ( 0.000000000000000000, 0.000000000000000000, 1.000000000000000000 ) ) ;
#82 = ADVANCED_FACE ( 'NONE', ( #359 ), #318, .F. ) ;
#83 = ORIENTED_EDGE ( 'NONE', *, *, #379, .T. ) ;
#84 = DIRECTION ( 'NONE',  ( 0.000000000000000000, 0.000000000000000000, -1.000000000000000000 ) ) ;
#85 = AXIS2_PLACEMENT_3D ( 'NONE', #169, #759, #415 ) ;
#86 = CIRCLE ( 'NONE', #507, 39.00000000000000000 ) ;
#87 = CARTESIAN_POINT ( 'NONE',  ( 44.00000000000000000, 0.000000000000000000, 6.000000000000000000 ) ) ;
#88 = ORIENTED_EDGE ( 'NONE', *, *, #416, .F. ) ;
#89 = ADVANCED_FACE ( 'NONE', ( #489 ), #473, .F. ) ;
#90 = DIRECTION ( 'NONE',  ( -0.000000000000000000, -0.000000000000000000, -1.000000000000000000 ) ) ;
#91 = DIRECTION ( 'NONE',  ( 1.000000000000000000, 0.000000000000000000, 0.000000000000000000 ) ) ;
#92 = ORIENTED_EDGE ( 'NONE', *, *, #500, .T. ) ;
#93 = DIRECTION ( 'NONE',  ( -0.4999999999999983347, -0.8660254037844397068, 0.000000000000000000 ) ) ;
#94 = VERTEX_POINT ( 'NONE', #369 ) ;
#95 = ADVANCED_FACE ( 'NONE', ( #64 ), #659, .F. ) ;
#96 = AXIS2_PLACEMENT_3D ( 'NONE', #636, #111, #496 ) ;
#97 = CLOSED_SHELL ( 'NONE', ( #701, #13, #62, #271, #454, #130, #234, #747, #397, #89, #342, #303, #630, #175, #164, #204, #278, #299, #214, #201, #535, #95, #135, #82, #572, #735, #172 ) ) ;
#98 = DIRECTION ( 'NONE',  ( 1.000000000000000000, 0.000000000000000000, 0.000000000000000000 ) ) ;
#99 = ORIENTED_EDGE ( 'NONE', *, *, #563, .F. ) ;
#100 = VECTOR ( 'NONE', #267, 1000.000000000000000 ) ;
#101 = EDGE_CURVE ( 'NONE', #213, #467, #279, .T. ) ;
#102 = EDGE_LOOP ( 'NONE', ( #92, #408 ) ) ;
#103 = VERTEX_POINT ( 'NONE', #417 ) ;
#104 = CARTESIAN_POINT ( 'NONE',  ( 0.000000000000000000, 0.000000000000000000, 15.00000000000000000 ) ) ;
#105 = CARTESIAN_POINT ( 'NONE',  ( -21.99999999999991118, -38.10511776651534888, 6.000000000000000000 ) ) ;
#106 = CIRCLE ( 'NONE', #633, 3.299999999999994493 ) ;
#107 = DIRECTION ( 'NONE',  ( -0.000000000000000000, -0.000000000000000000, -1.000000000000000000 ) ) ;
#108 = VECTOR ( 'NONE', #425, 1000.000000000000000 ) ;
#109 = CARTESIAN_POINT ( 'NONE',  ( 21.99999999999964473, 38.10511776651549809, 0.000000000000000000 ) ) ;
#110 = DIRECTION ( 'NONE',  ( 1.000000000000000000, 0.000000000000000000, 0.000000000000000000 ) ) ;
#111 = DIRECTION ( 'NONE',  ( -0.000000000000000000, -0.000000000000000000, -1.000000000000000000 ) ) ;
#112 = CYLINDRICAL_SURFACE ( 'NONE', #367, 34.49999999999999289 ) ;
#113 = DIRECTION ( 'NONE',  ( 0.000000000000000000, -0.000000000000000000, -1.000000000000000000 ) ) ;
#114 = DIRECTION ( 'NONE',  ( 0.000000000000000000, 0.000000000000000000, 1.000000000000000000 ) ) ;
#115 = ORIENTED_EDGE ( 'NONE', *, *, #314, .T. ) ;
#116 = CARTESIAN_POINT ( 'NONE',  ( 34.49999999999999289, 4.225031457058367344E-15, 0.000000000000000000 ) ) ;
#117 = DIRECTION ( 'NONE',  ( 0.000000000000000000, -0.000000000000000000, -1.000000000000000000 ) ) ;
#118 = APPLICATION_PROTOCOL_DEFINITION ( 'draft international standard', 'automotive_design', 1998, #266 ) ;
#119 = EDGE_LOOP ( 'NONE', ( #233, #688 ) ) ;
#120 = CARTESIAN_POINT ( 'NONE',  ( 22.00000000000017764, -38.10511776651520677, 0.000000000000000000 ) ) ;
#121 = VECTOR ( 'NONE', #140, 1000.000000000000000 ) ;
#122 = AXIS2_PLACEMENT_3D ( 'NONE', #531, #584, #49 ) ;
#123 = AXIS2_PLACEMENT_3D ( 'NONE', #310, #435, #504 ) ;
#124 = FACE_OUTER_BOUND ( 'NONE', #119, .T. ) ;
#125 = CARTESIAN_POINT ( 'NONE',  ( 49.00000000000000000, 6.000769315822030937E-15, 0.000000000000000000 ) ) ;
#126 = DIRECTION ( 'NONE',  ( 0.000000000000000000, 0.000000000000000000, 1.000000000000000000 ) ) ;
#127 = EDGE_LOOP ( 'NONE', ( #710, #274 ) ) ;
#128 = CARTESIAN_POINT ( 'NONE',  ( 22.00000000000017764, -38.10511776651520677, 6.000000000000000000 ) ) ;
#129 = DIRECTION ( 'NONE',  ( 1.000000000000000000, 0.000000000000000000, 0.000000000000000000 ) ) ;
#130 = ADVANCED_FACE ( 'NONE', ( #190 ), #23, .F. ) ;
#131 = PLANE ( 'NONE',  #601 ) ;
#132 = DIRECTION ( 'NONE',  ( 0.000000000000000000, 0.000000000000000000, -1.000000000000000000 ) ) ;
#133 = CARTESIAN_POINT ( 'NONE',  ( 18.70000000000018048, -38.10511776651520677, 0.000000000000000000 ) ) ;
#134 = EDGE_LOOP ( 'NONE', ( #758, #492 ) ) ;
#135 = ADVANCED_FACE ( 'NONE', ( #374 ), #542, .T. ) ;
#136 = AXIS2_PLACEMENT_3D ( 'NONE', #182, #76, #666 ) ;
#137 = DIRECTION ( 'NONE',  ( -1.000000000000000000, 0.000000000000000000, 0.000000000000000000 ) ) ;
#138 = VECTOR ( 'NONE', #107, 1000.000000000000000 ) ;
#139 = AXIS2_PLACEMENT_3D ( 'NONE', #524, #275, #449 ) ;
#140 = DIRECTION ( 'NONE',  ( -0.000000000000000000, -0.000000000000000000, -1.000000000000000000 ) ) ;
#141 = CARTESIAN_POINT ( 'NONE',  ( -39.00000000000000000, 4.776122516674677878E-15, 15.00000000000000000 ) ) ;
#142 = EDGE_LOOP ( 'NONE', ( #344, #621, #366, #569 ) ) ;
#143 = DIRECTION ( 'NONE',  ( -0.5000000000000105471, 0.8660254037844324904, 0.000000000000000000 ) ) ;
#144 = CARTESIAN_POINT ( 'NONE',  ( 0.000000000000000000, 0.000000000000000000, 4.999999999999999112 ) ) ;
#145 = CARTESIAN_POINT ( 'NONE',  ( -25.29999999999990834, -38.10511776651534888, 6.000000000000000000 ) ) ;
#146 = EDGE_LOOP ( 'NONE', ( #754, #281 ) ) ;
#147 = PLANE ( 'NONE',  #227 ) ;
#148 = EDGE_CURVE ( 'NONE', #467, #444, #596, .T. ) ;
#149 = MANIFOLD_SOLID_BREP ( 'Wytnij-wyci\X2\0105\X0\gni\X2\0119\X0\cie2', #97 ) ;
#150 = LINE ( 'NONE', #565, #560 ) ;
#151 = ORIENTED_EDGE ( 'NONE', *, *, #403, .F. ) ;
#152 = DIRECTION ( 'NONE',  ( 0.000000000000000000, 0.000000000000000000, -1.000000000000000000 ) ) ;
#153 = AXIS2_PLACEMENT_3D ( 'NONE', #226, #406, #232 ) ;
#154 = EDGE_LOOP ( 'NONE', ( #502, #440, #554, #598 ) ) ;
#155 = DIRECTION ( 'NONE',  ( 0.000000000000000000, 0.000000000000000000, -1.000000000000000000 ) ) ;
#156 = EDGE_LOOP ( 'NONE', ( #268, #199, #37, #288 ) ) ;
#157 = DIRECTION ( 'NONE',  ( -0.000000000000000000, -0.000000000000000000, -1.000000000000000000 ) ) ;
#158 = VERTEX_POINT ( 'NONE', #470 ) ;
#159 = EDGE_CURVE ( 'NONE', #38, #337, #241, .T. ) ;
#160 = MECHANICAL_DESIGN_GEOMETRIC_PRESENTATION_REPRESENTATION (  '', ( #736 ), #506 ) ;
#161 = CIRCLE ( 'NONE', #340, 3.299999999999998934 ) ;
#162 = ORIENTED_EDGE ( 'NONE', *, *, #651, .T. ) ;
#163 = ORIENTED_EDGE ( 'NONE', *, *, #706, .T. ) ;
#164 = ADVANCED_FACE ( 'NONE', ( #63 ), #700, .T. ) ;
#165 = ORIENTED_EDGE ( 'NONE', *, *, #379, .F. ) ;
#166 = ORIENTED_EDGE ( 'NONE', *, *, #265, .T. ) ;
#167 = CIRCLE ( 'NONE', #600, 3.299999999999998934 ) ;
#168 = CARTESIAN_POINT ( 'NONE',  ( -49.00000000000000000, 0.000000000000000000, 15.00000000000000000 ) ) ;
#169 = CARTESIAN_POINT ( 'NONE',  ( -44.00000000000000000, 0.000000000000000000, 6.000000000000000000 ) ) ;
#170 = VERTEX_POINT ( 'NONE', #595 ) ;
#171 = CYLINDRICAL_SURFACE ( 'NONE', #153, 3.299999999999997158 ) ;
#172 = ADVANCED_FACE ( 'NONE', ( #696, #124 ), #243, .T. ) ;
#173 = ORIENTED_EDGE ( 'NONE', *, *, #513, .F. ) ;
#174 = ORIENTED_EDGE ( 'NONE', *, *, #39, .F. ) ;
#175 = ADVANCED_FACE ( 'NONE', ( #526 ), #478, .F. ) ;
#176 = CARTESIAN_POINT ( 'NONE',  ( -18.70000000000044693, 38.10511776651503624, 0.000000000000000000 ) ) ;
#177 = EDGE_LOOP ( 'NONE', ( #465, #448, #751, #514 ) ) ;
#178 = ORIENTED_EDGE ( 'NONE', *, *, #287, .F. ) ;
#179 = COLOUR_RGB ( '',0.7921568627450980005, 0.8196078431372548767, 0.9333333333333333481 ) ;
#180 = AXIS2_PLACEMENT_3D ( 'NONE', #368, #256, #31 ) ;
#181 = CARTESIAN_POINT ( 'NONE',  ( 0.000000000000000000, 0.000000000000000000, 4.999999999999999112 ) ) ;
#182 = CARTESIAN_POINT ( 'NONE',  ( 21.99999999999964473, 38.10511776651549809, 6.000000000000000000 ) ) ;
#183 = CARTESIAN_POINT ( 'NONE',  ( 40.70000000000000284, 0.000000000000000000, 0.000000000000000000 ) ) ;
#184 = CARTESIAN_POINT ( 'NONE',  ( -21.99999999999991118, -38.10511776651534888, 6.000000000000000000 ) ) ;
#185 = CARTESIAN_POINT ( 'NONE',  ( 21.99999999999964473, 38.10511776651549809, 6.000000000000000000 ) ) ;
#186 = EDGE_CURVE ( 'NONE', #327, #738, #658, .T. ) ;
#187 = DIRECTION ( 'NONE',  ( 1.000000000000000000, 0.000000000000000000, 0.000000000000000000 ) ) ;
#188 = ORIENTED_EDGE ( 'NONE', *, *, #547, .F. ) ;
#189 = FACE_BOUND ( 'NONE', #469, .T. ) ;
#190 = FACE_OUTER_BOUND ( 'NONE', #714, .T. ) ;
#191 = DIRECTION ( 'NONE',  ( 0.000000000000000000, 0.000000000000000000, 1.000000000000000000 ) ) ;
#192 = VERTEX_POINT ( 'NONE', #539 ) ;
#193 = VECTOR ( 'NONE', #51, 1000.000000000000000 ) ;
#194 = VECTOR ( 'NONE', #345, 1000.000000000000000 ) ;
#195 = CARTESIAN_POINT ( 'NONE',  ( -22.00000000000044409, 38.10511776651503624, 6.000000000000000000 ) ) ;
#196 = AXIS2_PLACEMENT_3D ( 'NONE', #308, #377, #362 ) ;
#197 = AXIS2_PLACEMENT_3D ( 'NONE', #509, #439, #98 ) ;
#198 = CARTESIAN_POINT ( 'NONE',  ( 0.000000000000000000, 0.000000000000000000, 15.00000000000000000 ) ) ;
#199 = ORIENTED_EDGE ( 'NONE', *, *, #726, .T. ) ;
#200 = CARTESIAN_POINT ( 'NONE',  ( 47.29999999999999716, 4.041334437186262058E-16, 6.000000000000000000 ) ) ;
#201 = ADVANCED_FACE ( 'NONE', ( #2 ), #290, .F. ) ;
#202 = ORIENTED_EDGE ( 'NONE', *, *, #403, .T. ) ;
#203 = DIRECTION ( 'NONE',  ( 0.000000000000000000, 0.000000000000000000, 1.000000000000000000 ) ) ;
#204 = ADVANCED_FACE ( 'NONE', ( #757 ), #704, .F. ) ;
#205 = FACE_OUTER_BOUND ( 'NONE', #409, .T. ) ;
#206 = ORIENTED_EDGE ( 'NONE', *, *, #540, .T. ) ;
#207 = CIRCLE ( 'NONE', #515, 3.299999999999997158 ) ;
#208 = AXIS2_PLACEMENT_3D ( 'NONE', #729, #365, #246 ) ;
#209 = CARTESIAN_POINT ( 'NONE',  ( -39.00000000000000000, 4.776122516674677878E-15, 4.999999999999999112 ) ) ;
#210 = EDGE_CURVE ( 'NONE', #562, #3, #523, .T. ) ;
#211 = VERTEX_POINT ( 'NONE', #47 ) ;
#212 = CARTESIAN_POINT ( 'NONE',  ( 0.000000000000000000, 0.000000000000000000, 15.00000000000000000 ) ) ;
#213 = VERTEX_POINT ( 'NONE', #286 ) ;
#214 = ADVANCED_FACE ( 'NONE', ( #752 ), #641, .T. ) ;
#215 = ORIENTED_EDGE ( 'NONE', *, *, #328, .F. ) ;
#216 = EDGE_CURVE ( 'NONE', #498, #3, #106, .T. ) ;
#217 = AXIS2_PLACEMENT_3D ( 'NONE', #105, #341, #580 ) ;
#218 = AXIS2_PLACEMENT_3D ( 'NONE', #602, #126, #709 ) ;
#219 = ORIENTED_EDGE ( 'NONE', *, *, #346, .F. ) ;
#220 = VECTOR ( 'NONE', #332, 1000.000000000000000 ) ;
#221 = ORIENTED_EDGE ( 'NONE', *, *, #500, .F. ) ;
#222 = DIRECTION ( 'NONE',  ( -1.000000000000000000, 0.000000000000000000, 0.000000000000000000 ) ) ;
#223 = DIRECTION ( 'NONE',  ( 0.000000000000000000, 0.000000000000000000, -1.000000000000000000 ) ) ;
#224 = DIRECTION ( 'NONE',  ( 0.000000000000000000, 0.000000000000000000, -1.000000000000000000 ) ) ;
#225 = ORIENTED_EDGE ( 'NONE', *, *, #373, .F. ) ;
#226 = CARTESIAN_POINT ( 'NONE',  ( 22.00000000000017764, -38.10511776651520677, 6.000000000000000000 ) ) ;
#227 = AXIS2_PLACEMENT_3D ( 'NONE', #564, #203, #555 ) ;
#228 = CIRCLE ( 'NONE', #139, 34.49999999999999289 ) ;
#229 = CARTESIAN_POINT ( 'NONE',  ( -21.99999999999991118, -38.10511776651534888, 0.000000000000000000 ) ) ;
#230 = DIRECTION ( 'NONE',  ( 1.000000000000000000, 0.000000000000000000, 0.000000000000000000 ) ) ;
#231 = EDGE_LOOP ( 'NONE', ( #615, #376 ) ) ;
#232 = DIRECTION ( 'NONE',  ( -1.000000000000000000, 0.000000000000000000, 0.000000000000000000 ) ) ;
#233 = ORIENTED_EDGE ( 'NONE', *, *, #438, .T. ) ;
#234 = ADVANCED_FACE ( 'NONE', ( #462 ), #638, .F. ) ;
#235 = DIRECTION ( 'NONE',  ( 0.5000000000000039968, -0.8660254037844363761, 0.000000000000000000 ) ) ;
#236 = DIRECTION ( 'NONE',  ( 0.000000000000000000, 0.000000000000000000, -1.000000000000000000 ) ) ;
#237 = CARTESIAN_POINT ( 'NONE',  ( 0.000000000000000000, 0.000000000000000000, 4.999999999999999112 ) ) ;
#238 = CARTESIAN_POINT ( 'NONE',  ( 44.00000000000000000, 0.000000000000000000, 6.000000000000000000 ) ) ;
#239 = DIRECTION ( 'NONE',  ( -0.000000000000000000, -0.000000000000000000, 1.000000000000000000 ) ) ;
#240 = CARTESIAN_POINT ( 'NONE',  ( -34.49999999999999289, 0.000000000000000000, 15.00000000000000000 ) ) ;
#241 = CIRCLE ( 'NONE', #490, 49.00000000000000000 ) ;
#242 = AXIS2_PLACEMENT_3D ( 'NONE', #553, #497, #187 ) ;
#243 = PLANE ( 'NONE',  #322 ) ;
#244 = EDGE_CURVE ( 'NONE', #371, #103, #67, .T. ) ;
#245 = DIRECTION ( 'NONE',  ( 1.000000000000000000, 0.000000000000000000, 0.000000000000000000 ) ) ;
#246 = DIRECTION ( 'NONE',  ( 1.000000000000000000, 0.000000000000000000, 0.000000000000000000 ) ) ;
#247 = ORIENTED_EDGE ( 'NONE', *, *, #622, .F. ) ;
#248 = LINE ( 'NONE', #482, #108 ) ;
#249 = CARTESIAN_POINT ( 'NONE',  ( -22.00000000000044409, 38.10511776651503624, 0.000000000000000000 ) ) ;
#250 = ORIENTED_EDGE ( 'NONE', *, *, #101, .F. ) ;
#251 = DIRECTION ( 'NONE',  ( -1.000000000000000000, 0.000000000000000000, 0.000000000000000000 ) ) ;
#252 = DIRECTION ( 'NONE',  ( -0.000000000000000000, 0.000000000000000000, -1.000000000000000000 ) ) ;
#253 = ORIENTED_EDGE ( 'NONE', *, *, #265, .F. ) ;
#254 = AXIS2_PLACEMENT_3D ( 'NONE', #720, #90, #137 ) ;
#255 = AXIS2_PLACEMENT_3D ( 'NONE', #259, #4, #315 ) ;
#256 = DIRECTION ( 'NONE',  ( 0.000000000000000000, 0.000000000000000000, 1.000000000000000000 ) ) ;
#257 = AXIS2_PLACEMENT_3D ( 'NONE', #87, #620, #91 ) ;
#258 = SURFACE_SIDE_STYLE ('',( #364 ) ) ;
#259 = CARTESIAN_POINT ( 'NONE',  ( 22.00000000000017764, -38.10511776651520677, 0.000000000000000000 ) ) ;
#260 = VERTEX_POINT ( 'NONE', #176 ) ;
#261 = CARTESIAN_POINT ( 'NONE',  ( 22.00000000000017764, -38.10511776651520677, 6.000000000000000000 ) ) ;
#262 = DIRECTION ( 'NONE',  ( -0.000000000000000000, -0.000000000000000000, 1.000000000000000000 ) ) ;
#263 = ORIENTED_EDGE ( 'NONE', *, *, #186, .F. ) ;
#264 = CARTESIAN_POINT ( 'NONE',  ( 18.69999999999964757, 38.10511776651549809, 0.000000000000000000 ) ) ;
#265 = EDGE_CURVE ( 'NONE', #103, #371, #167, .T. ) ;
#266 = APPLICATION_CONTEXT ( 'automotive_design' ) ;
#267 = DIRECTION ( 'NONE',  ( -0.000000000000000000, -0.000000000000000000, -1.000000000000000000 ) ) ;
#268 = ORIENTED_EDGE ( 'NONE', *, *, #540, .F. ) ;
#269 = AXIS2_PLACEMENT_3D ( 'NONE', #184, #561, #727 ) ;
#270 = CIRCLE ( 'NONE', #474, 39.00000000000000000 ) ;
#271 = ADVANCED_FACE ( 'NONE', ( #372 ), #494, .F. ) ;
#272 =( GEOMETRIC_REPRESENTATION_CONTEXT ( 3 ) GLOBAL_UNCERTAINTY_ASSIGNED_CONTEXT ( ( #495 ) ) GLOBAL_UNIT_ASSIGNED_CONTEXT ( ( #618, #326, #674 ) ) REPRESENTATION_CONTEXT ( 'NONE', 'WORKASPACE' ) );
#273 = FACE_OUTER_BOUND ( 'NONE', #458, .T. ) ;
#274 = ORIENTED_EDGE ( 'NONE', *, *, #27, .T. ) ;
#275 = DIRECTION ( 'NONE',  ( 0.000000000000000000, 0.000000000000000000, 1.000000000000000000 ) ) ;
#276 = ORIENTED_EDGE ( 'NONE', *, *, #484, .T. ) ;
#277 = ORIENTED_EDGE ( 'NONE', *, *, #706, .F. ) ;
#278 = ADVANCED_FACE ( 'NONE', ( #665 ), #488, .T. ) ;
#279 = CIRCLE ( 'NONE', #673, 34.49999999999999289 ) ;
#280 = CIRCLE ( 'NONE', #660, 3.299999999999997158 ) ;
#281 = ORIENTED_EDGE ( 'NONE', *, *, #520, .T. ) ;
#282 = DIRECTION ( 'NONE',  ( -0.000000000000000000, 0.000000000000000000, -1.000000000000000000 ) ) ;
#283 = CARTESIAN_POINT ( 'NONE',  ( -25.29999999999990834, -38.10511776651534888, 0.000000000000000000 ) ) ;
#284 = CARTESIAN_POINT ( 'NONE',  ( 0.000000000000000000, 0.000000000000000000, 4.999999999999999112 ) ) ;
#285 = ORIENTED_EDGE ( 'NONE', *, *, #675, .F. ) ;
#286 = CARTESIAN_POINT ( 'NONE',  ( -34.49999999999999289, 0.000000000000000000, 4.999999999999999112 ) ) ;
#287 = EDGE_CURVE ( 'NONE', #26, #671, #683, .T. ) ;
#288 = ORIENTED_EDGE ( 'NONE', *, *, #651, .F. ) ;
#289 = FACE_OUTER_BOUND ( 'NONE', #292, .T. ) ;
#290 = CYLINDRICAL_SURFACE ( 'NONE', #745, 3.299999999999997158 ) ;
#291 = EDGE_CURVE ( 'NONE', #396, #512, #430, .T. ) ;
#292 = EDGE_LOOP ( 'NONE', ( #253, #385, #35, #165 ) ) ;
#293 = AXIS2_PLACEMENT_3D ( 'NONE', #544, #647, #717 ) ;
#294 = CARTESIAN_POINT ( 'NONE',  ( -25.30000000000044125, 38.10511776651503624, 6.000000000000000000 ) ) ;
#295 = CIRCLE ( 'NONE', #257, 3.299999999999997158 ) ;
#296 = DIRECTION ( 'NONE',  ( 0.000000000000000000, 0.000000000000000000, -1.000000000000000000 ) ) ;
#297 = EDGE_LOOP ( 'NONE', ( #277, #333 ) ) ;
#298 = CARTESIAN_POINT ( 'NONE',  ( 44.00000000000000000, 0.000000000000000000, 0.000000000000000000 ) ) ;
#299 = ADVANCED_FACE ( 'NONE', ( #28 ), #608, .F. ) ;
#300 = DIRECTION ( 'NONE',  ( 0.000000000000000000, 0.000000000000000000, 1.000000000000000000 ) ) ;
#301 = LINE ( 'NONE', #537, #381 ) ;
#302 = CARTESIAN_POINT ( 'NONE',  ( 21.99999999999964473, 38.10511776651549809, 6.000000000000000000 ) ) ;
#303 = ADVANCED_FACE ( 'NONE', ( #503, #383, #312, #79, #329, #731, #324, #653 ), #147, .F. ) ;
#304 = DIRECTION ( 'NONE',  ( 0.000000000000000000, -0.000000000000000000, -1.000000000000000000 ) ) ;
#305 = CARTESIAN_POINT ( 'NONE',  ( 40.70000000000000284, 0.000000000000000000, 6.000000000000000000 ) ) ;
#306 = DIRECTION ( 'NONE',  ( 0.000000000000000000, 0.000000000000000000, -1.000000000000000000 ) ) ;
#307 = ORIENTED_EDGE ( 'NONE', *, *, #567, .T. ) ;
#308 = CARTESIAN_POINT ( 'NONE',  ( -22.00000000000044409, 38.10511776651503624, 0.000000000000000000 ) ) ;
#309 = CARTESIAN_POINT ( 'NONE',  ( 34.49999999999999289, 4.225031457058367344E-15, 15.00000000000000000 ) ) ;
#310 = CARTESIAN_POINT ( 'NONE',  ( 0.000000000000000000, 0.000000000000000000, 15.00000000000000000 ) ) ;
#311 = ORIENTED_EDGE ( 'NONE', *, *, #18, .T. ) ;
#312 = FACE_BOUND ( 'NONE', #477, .T. ) ;
#313 = DIRECTION ( 'NONE',  ( 0.000000000000000000, 0.000000000000000000, 1.000000000000000000 ) ) ;
#314 = EDGE_CURVE ( 'NONE', #260, #5, #334, .T. ) ;
#315 = DIRECTION ( 'NONE',  ( 0.5000000000000039968, -0.8660254037844363761, 0.000000000000000000 ) ) ;
#316 = VERTEX_POINT ( 'NONE', #21 ) ;
#317 = CARTESIAN_POINT ( 'NONE',  ( -44.00000000000000000, 0.000000000000000000, 0.000000000000000000 ) ) ;
#318 = CYLINDRICAL_SURFACE ( 'NONE', #613, 3.299999999999997158 ) ;
#319 = PRODUCT_DEFINITION ( 'UNKNOWN', '', #663, #617 ) ;
#320 = DIRECTION ( 'NONE',  ( 1.000000000000000000, 0.000000000000000000, 0.000000000000000000 ) ) ;
#321 = VERTEX_POINT ( 'NONE', #616 ) ;
#322 = AXIS2_PLACEMENT_3D ( 'NONE', #181, #532, #50 ) ;
#323 = VECTOR ( 'NONE', #370, 1000.000000000000000 ) ;
#324 = FACE_OUTER_BOUND ( 'NONE', #134, .T. ) ;
#325 = AXIS2_PLACEMENT_3D ( 'NONE', #212, #157, #388 ) ;
#326 =( NAMED_UNIT ( * ) PLANE_ANGLE_UNIT ( ) SI_UNIT ( $, .RADIAN. ) );
#327 = VERTEX_POINT ( 'NONE', #264 ) ;
#328 = EDGE_CURVE ( 'NONE', #423, #583, #756, .T. ) ;
#329 = FACE_BOUND ( 'NONE', #297, .T. ) ;
#330 = CARTESIAN_POINT ( 'NONE',  ( 40.70000000000000284, 0.000000000000000000, 6.000000000000000000 ) ) ;
#331 = EDGE_LOOP ( 'NONE', ( #619, #166 ) ) ;
#332 = DIRECTION ( 'NONE',  ( -0.000000000000000000, -0.000000000000000000, -1.000000000000000000 ) ) ;
#333 = ORIENTED_EDGE ( 'NONE', *, *, #216, .F. ) ;
#334 = CIRCLE ( 'NONE', #196, 3.299999999999997602 ) ;
#335 = CARTESIAN_POINT ( 'NONE',  ( 18.69999999999964757, 38.10511776651549809, 6.000000000000000000 ) ) ;
#336 = ORIENTED_EDGE ( 'NONE', *, *, #328, .T. ) ;
#337 = VERTEX_POINT ( 'NONE', #420 ) ;
#338 = ORIENTED_EDGE ( 'NONE', *, *, #416, .T. ) ;
#339 = EDGE_CURVE ( 'NONE', #436, #211, #612, .T. ) ;
#340 = AXIS2_PLACEMENT_3D ( 'NONE', #120, #282, #698 ) ;
#341 = DIRECTION ( 'NONE',  ( 0.000000000000000000, 0.000000000000000000, -1.000000000000000000 ) ) ;
#342 = ADVANCED_FACE ( 'NONE', ( #189, #657 ), #131, .T. ) ;
#343 = DIRECTION ( 'NONE',  ( 0.000000000000000000, -0.000000000000000000, -1.000000000000000000 ) ) ;
#344 = ORIENTED_EDGE ( 'NONE', *, *, #575, .F. ) ;
#345 = DIRECTION ( 'NONE',  ( -0.000000000000000000, -0.000000000000000000, -1.000000000000000000 ) ) ;
#346 = EDGE_CURVE ( 'NONE', #512, #396, #571, .T. ) ;
#347 = DIRECTION ( 'NONE',  ( -0.000000000000000000, -0.000000000000000000, -1.000000000000000000 ) ) ;
#348 = PRODUCT_CONTEXT ( 'NONE', #487, 'mechanical' ) ;
#349 = FACE_OUTER_BOUND ( 'NONE', #682, .T. ) ;
#350 = LINE ( 'NONE', #468, #528 ) ;
#351 = DIRECTION ( 'NONE',  ( -0.4999999999999983347, -0.8660254037844397068, 0.000000000000000000 ) ) ;
#352 = ORIENTED_EDGE ( 'NONE', *, *, #210, .F. ) ;
#353 = AXIS2_PLACEMENT_3D ( 'NONE', #302, #77, #655 ) ;
#354 = CARTESIAN_POINT ( 'NONE',  ( -44.00000000000000000, 0.000000000000000000, 6.000000000000000000 ) ) ;
#355 = CARTESIAN_POINT ( 'NONE',  ( -18.70000000000044693, 38.10511776651503624, 6.000000000000000000 ) ) ;
#356 = PRODUCT_RELATED_PRODUCT_CATEGORY ( 'part', '', ( #24 ) ) ;
#357 = DIRECTION ( 'NONE',  ( 0.000000000000000000, 0.000000000000000000, -1.000000000000000000 ) ) ;
#358 = DIRECTION ( 'NONE',  ( 0.5000000000000039968, -0.8660254037844363761, 0.000000000000000000 ) ) ;
#359 = FACE_OUTER_BOUND ( 'NONE', #412, .T. ) ;
#360 = LINE ( 'NONE', #72, #530 ) ;
#361 = ORIENTED_EDGE ( 'NONE', *, *, #373, .T. ) ;
#362 = DIRECTION ( 'NONE',  ( -0.5000000000000105471, 0.8660254037844324904, 0.000000000000000000 ) ) ;
#363 = SHAPE_DEFINITION_REPRESENTATION ( #661, #459 ) ;
#364 = SURFACE_STYLE_FILL_AREA ( #421 ) ;
#365 = DIRECTION ( 'NONE',  ( 0.000000000000000000, 0.000000000000000000, -1.000000000000000000 ) ) ;
#366 = ORIENTED_EDGE ( 'NONE', *, *, #75, .T. ) ;
#367 = AXIS2_PLACEMENT_3D ( 'NONE', #104, #45, #398 ) ;
#368 = CARTESIAN_POINT ( 'NONE',  ( 0.000000000000000000, 0.000000000000000000, 15.00000000000000000 ) ) ;
#369 = CARTESIAN_POINT ( 'NONE',  ( -49.00000000000000000, 0.000000000000000000, 15.00000000000000000 ) ) ;
#370 = DIRECTION ( 'NONE',  ( -0.000000000000000000, -0.000000000000000000, -1.000000000000000000 ) ) ;
#371 = VERTEX_POINT ( 'NONE', #672 ) ;
#372 = FACE_OUTER_BOUND ( 'NONE', #142, .T. ) ;
#373 = EDGE_CURVE ( 'NONE', #671, #26, #634, .T. ) ;
#374 = FACE_OUTER_BOUND ( 'NONE', #146, .T. ) ;
#375 = DIRECTION ( 'NONE',  ( -0.000000000000000000, -0.000000000000000000, -1.000000000000000000 ) ) ;
#376 = ORIENTED_EDGE ( 'NONE', *, *, #575, .T. ) ;
#377 = DIRECTION ( 'NONE',  ( 0.000000000000000000, 0.000000000000000000, -1.000000000000000000 ) ) ;
#378 = LINE ( 'NONE', #386, #220 ) ;
#379 = EDGE_CURVE ( 'NONE', #371, #566, #248, .T. ) ;
#380 = EDGE_LOOP ( 'NONE', ( #99, #590 ) ) ;
#381 = VECTOR ( 'NONE', #239, 1000.000000000000000 ) ;
#382 = AXIS2_PLACEMENT_3D ( 'NONE', #298, #522, #52 ) ;
#383 = FACE_BOUND ( 'NONE', #15, .T. ) ;
#384 = CARTESIAN_POINT ( 'NONE',  ( 0.000000000000000000, 0.000000000000000000, 0.000000000000000000 ) ) ;
#385 = ORIENTED_EDGE ( 'NONE', *, *, #622, .T. ) ;
#386 = CARTESIAN_POINT ( 'NONE',  ( -40.70000000000000284, 4.041334437186262058E-16, 6.000000000000000000 ) ) ;
#387 = ORIENTED_EDGE ( 'NONE', *, *, #431, .F. ) ;
#388 = DIRECTION ( 'NONE',  ( -1.000000000000000000, 0.000000000000000000, 0.000000000000000000 ) ) ;
#389 = VERTEX_POINT ( 'NONE', #604 ) ;
#390 = AXIS2_PLACEMENT_3D ( 'NONE', #483, #479, #80 ) ;
#391 = CIRCLE ( 'NONE', #446, 3.299999999999997602 ) ;
#392 = CARTESIAN_POINT ( 'NONE',  ( -34.49999999999999289, 0.000000000000000000, 0.000000000000000000 ) ) ;
#393 = ORIENTED_EDGE ( 'NONE', *, *, #589, .F. ) ;
#394 = EDGE_CURVE ( 'NONE', #94, #337, #16, .T. ) ;
#395 = ORIENTED_EDGE ( 'NONE', *, *, #244, .F. ) ;
#396 = VERTEX_POINT ( 'NONE', #58 ) ;
#397 = ADVANCED_FACE ( 'NONE', ( #694 ), #112, .F. ) ;
#398 = DIRECTION ( 'NONE',  ( -1.000000000000000000, 0.000000000000000000, 0.000000000000000000 ) ) ;
#399 = CARTESIAN_POINT ( 'NONE',  ( -21.99999999999991118, -38.10511776651534888, 6.000000000000000000 ) ) ;
#400 = AXIS2_PLACEMENT_3D ( 'NONE', #261, #437, #433 ) ;
#401 = CYLINDRICAL_SURFACE ( 'NONE', #96, 3.299999999999997158 ) ;
#402 = LINE ( 'NONE', #294, #138 ) ;
#403 = EDGE_CURVE ( 'NONE', #545, #211, #455, .T. ) ;
#404 = DIRECTION ( 'NONE',  ( 0.4999999999999917843, 0.8660254037844433705, 0.000000000000000000 ) ) ;
#405 = ORIENTED_EDGE ( 'NONE', *, *, #394, .F. ) ;
#406 = DIRECTION ( 'NONE',  ( -0.000000000000000000, 0.000000000000000000, -1.000000000000000000 ) ) ;
#407 = DIRECTION ( 'NONE',  ( 0.000000000000000000, -0.000000000000000000, -1.000000000000000000 ) ) ;
#408 = ORIENTED_EDGE ( 'NONE', *, *, #589, .T. ) ;
#409 = EDGE_LOOP ( 'NONE', ( #387, #460, #307, #174 ) ) ;
#410 = CARTESIAN_POINT ( 'NONE',  ( 22.00000000000017764, -38.10511776651520677, 6.000000000000000000 ) ) ;
#411 = AXIS2_PLACEMENT_3D ( 'NONE', #128, #117, #358 ) ;
#412 = EDGE_LOOP ( 'NONE', ( #603, #219, #338, #419 ) ) ;
#413 = CIRCLE ( 'NONE', #579, 3.299999999999996270 ) ;
#414 = DIRECTION ( 'NONE',  ( 1.000000000000000000, -0.000000000000000000, 0.000000000000000000 ) ) ;
#415 = DIRECTION ( 'NONE',  ( -1.000000000000000000, 0.000000000000000000, 0.000000000000000000 ) ) ;
#416 = EDGE_CURVE ( 'NONE', #512, #5, #402, .T. ) ;
#417 = CARTESIAN_POINT ( 'NONE',  ( 25.30000000000017479, -38.10511776651520677, 6.000000000000000000 ) ) ;
#418 = DIRECTION ( 'NONE',  ( -0.5000000000000105471, 0.8660254037844324904, 0.000000000000000000 ) ) ;
#419 = ORIENTED_EDGE ( 'NONE', *, *, #563, .T. ) ;
#420 = CARTESIAN_POINT ( 'NONE',  ( -49.00000000000000000, 0.000000000000000000, 0.000000000000000000 ) ) ;
#421 = FILL_AREA_STYLE ('',( #552 ) ) ;
#422 = DIRECTION ( 'NONE',  ( 0.000000000000000000, -0.000000000000000000, -1.000000000000000000 ) ) ;
#423 = VERTEX_POINT ( 'NONE', #581 ) ;
#424 = EDGE_CURVE ( 'NONE', #566, #10, #161, .T. ) ;
#425 = DIRECTION ( 'NONE',  ( -0.000000000000000000, 0.000000000000000000, -1.000000000000000000 ) ) ;
#426 = DIRECTION ( 'NONE',  ( 0.000000000000000000, 0.000000000000000000, -1.000000000000000000 ) ) ;
#427 = CARTESIAN_POINT ( 'NONE',  ( 0.000000000000000000, 0.000000000000000000, 0.000000000000000000 ) ) ;
#428 = EDGE_LOOP ( 'NONE', ( #393, #730, #685, #405 ) ) ;
#429 = AXIS2_PLACEMENT_3D ( 'NONE', #587, #56, #235 ) ;
#430 = CIRCLE ( 'NONE', #739, 3.299999999999997602 ) ;
#431 = EDGE_CURVE ( 'NONE', #321, #192, #86, .T. ) ;
#432 = VECTOR ( 'NONE', #678, 1000.000000000000000 ) ;
#433 = DIRECTION ( 'NONE',  ( -1.000000000000000000, 0.000000000000000000, 0.000000000000000000 ) ) ;
#434 = CARTESIAN_POINT ( 'NONE',  ( 0.000000000000000000, 0.000000000000000000, 15.00000000000000000 ) ) ;
#435 = DIRECTION ( 'NONE',  ( -0.000000000000000000, -0.000000000000000000, -1.000000000000000000 ) ) ;
#436 = VERTEX_POINT ( 'NONE', #461 ) ;
#437 = DIRECTION ( 'NONE',  ( -0.000000000000000000, 0.000000000000000000, -1.000000000000000000 ) ) ;
#438 = EDGE_CURVE ( 'NONE', #192, #321, #270, .T. ) ;
#439 = DIRECTION ( 'NONE',  ( -0.000000000000000000, -0.000000000000000000, 1.000000000000000000 ) ) ;
#440 = ORIENTED_EDGE ( 'NONE', *, *, #148, .T. ) ;
#441 = DIRECTION ( 'NONE',  ( 0.000000000000000000, 0.000000000000000000, -1.000000000000000000 ) ) ;
#442 = EDGE_CURVE ( 'NONE', #389, #316, #280, .T. ) ;
#443 = CARTESIAN_POINT ( 'NONE',  ( -21.99999999999991118, -38.10511776651534888, 0.000000000000000000 ) ) ;
#444 = VERTEX_POINT ( 'NONE', #116 ) ;
#445 = AXIS2_PLACEMENT_3D ( 'NONE', #536, #296, #466 ) ;
#446 = AXIS2_PLACEMENT_3D ( 'NONE', #249, #357, #418 ) ;
#447 = DIRECTION ( 'NONE',  ( -0.000000000000000000, -0.000000000000000000, -1.000000000000000000 ) ) ;
#448 = ORIENTED_EDGE ( 'NONE', *, *, #719, .T. ) ;
#449 = DIRECTION ( 'NONE',  ( 1.000000000000000000, 0.000000000000000000, 0.000000000000000000 ) ) ;
#450 = EDGE_LOOP ( 'NONE', ( #631, #30, #162, #361 ) ) ;
#451 = EDGE_CURVE ( 'NONE', #444, #668, #705, .T. ) ;
#452 = LINE ( 'NONE', #733, #707 ) ;
#453 = ORIENTED_EDGE ( 'NONE', *, *, #695, .F. ) ;
#454 = ADVANCED_FACE ( 'NONE', ( #289 ), #171, .F. ) ;
#455 = CIRCLE ( 'NONE', #382, 3.299999999999997158 ) ;
#456 = CIRCLE ( 'NONE', #508, 3.299999999999994493 ) ;
#457 = ORIENTED_EDGE ( 'NONE', *, *, #210, .T. ) ;
#458 = EDGE_LOOP ( 'NONE', ( #453, #573, #533, #336 ) ) ;
#459 = ADVANCED_BREP_SHAPE_REPRESENTATION ( 'top-case', ( #149, #692 ), #272 ) ;
#460 = ORIENTED_EDGE ( 'NONE', *, *, #695, .T. ) ;
#461 = CARTESIAN_POINT ( 'NONE',  ( 47.29999999999999716, 4.041334437186262058E-16, 6.000000000000000000 ) ) ;
#462 = FACE_OUTER_BOUND ( 'NONE', #156, .T. ) ;
#463 = AXIS2_PLACEMENT_3D ( 'NONE', #687, #236, #471 ) ;
#464 = CIRCLE ( 'NONE', #242, 49.00000000000000000 ) ;
#465 = ORIENTED_EDGE ( 'NONE', *, *, #148, .F. ) ;
#466 = DIRECTION ( 'NONE',  ( -1.000000000000000000, 0.000000000000000000, -0.000000000000000000 ) ) ;
#467 = VERTEX_POINT ( 'NONE', #640 ) ;
#468 = CARTESIAN_POINT ( 'NONE',  ( 25.29999999999964189, 38.10511776651549809, 6.000000000000000000 ) ) ;
#469 = EDGE_LOOP ( 'NONE', ( #215, #725 ) ) ;
#470 = CARTESIAN_POINT ( 'NONE',  ( 18.69999999999964757, 38.10511776651549809, 6.000000000000000000 ) ) ;
#471 = DIRECTION ( 'NONE',  ( -0.4999999999999983347, -0.8660254037844397068, 0.000000000000000000 ) ) ;
#472 = AXIS2_PLACEMENT_3D ( 'NONE', #109, #304, #404 ) ;
#473 = CYLINDRICAL_SURFACE ( 'NONE', #41, 34.49999999999999289 ) ;
#474 = AXIS2_PLACEMENT_3D ( 'NONE', #237, #637, #703 ) ;
#475 = CARTESIAN_POINT ( 'NONE',  ( -25.30000000000044125, 38.10511776651503624, 6.000000000000000000 ) ) ;
#476 = AXIS2_PLACEMENT_3D ( 'NONE', #511, #262, #110 ) ;
#477 = EDGE_LOOP ( 'NONE', ( #151, #550 ) ) ;
#478 = CYLINDRICAL_SURFACE ( 'NONE', #85, 3.299999999999997158 ) ;
#479 = DIRECTION ( 'NONE',  ( 0.000000000000000000, -0.000000000000000000, -1.000000000000000000 ) ) ;
#480 = LINE ( 'NONE', #240, #323 ) ;
#481 = ORIENTED_EDGE ( 'NONE', *, *, #69, .T. ) ;
#482 = CARTESIAN_POINT ( 'NONE',  ( 18.70000000000018048, -38.10511776651520677, 6.000000000000000000 ) ) ;
#483 = CARTESIAN_POINT ( 'NONE',  ( -21.99999999999991118, -38.10511776651534888, 6.000000000000000000 ) ) ;
#484 = EDGE_CURVE ( 'NONE', #46, #738, #350, .T. ) ;
#485 = DIRECTION ( 'NONE',  ( 0.4999999999999917843, 0.8660254037844433705, 0.000000000000000000 ) ) ;
#486 = ORIENTED_EDGE ( 'NONE', *, *, #216, .T. ) ;
#487 = APPLICATION_CONTEXT ( 'automotive_design' ) ;
#488 = PLANE ( 'NONE',  #269 ) ;
#489 = FACE_OUTER_BOUND ( 'NONE', #177, .T. ) ;
#490 = AXIS2_PLACEMENT_3D ( 'NONE', #728, #300, #644 ) ;
#491 = FACE_OUTER_BOUND ( 'NONE', #48, .T. ) ;
#492 = ORIENTED_EDGE ( 'NONE', *, *, #159, .F. ) ;
#493 = CIRCLE ( 'NONE', #208, 3.299999999999997158 ) ;
#494 = CYLINDRICAL_SURFACE ( 'NONE', #254, 3.299999999999997158 ) ;
#495 = UNCERTAINTY_MEASURE_WITH_UNIT (LENGTH_MEASURE( 1.000000000000000082E-05 ), #618, 'distance_accuracy_value', 'NONE');
#496 = DIRECTION ( 'NONE',  ( -1.000000000000000000, 0.000000000000000000, 0.000000000000000000 ) ) ;
#497 = DIRECTION ( 'NONE',  ( 0.000000000000000000, 0.000000000000000000, 1.000000000000000000 ) ) ;
#498 = VERTEX_POINT ( 'NONE', #61 ) ;
#499 = DIRECTION ( 'NONE',  ( 1.000000000000000000, 0.000000000000000000, -0.000000000000000000 ) ) ;
#500 = EDGE_CURVE ( 'NONE', #94, #170, #626, .T. ) ;
#501 = CYLINDRICAL_SURFACE ( 'NONE', #476, 39.00000000000000000 ) ;
#502 = ORIENTED_EDGE ( 'NONE', *, *, #101, .T. ) ;
#503 = FACE_BOUND ( 'NONE', #380, .T. ) ;
#504 = DIRECTION ( 'NONE',  ( -1.000000000000000000, 0.000000000000000000, 0.000000000000000000 ) ) ;
#505 = EDGE_LOOP ( 'NONE', ( #648, #743 ) ) ;
#506 =( GEOMETRIC_REPRESENTATION_CONTEXT ( 3 ) GLOBAL_UNCERTAINTY_ASSIGNED_CONTEXT ( ( #53 ) ) GLOBAL_UNIT_ASSIGNED_CONTEXT ( ( #71, #722, #635 ) ) REPRESENTATION_CONTEXT ( 'NONE', 'WORKASPACE' ) );
#507 = AXIS2_PLACEMENT_3D ( 'NONE', #284, #534, #750 ) ;
#508 = AXIS2_PLACEMENT_3D ( 'NONE', #443, #155, #93 ) ;
#509 = CARTESIAN_POINT ( 'NONE',  ( 0.000000000000000000, 0.000000000000000000, 4.999999999999999112 ) ) ;
#510 = EDGE_LOOP ( 'NONE', ( #679, #576, #457, #163 ) ) ;
#511 = CARTESIAN_POINT ( 'NONE',  ( 0.000000000000000000, 0.000000000000000000, 4.999999999999999112 ) ) ;
#512 = VERTEX_POINT ( 'NONE', #475 ) ;
#513 = EDGE_CURVE ( 'NONE', #738, #327, #691, .T. ) ;
#514 = ORIENTED_EDGE ( 'NONE', *, *, #451, .F. ) ;
#515 = AXIS2_PLACEMENT_3D ( 'NONE', #609, #132, #245 ) ;
#516 = EDGE_CURVE ( 'NONE', #337, #38, #464, .T. ) ;
#517 = AXIS2_PLACEMENT_3D ( 'NONE', #715, #152, #11 ) ;
#518 = ORIENTED_EDGE ( 'NONE', *, *, #442, .T. ) ;
#519 = CARTESIAN_POINT ( 'NONE',  ( -44.00000000000000000, 0.000000000000000000, 6.000000000000000000 ) ) ;
#520 = EDGE_CURVE ( 'NONE', #46, #158, #413, .T. ) ;
#521 = CARTESIAN_POINT ( 'NONE',  ( 25.29999999999964189, 38.10511776651549809, 6.000000000000000000 ) ) ;
#522 = DIRECTION ( 'NONE',  ( 0.000000000000000000, 0.000000000000000000, -1.000000000000000000 ) ) ;
#523 = LINE ( 'NONE', #582, #54 ) ;
#524 = CARTESIAN_POINT ( 'NONE',  ( 0.000000000000000000, 0.000000000000000000, 4.999999999999999112 ) ) ;
#525 = EDGE_LOOP ( 'NONE', ( #247, #395, #83, #664 ) ) ;
#526 = FACE_OUTER_BOUND ( 'NONE', #450, .T. ) ;
#527 = CIRCLE ( 'NONE', #217, 3.299999999999994493 ) ;
#528 = VECTOR ( 'NONE', #375, 1000.000000000000000 ) ;
#529 = ORIENTED_EDGE ( 'NONE', *, *, #339, .F. ) ;
#530 = VECTOR ( 'NONE', #252, 1000.000000000000000 ) ;
#531 = CARTESIAN_POINT ( 'NONE',  ( 0.000000000000000000, 0.000000000000000000, 0.000000000000000000 ) ) ;
#532 = DIRECTION ( 'NONE',  ( 0.000000000000000000, 0.000000000000000000, 1.000000000000000000 ) ) ;
#533 = ORIENTED_EDGE ( 'NONE', *, *, #39, .T. ) ;
#534 = DIRECTION ( 'NONE',  ( 0.000000000000000000, 0.000000000000000000, 1.000000000000000000 ) ) ;
#535 = ADVANCED_FACE ( 'NONE', ( #667 ), #557, .T. ) ;
#536 = CARTESIAN_POINT ( 'NONE',  ( -44.00000000000000000, 0.000000000000000000, 6.000000000000000000 ) ) ;
#537 = CARTESIAN_POINT ( 'NONE',  ( 39.00000000000000000, 0.000000000000000000, 4.999999999999999112 ) ) ;
#538 = FACE_OUTER_BOUND ( 'NONE', #718, .T. ) ;
#539 = CARTESIAN_POINT ( 'NONE',  ( 39.00000000000000000, 0.000000000000000000, 4.999999999999999112 ) ) ;
#540 = EDGE_CURVE ( 'NONE', #316, #389, #7, .T. ) ;
#541 = AXIS2_PLACEMENT_3D ( 'NONE', #399, #407, #649 ) ;
#542 = PLANE ( 'NONE',  #690 ) ;
#543 = AXIS2_PLACEMENT_3D ( 'NONE', #25, #306, #606 ) ;
#544 = CARTESIAN_POINT ( 'NONE',  ( -44.00000000000000000, 0.000000000000000000, 6.000000000000000000 ) ) ;
#545 = VERTEX_POINT ( 'NONE', #183 ) ;
#546 = DIRECTION ( 'NONE',  ( 0.000000000000000000, 0.000000000000000000, -1.000000000000000000 ) ) ;
#547 = EDGE_CURVE ( 'NONE', #158, #46, #721, .T. ) ;
#548 = DIRECTION ( 'NONE',  ( -1.000000000000000000, 0.000000000000000000, 0.000000000000000000 ) ) ;
#549 = DIRECTION ( 'NONE',  ( 0.000000000000000000, 0.000000000000000000, -1.000000000000000000 ) ) ;
#550 = ORIENTED_EDGE ( 'NONE', *, *, #75, .F. ) ;
#551 = DIRECTION ( 'NONE',  ( -0.000000000000000000, -0.000000000000000000, -1.000000000000000000 ) ) ;
#552 = FILL_AREA_STYLE_COLOUR ( '', #179 ) ;
#553 = CARTESIAN_POINT ( 'NONE',  ( 0.000000000000000000, 0.000000000000000000, 0.000000000000000000 ) ) ;
#554 = ORIENTED_EDGE ( 'NONE', *, *, #594, .F. ) ;
#555 = DIRECTION ( 'NONE',  ( 1.000000000000000000, 0.000000000000000000, -0.000000000000000000 ) ) ;
#556 = DIRECTION ( 'NONE',  ( -0.000000000000000000, -0.000000000000000000, -1.000000000000000000 ) ) ;
#557 = PLANE ( 'NONE',  #677 ) ;
#558 = ORIENTED_EDGE ( 'NONE', *, *, #732, .T. ) ;
#559 = AXIS2_PLACEMENT_3D ( 'NONE', #198, #191, #65 ) ;
#560 = VECTOR ( 'NONE', #447, 1000.000000000000000 ) ;
#561 = DIRECTION ( 'NONE',  ( -0.000000000000000000, 0.000000000000000000, -1.000000000000000000 ) ) ;
#562 = VERTEX_POINT ( 'NONE', #145 ) ;
#563 = EDGE_CURVE ( 'NONE', #5, #260, #391, .T. ) ;
#564 = CARTESIAN_POINT ( 'NONE',  ( 0.000000000000000000, 0.000000000000000000, 0.000000000000000000 ) ) ;
#565 = CARTESIAN_POINT ( 'NONE',  ( 49.00000000000000000, 6.000769315822030937E-15, 15.00000000000000000 ) ) ;
#566 = VERTEX_POINT ( 'NONE', #133 ) ;
#567 = EDGE_CURVE ( 'NONE', #583, #423, #55, .T. ) ;
#568 = LINE ( 'NONE', #335, #724 ) ;
#569 = ORIENTED_EDGE ( 'NONE', *, *, #69, .F. ) ;
#570 = PRESENTATION_LAYER_ASSIGNMENT (  '', '', ( #736 ) ) ;
#571 = CIRCLE ( 'NONE', #42, 3.299999999999997602 ) ;
#572 = ADVANCED_FACE ( 'NONE', ( #538 ), #652, .T. ) ;
#573 = ORIENTED_EDGE ( 'NONE', *, *, #438, .F. ) ;
#574 = EDGE_LOOP ( 'NONE', ( #73, #276, #699, #607 ) ) ;
#575 = EDGE_CURVE ( 'NONE', #436, #676, #493, .T. ) ;
#576 = ORIENTED_EDGE ( 'NONE', *, *, #43, .F. ) ;
#577 = EDGE_CURVE ( 'NONE', #10, #566, #588, .T. ) ;
#578 = CIRCLE ( 'NONE', #463, 3.299999999999994493 ) ;
#579 = AXIS2_PLACEMENT_3D ( 'NONE', #713, #610, #485 ) ;
#580 = DIRECTION ( 'NONE',  ( -0.4999999999999983347, -0.8660254037844397068, 0.000000000000000000 ) ) ;
#581 = CARTESIAN_POINT ( 'NONE',  ( 39.00000000000000000, 0.000000000000000000, 15.00000000000000000 ) ) ;
#582 = CARTESIAN_POINT ( 'NONE',  ( -25.29999999999990834, -38.10511776651534888, 6.000000000000000000 ) ) ;
#583 = VERTEX_POINT ( 'NONE', #141 ) ;
#584 = DIRECTION ( 'NONE',  ( 0.000000000000000000, 0.000000000000000000, 1.000000000000000000 ) ) ;
#585 = DIRECTION ( 'NONE',  ( -1.000000000000000000, 0.000000000000000000, 0.000000000000000000 ) ) ;
#586 = DIRECTION ( 'NONE',  ( -0.000000000000000000, -0.000000000000000000, -1.000000000000000000 ) ) ;
#587 = CARTESIAN_POINT ( 'NONE',  ( 22.00000000000017764, -38.10511776651520677, 6.000000000000000000 ) ) ;
#588 = CIRCLE ( 'NONE', #255, 3.299999999999998934 ) ;
#589 = EDGE_CURVE ( 'NONE', #170, #94, #684, .T. ) ;
#590 = ORIENTED_EDGE ( 'NONE', *, *, #314, .F. ) ;
#591 = DIRECTION ( 'NONE',  ( -0.000000000000000000, 0.000000000000000000, -1.000000000000000000 ) ) ;
#592 = EDGE_LOOP ( 'NONE', ( #518, #206 ) ) ;
#593 = DIRECTION ( 'NONE',  ( 0.000000000000000000, 0.000000000000000000, 1.000000000000000000 ) ) ;
#594 = EDGE_CURVE ( 'NONE', #668, #444, #22, .T. ) ;
#595 = CARTESIAN_POINT ( 'NONE',  ( 49.00000000000000000, 6.000769315822030937E-15, 15.00000000000000000 ) ) ;
#596 = LINE ( 'NONE', #309, #643 ) ;
#597 = CARTESIAN_POINT ( 'NONE',  ( -18.69999999999991402, -38.10511776651534888, 6.000000000000000000 ) ) ;
#598 = ORIENTED_EDGE ( 'NONE', *, *, #614, .F. ) ;
#599 = CARTESIAN_POINT ( 'NONE',  ( 0.000000000000000000, 0.000000000000000000, 15.00000000000000000 ) ) ;
#600 = AXIS2_PLACEMENT_3D ( 'NONE', #410, #591, #59 ) ;
#601 = AXIS2_PLACEMENT_3D ( 'NONE', #599, #669, #499 ) ;
#602 = CARTESIAN_POINT ( 'NONE',  ( 0.000000000000000000, 0.000000000000000000, 15.00000000000000000 ) ) ;
#603 = ORIENTED_EDGE ( 'NONE', *, *, #18, .F. ) ;
#604 = CARTESIAN_POINT ( 'NONE',  ( -47.29999999999999716, 0.000000000000000000, 6.000000000000000000 ) ) ;
#605 = DIRECTION ( 'NONE',  ( -0.000000000000000000, -0.000000000000000000, -1.000000000000000000 ) ) ;
#606 = DIRECTION ( 'NONE',  ( -0.5000000000000101030, 0.8660254037844328234, 0.000000000000000000 ) ) ;
#607 = ORIENTED_EDGE ( 'NONE', *, *, #732, .F. ) ;
#608 = CYLINDRICAL_SURFACE ( 'NONE', #400, 3.299999999999997158 ) ;
#609 = CARTESIAN_POINT ( 'NONE',  ( 44.00000000000000000, 0.000000000000000000, 0.000000000000000000 ) ) ;
#610 = DIRECTION ( 'NONE',  ( 0.000000000000000000, -0.000000000000000000, -1.000000000000000000 ) ) ;
#611 = ORIENTED_EDGE ( 'NONE', *, *, #346, .T. ) ;
#612 = LINE ( 'NONE', #200, #746 ) ;
#613 = AXIS2_PLACEMENT_3D ( 'NONE', #708, #556, #8 ) ;
#614 = EDGE_CURVE ( 'NONE', #213, #668, #480, .T. ) ;
#615 = ORIENTED_EDGE ( 'NONE', *, *, #675, .T. ) ;
#616 = CARTESIAN_POINT ( 'NONE',  ( -39.00000000000000000, 4.776122516674677878E-15, 4.999999999999999112 ) ) ;
#617 = PRODUCT_DEFINITION_CONTEXT ( 'detailed design', #266, 'design' ) ;
#618 =( LENGTH_UNIT ( ) NAMED_UNIT ( * ) SI_UNIT ( .MILLI., .METRE. ) );
#619 = ORIENTED_EDGE ( 'NONE', *, *, #244, .T. ) ;
#620 = DIRECTION ( 'NONE',  ( 0.000000000000000000, 0.000000000000000000, -1.000000000000000000 ) ) ;
#621 = ORIENTED_EDGE ( 'NONE', *, *, #339, .T. ) ;
#622 = EDGE_CURVE ( 'NONE', #103, #10, #360, .T. ) ;
#623 = CARTESIAN_POINT ( 'NONE',  ( -47.29999999999999716, 0.000000000000000000, 0.000000000000000000 ) ) ;
#624 = EDGE_LOOP ( 'NONE', ( #225, #178 ) ) ;
#625 = AXIS2_PLACEMENT_3D ( 'NONE', #646, #586, #222 ) ;
#626 = CIRCLE ( 'NONE', #70, 49.00000000000000000 ) ;
#627 = AXIS2_PLACEMENT_3D ( 'NONE', #662, #422, #9 ) ;
#628 = CYLINDRICAL_SURFACE ( 'NONE', #325, 49.00000000000000000 ) ;
#629 = VERTEX_POINT ( 'NONE', #597 ) ;
#630 = ADVANCED_FACE ( 'NONE', ( #491 ), #723, .T. ) ;
#631 = ORIENTED_EDGE ( 'NONE', *, *, #726, .F. ) ;
#632 = CARTESIAN_POINT ( 'NONE',  ( 25.30000000000017479, -38.10511776651520677, 0.000000000000000000 ) ) ;
#633 = AXIS2_PLACEMENT_3D ( 'NONE', #229, #224, #351 ) ;
#634 = CIRCLE ( 'NONE', #517, 3.299999999999997158 ) ;
#635 =( NAMED_UNIT ( * ) SI_UNIT ( $, .STERADIAN. ) SOLID_ANGLE_UNIT ( ) );
#636 = CARTESIAN_POINT ( 'NONE',  ( 21.99999999999964473, 38.10511776651549809, 6.000000000000000000 ) ) ;
#637 = DIRECTION ( 'NONE',  ( 0.000000000000000000, 0.000000000000000000, 1.000000000000000000 ) ) ;
#638 = CYLINDRICAL_SURFACE ( 'NONE', #755, 3.299999999999997158 ) ;
#639 = ORIENTED_EDGE ( 'NONE', *, *, #394, .T. ) ;
#640 = CARTESIAN_POINT ( 'NONE',  ( 34.49999999999999289, 4.225031457058367344E-15, 4.999999999999999112 ) ) ;
#641 = PLANE ( 'NONE',  #411 ) ;
#642 = LINE ( 'NONE', #355, #193 ) ;
#643 = VECTOR ( 'NONE', #716, 1000.000000000000000 ) ;
#644 = DIRECTION ( 'NONE',  ( 1.000000000000000000, 0.000000000000000000, 0.000000000000000000 ) ) ;
#645 = AXIS2_PLACEMENT_3D ( 'NONE', #427, #593, #129 ) ;
#646 = CARTESIAN_POINT ( 'NONE',  ( -22.00000000000044409, 38.10511776651503624, 6.000000000000000000 ) ) ;
#647 = DIRECTION ( 'NONE',  ( 0.000000000000000000, 0.000000000000000000, -1.000000000000000000 ) ) ;
#648 = ORIENTED_EDGE ( 'NONE', *, *, #424, .F. ) ;
#649 = DIRECTION ( 'NONE',  ( -1.000000000000000000, 0.000000000000000000, 0.000000000000000000 ) ) ;
#650 = PRESENTATION_STYLE_ASSIGNMENT (( #17 ) ) ;
#651 = EDGE_CURVE ( 'NONE', #389, #671, #680, .T. ) ;
#652 = PLANE ( 'NONE',  #543 ) ;
#653 = FACE_BOUND ( 'NONE', #78, .T. ) ;
#654 = LINE ( 'NONE', #305, #121 ) ;
#655 = DIRECTION ( 'NONE',  ( 0.4999999999999917843, 0.8660254037844433705, 0.000000000000000000 ) ) ;
#656 = EDGE_LOOP ( 'NONE', ( #529, #285, #481, #202 ) ) ;
#657 = FACE_OUTER_BOUND ( 'NONE', #102, .T. ) ;
#658 = CIRCLE ( 'NONE', #472, 3.299999999999996270 ) ;
#659 = CYLINDRICAL_SURFACE ( 'NONE', #136, 3.299999999999997158 ) ;
#660 = AXIS2_PLACEMENT_3D ( 'NONE', #519, #223, #689 ) ;
#661 = PRODUCT_DEFINITION_SHAPE ( 'NONE', 'NONE',  #319 ) ;
#662 = CARTESIAN_POINT ( 'NONE',  ( 21.99999999999964473, 38.10511776651549809, 0.000000000000000000 ) ) ;
#663 = PRODUCT_DEFINITION_FORMATION_WITH_SPECIFIED_SOURCE ( 'ANY', '', #24, .NOT_KNOWN. ) ;
#664 = ORIENTED_EDGE ( 'NONE', *, *, #424, .T. ) ;
#665 = FACE_OUTER_BOUND ( 'NONE', #127, .T. ) ;
#666 = DIRECTION ( 'NONE',  ( -1.000000000000000000, 0.000000000000000000, 0.000000000000000000 ) ) ;
#667 = FACE_OUTER_BOUND ( 'NONE', #231, .T. ) ;
#668 = VERTEX_POINT ( 'NONE', #392 ) ;
#669 = DIRECTION ( 'NONE',  ( 0.000000000000000000, 0.000000000000000000, 1.000000000000000000 ) ) ;
#670 = FACE_OUTER_BOUND ( 'NONE', #428, .T. ) ;
#671 = VERTEX_POINT ( 'NONE', #623 ) ;
#672 = CARTESIAN_POINT ( 'NONE',  ( 18.70000000000018048, -38.10511776651520677, 6.000000000000000000 ) ) ;
#673 = AXIS2_PLACEMENT_3D ( 'NONE', #144, #313, #12 ) ;
#674 =( NAMED_UNIT ( * ) SI_UNIT ( $, .STERADIAN. ) SOLID_ANGLE_UNIT ( ) );
#675 = EDGE_CURVE ( 'NONE', #676, #436, #295, .T. ) ;
#676 = VERTEX_POINT ( 'NONE', #330 ) ;
#677 = AXIS2_PLACEMENT_3D ( 'NONE', #19, #549, #414 ) ;
#678 = DIRECTION ( 'NONE',  ( -0.000000000000000000, -0.000000000000000000, 1.000000000000000000 ) ) ;
#679 = ORIENTED_EDGE ( 'NONE', *, *, #753, .F. ) ;
#680 = LINE ( 'NONE', #737, #100 ) ;
#681 = EDGE_LOOP ( 'NONE', ( #60, #188, #558, #33 ) ) ;
#682 = EDGE_LOOP ( 'NONE', ( #66, #311, #115, #88 ) ) ;
#683 = CIRCLE ( 'NONE', #36, 3.299999999999997158 ) ;
#684 = CIRCLE ( 'NONE', #218, 49.00000000000000000 ) ;
#685 = ORIENTED_EDGE ( 'NONE', *, *, #159, .T. ) ;
#686 = EDGE_CURVE ( 'NONE', #170, #38, #150, .T. ) ;
#687 = CARTESIAN_POINT ( 'NONE',  ( -21.99999999999991118, -38.10511776651534888, 6.000000000000000000 ) ) ;
#688 = ORIENTED_EDGE ( 'NONE', *, *, #431, .T. ) ;
#689 = DIRECTION ( 'NONE',  ( -1.000000000000000000, 0.000000000000000000, 0.000000000000000000 ) ) ;
#690 = AXIS2_PLACEMENT_3D ( 'NONE', #185, #426, #712 ) ;
#691 = CIRCLE ( 'NONE', #627, 3.299999999999996270 ) ;
#692 = AXIS2_PLACEMENT_3D ( 'NONE', #384, #114, #230 ) ;
#693 = ORIENTED_EDGE ( 'NONE', *, *, #27, .F. ) ;
#694 = FACE_OUTER_BOUND ( 'NONE', #154, .T. ) ;
#695 = EDGE_CURVE ( 'NONE', #321, #583, #32, .T. ) ;
#696 = FACE_BOUND ( 'NONE', #748, .T. ) ;
#697 = CYLINDRICAL_SURFACE ( 'NONE', #625, 3.299999999999997158 ) ;
#698 = DIRECTION ( 'NONE',  ( 0.5000000000000039968, -0.8660254037844363761, 0.000000000000000000 ) ) ;
#699 = ORIENTED_EDGE ( 'NONE', *, *, #513, .T. ) ;
#700 = PLANE ( 'NONE',  #445 ) ;
#701 = ADVANCED_FACE ( 'NONE', ( #205 ), #501, .F. ) ;
#702 = ORIENTED_EDGE ( 'NONE', *, *, #291, .T. ) ;
#703 = DIRECTION ( 'NONE',  ( 1.000000000000000000, 0.000000000000000000, 0.000000000000000000 ) ) ;
#704 = CYLINDRICAL_SURFACE ( 'NONE', #541, 3.299999999999997158 ) ;
#705 = CIRCLE ( 'NONE', #122, 34.49999999999999289 ) ;
#706 = EDGE_CURVE ( 'NONE', #3, #498, #456, .T. ) ;
#707 = VECTOR ( 'NONE', #343, 1000.000000000000000 ) ;
#708 = CARTESIAN_POINT ( 'NONE',  ( -22.00000000000044409, 38.10511776651503624, 6.000000000000000000 ) ) ;
#709 = DIRECTION ( 'NONE',  ( 1.000000000000000000, 0.000000000000000000, 0.000000000000000000 ) ) ;
#710 = ORIENTED_EDGE ( 'NONE', *, *, #43, .T. ) ;
#711 = DIRECTION ( 'NONE',  ( -0.000000000000000000, -0.000000000000000000, -1.000000000000000000 ) ) ;
#712 = DIRECTION ( 'NONE',  ( 0.4999999999999919509, 0.8660254037844432595, 0.000000000000000000 ) ) ;
#713 = CARTESIAN_POINT ( 'NONE',  ( 21.99999999999964473, 38.10511776651549809, 6.000000000000000000 ) ) ;
#714 = EDGE_LOOP ( 'NONE', ( #693, #734, #486, #352 ) ) ;
#715 = CARTESIAN_POINT ( 'NONE',  ( -44.00000000000000000, 0.000000000000000000, 0.000000000000000000 ) ) ;
#716 = DIRECTION ( 'NONE',  ( -0.000000000000000000, -0.000000000000000000, -1.000000000000000000 ) ) ;
#717 = DIRECTION ( 'NONE',  ( -1.000000000000000000, 0.000000000000000000, 0.000000000000000000 ) ) ;
#718 = EDGE_LOOP ( 'NONE', ( #611, #702 ) ) ;
#719 = EDGE_CURVE ( 'NONE', #467, #213, #228, .T. ) ;
#720 = CARTESIAN_POINT ( 'NONE',  ( 44.00000000000000000, 0.000000000000000000, 6.000000000000000000 ) ) ;
#721 = CIRCLE ( 'NONE', #353, 3.299999999999996270 ) ;
#722 =( NAMED_UNIT ( * ) PLANE_ANGLE_UNIT ( ) SI_UNIT ( $, .RADIAN. ) );
#723 = CYLINDRICAL_SURFACE ( 'NONE', #123, 49.00000000000000000 ) ;
#724 = VECTOR ( 'NONE', #34, 1000.000000000000000 ) ;
#725 = ORIENTED_EDGE ( 'NONE', *, *, #567, .F. ) ;
#726 = EDGE_CURVE ( 'NONE', #316, #26, #378, .T. ) ;
#727 = DIRECTION ( 'NONE',  ( -0.4999999999999979461, -0.8660254037844397068, 0.000000000000000000 ) ) ;
#728 = CARTESIAN_POINT ( 'NONE',  ( 0.000000000000000000, 0.000000000000000000, 0.000000000000000000 ) ) ;
#729 = CARTESIAN_POINT ( 'NONE',  ( 44.00000000000000000, 0.000000000000000000, 6.000000000000000000 ) ) ;
#730 = ORIENTED_EDGE ( 'NONE', *, *, #686, .T. ) ;
#731 = FACE_BOUND ( 'NONE', #624, .T. ) ;
#732 = EDGE_CURVE ( 'NONE', #158, #327, #568, .T. ) ;
#733 = CARTESIAN_POINT ( 'NONE',  ( -18.69999999999991402, -38.10511776651534888, 6.000000000000000000 ) ) ;
#734 = ORIENTED_EDGE ( 'NONE', *, *, #753, .T. ) ;
#735 = ADVANCED_FACE ( 'NONE', ( #273 ), #742, .F. ) ;
#736 = STYLED_ITEM ( 'NONE', ( #650 ), #149 ) ;
#737 = CARTESIAN_POINT ( 'NONE',  ( -47.29999999999999716, 0.000000000000000000, 6.000000000000000000 ) ) ;
#738 = VERTEX_POINT ( 'NONE', #740 ) ;
#739 = AXIS2_PLACEMENT_3D ( 'NONE', #195, #84, #143 ) ;
#740 = CARTESIAN_POINT ( 'NONE',  ( 25.29999999999964189, 38.10511776651549809, 0.000000000000000000 ) ) ;
#741 = ORIENTED_EDGE ( 'NONE', *, *, #594, .T. ) ;
#742 = CYLINDRICAL_SURFACE ( 'NONE', #197, 39.00000000000000000 ) ;
#743 = ORIENTED_EDGE ( 'NONE', *, *, #577, .F. ) ;
#744 = ORIENTED_EDGE ( 'NONE', *, *, #719, .F. ) ;
#745 = AXIS2_PLACEMENT_3D ( 'NONE', #238, #711, #6 ) ;
#746 = VECTOR ( 'NONE', #551, 1000.000000000000000 ) ;
#747 = ADVANCED_FACE ( 'NONE', ( #670 ), #628, .T. ) ;
#748 = EDGE_LOOP ( 'NONE', ( #250, #744 ) ) ;
#749 = FACE_OUTER_BOUND ( 'NONE', #574, .T. ) ;
#750 = DIRECTION ( 'NONE',  ( 1.000000000000000000, 0.000000000000000000, 0.000000000000000000 ) ) ;
#751 = ORIENTED_EDGE ( 'NONE', *, *, #614, .T. ) ;
#752 = FACE_OUTER_BOUND ( 'NONE', #331, .T. ) ;
#753 = EDGE_CURVE ( 'NONE', #629, #498, #452, .T. ) ;
#754 = ORIENTED_EDGE ( 'NONE', *, *, #547, .T. ) ;
#755 = AXIS2_PLACEMENT_3D ( 'NONE', #354, #347, #585 ) ;
#756 = CIRCLE ( 'NONE', #180, 39.00000000000000000 ) ;
#757 = FACE_OUTER_BOUND ( 'NONE', #510, .T. ) ;
#758 = ORIENTED_EDGE ( 'NONE', *, *, #516, .F. ) ;
#759 = DIRECTION ( 'NONE',  ( -0.000000000000000000, -0.000000000000000000, -1.000000000000000000 ) ) ;
ENDSEC;
END-ISO-10303-21;
