ISO-10303-21;
HEADER;
FILE_DESCRIPTION (( 'STEP AP214' ),
    '1' );
FILE_NAME ('wave-generator.STEP',
    '2026-07-20T22:27:17',
    ( '' ),
    ( '' ),
    'SwSTEP 2.0',
    'SolidWorks 2026',
    '' );
FILE_SCHEMA (( 'AUTOMOTIVE_DESIGN' ));
ENDSEC;

DATA;
#1 = FACE_OUTER_BOUND ( 'NONE', #433, .T. ) ;
#2 = DIRECTION ( 'NONE',  ( 0.000000000000000000, 0.000000000000000000, 1.000000000000000000 ) ) ;
#3 = CIRCLE ( 'NONE', #172, 3.499999999999999556 ) ;
#4 = DIRECTION ( 'NONE',  ( 1.000000000000000000, 1.734723475976808080E-15, 0.000000000000000000 ) ) ;
#5 = ORIENTED_EDGE ( 'NONE', *, *, #1059, .T. ) ;
#6 = EDGE_CURVE ( 'NONE', #398, #810, #1156, .T. ) ;
#7 = DIRECTION ( 'NONE',  ( 1.000000000000000000, 0.000000000000000000, 0.000000000000000000 ) ) ;
#8 = CARTESIAN_POINT ( 'NONE',  ( 0.000000000000000000, 0.000000000000000000, 0.000000000000000000 ) ) ;
#9 = DIRECTION ( 'NONE',  ( 0.000000000000000000, 0.000000000000000000, -1.000000000000000000 ) ) ;
#10 = VERTEX_POINT ( 'NONE', #1105 ) ;
#11 = AXIS2_PLACEMENT_3D ( 'NONE', #165, #449, #539 ) ;
#12 = LINE ( 'NONE', #660, #197 ) ;
#13 = AXIS2_PLACEMENT_3D ( 'NONE', #277, #379, #744 ) ;
#14 = LINE ( 'NONE', #1006, #888 ) ;
#15 = VECTOR ( 'NONE', #378, 1000.000000000000000 ) ;
#16 = FACE_OUTER_BOUND ( 'NONE', #949, .T. ) ;
#17 = AXIS2_PLACEMENT_3D ( 'NONE', #295, #28, #209 ) ;
#18 = VERTEX_POINT ( 'NONE', #640 ) ;
#19 = LINE ( 'NONE', #1017, #15 ) ;
#20 = ADVANCED_FACE ( 'NONE', ( #564 ), #187, .F. ) ;
#21 = CARTESIAN_POINT ( 'NONE',  ( -9.843435320765786756, 1.881785594531979910, -0.6534196511704059018 ) ) ;
#22 = AXIS2_PLACEMENT_3D ( 'NONE', #981, #1160, #1153 ) ;
#23 = CARTESIAN_POINT ( 'NONE',  ( -11.50000000000000000, 8.000000000000000000, 0.000000000000000000 ) ) ;
#24 = VERTEX_POINT ( 'NONE', #266 ) ;
#25 = CIRCLE ( 'NONE', #689, 7.500000000000000000 ) ;
#26 = LINE ( 'NONE', #825, #455 ) ;
#27 = CARTESIAN_POINT ( 'NONE',  ( -11.25171699208162046, 2.495728548308540073, -0.09160733202550680465 ) ) ;
#28 = DIRECTION ( 'NONE',  ( 0.000000000000000000, 0.000000000000000000, 1.000000000000000000 ) ) ;
#29 = ORIENTED_EDGE ( 'NONE', *, *, #164, .F. ) ;
#30 = DIRECTION ( 'NONE',  ( 0.000000000000000000, 0.000000000000000000, 1.000000000000000000 ) ) ;
#31 = DIRECTION ( 'NONE',  ( -1.734723475976807883E-15, 1.000000000000000000, -0.000000000000000000 ) ) ;
#32 = CIRCLE ( 'NONE', #17, 3.499999999999999556 ) ;
#33 = VECTOR ( 'NONE', #299, 1000.000000000000000 ) ;
#34 = CARTESIAN_POINT ( 'NONE',  ( 0.000000000000000000, 0.000000000000000000, -11.50000000000000000 ) ) ;
#35 = VERTEX_POINT ( 'NONE', #471 ) ;
#36 = ADVANCED_FACE ( 'NONE', ( #477 ), #183, .F. ) ;
#37 = AXIS2_PLACEMENT_3D ( 'NONE', #655, #941, #43 ) ;
#38 = CARTESIAN_POINT ( 'NONE',  ( -9.198972946141362073, 0.9821298050069434682, -1.199172985252043855 ) ) ;
#39 = CARTESIAN_POINT ( 'NONE',  ( 11.49999999999999289, -6.000000000000000888, 2.000000000000000000 ) ) ;
#40 = ORIENTED_EDGE ( 'NONE', *, *, #1093, .F. ) ;
#41 = EDGE_CURVE ( 'NONE', #549, #1179, #834, .T. ) ;
#42 = AXIS2_PLACEMENT_3D ( 'NONE', #176, #4, #1014 ) ;
#43 = DIRECTION ( 'NONE',  ( 1.000000000000000000, -8.881784197001250351E-16, 0.000000000000000000 ) ) ;
#44 = DIRECTION ( 'NONE',  ( -0.000000000000000000, -0.000000000000000000, 1.000000000000000000 ) ) ;
#45 = ORIENTED_EDGE ( 'NONE', *, *, #1022, .T. ) ;
#46 = CYLINDRICAL_SURFACE ( 'NONE', #520, 3.499999999999999556 ) ;
#47 = EDGE_CURVE ( 'NONE', #1069, #222, #492, .T. ) ;
#48 = LINE ( 'NONE', #410, #1092 ) ;
#49 = CIRCLE ( 'NONE', #813, 15.72500000000001741 ) ;
#50 = LINE ( 'NONE', #56, #1016 ) ;
#51 = ORIENTED_EDGE ( 'NONE', *, *, #1115, .T. ) ;
#52 = AXIS2_PLACEMENT_3D ( 'NONE', #938, #30, #829 ) ;
#53 = CARTESIAN_POINT ( 'NONE',  ( -12.27173913043478315, -2.377902166733476985, 0.000000000000000000 ) ) ;
#54 = DIRECTION ( 'NONE',  ( -0.000000000000000000, -0.000000000000000000, 1.000000000000000000 ) ) ;
#55 = EDGE_CURVE ( 'NONE', #549, #479, #219, .T. ) ;
#56 = CARTESIAN_POINT ( 'NONE',  ( 7.500000000000000000, 0.000000000000000000, -11.50000000000000000 ) ) ;
#57 = ORIENTED_EDGE ( 'NONE', *, *, #384, .F. ) ;
#58 = ORIENTED_EDGE ( 'NONE', *, *, #692, .F. ) ;
#59 = CARTESIAN_POINT ( 'NONE',  ( -9.006416077224267625, -0.2064992502640109751, -1.421186700345021814 ) ) ;
#60 = DIRECTION ( 'NONE',  ( 1.734723475976808080E-15, -1.000000000000000000, 0.000000000000000000 ) ) ;
#61 = DIRECTION ( 'NONE',  ( -0.000000000000000000, -0.000000000000000000, -1.000000000000000000 ) ) ;
#62 = EDGE_LOOP ( 'NONE', ( #359, #450, #210, #78, #167, #506 ) ) ;
#63 = CARTESIAN_POINT ( 'NONE',  ( -11.86524881568181833, -2.481662447941345384, -0.01036156359467878783 ) ) ;
#64 = DIRECTION ( 'NONE',  ( -0.000000000000000000, -0.000000000000000000, -1.000000000000000000 ) ) ;
#65 = FACE_OUTER_BOUND ( 'NONE', #1091, .T. ) ;
#66 = ORIENTED_EDGE ( 'NONE', *, *, #75, .F. ) ;
#67 = ORIENTED_EDGE ( 'NONE', *, *, #356, .T. ) ;
#68 =( GEOMETRIC_REPRESENTATION_CONTEXT ( 3 ) GLOBAL_UNCERTAINTY_ASSIGNED_CONTEXT ( ( #301 ) ) GLOBAL_UNIT_ASSIGNED_CONTEXT ( ( #993, #205, #932 ) ) REPRESENTATION_CONTEXT ( 'NONE', 'WORKASPACE' ) );
#69 = CARTESIAN_POINT ( 'NONE',  ( 9.470205564105935281, 1.471065471151313586, -0.9355209879148855823 ) ) ;
#70 = EDGE_CURVE ( 'NONE', #731, #1057, #558, .T. ) ;
#71 = LINE ( 'NONE', #367, #722 ) ;
#72 = VERTEX_POINT ( 'NONE', #174 ) ;
#73 = ORIENTED_EDGE ( 'NONE', *, *, #1066, .T. ) ;
#74 = CARTESIAN_POINT ( 'NONE',  ( 10.14195041144067844, 2.107242675157919631, -0.4779771644701444888 ) ) ;
#75 = EDGE_CURVE ( 'NONE', #479, #24, #14, .T. ) ;
#76 = CARTESIAN_POINT ( 'NONE',  ( 11.49999999999999289, -6.000000000000000888, -3.469446951953614189E-15 ) ) ;
#77 = ORIENTED_EDGE ( 'NONE', *, *, #105, .F. ) ;
#78 = ORIENTED_EDGE ( 'NONE', *, *, #716, .F. ) ;
#79 = DIRECTION ( 'NONE',  ( -1.000000000000000000, 0.000000000000000000, -0.000000000000000000 ) ) ;
#80 = ORIENTED_EDGE ( 'NONE', *, *, #1170, .T. ) ;
#81 = DIRECTION ( 'NONE',  ( 1.000000000000000000, 0.000000000000000000, -0.000000000000000000 ) ) ;
#82 = EDGE_CURVE ( 'NONE', #1134, #502, #262, .T. ) ;
#83 = CYLINDRICAL_SURFACE ( 'NONE', #411, 6.000000000000001776 ) ;
#84 = ORIENTED_EDGE ( 'NONE', *, *, #544, .F. ) ;
#85 = B_SPLINE_CURVE_WITH_KNOTS ( 'NONE', 3,
 ( #135, #583, #401, #765, #1133, #313, #832, #709, #242, #769, #1075, #505, #881, #1068, #524, #426, #1061, #1146, #702, #318, #413, #616 ),
 .UNSPECIFIED., .F., .F.,
 ( 4, 2, 2, 2, 2, 2, 2, 2, 2, 2, 4 ),
 ( 0.000000000000000000, 0.0006190334281342674662, 0.001238066856268534932, 0.001857100284402802724, 0.002476133712537069865, 0.003095167140671337223, 0.003714200568805605448, 0.004023717282872738693, 0.004333233996939872372, 0.004642750711007006051, 0.004952267425074138862 ),
 .UNSPECIFIED. ) ;
#86 = CIRCLE ( 'NONE', #965, 3.499999999999999556 ) ;
#87 = DIRECTION ( 'NONE',  ( 1.000000000000000000, 0.000000000000000000, 0.000000000000000000 ) ) ;
#88 = EDGE_CURVE ( 'NONE', #952, #244, #1088, .T. ) ;
#89 = CARTESIAN_POINT ( 'NONE',  ( 12.50000000000000000, 0.000000000000000000, -5.000000000000000000 ) ) ;
#90 = DIRECTION ( 'NONE',  ( 1.000000000000000000, 0.000000000000000000, 0.000000000000000000 ) ) ;
#91 = VECTOR ( 'NONE', #54, 1000.000000000000000 ) ;
#92 = CARTESIAN_POINT ( 'NONE',  ( -11.50000000000000711, -6.000000000000000888, -11.50099999999999945 ) ) ;
#93 = ORIENTED_EDGE ( 'NONE', *, *, #475, .T. ) ;
#94 = PLANE ( 'NONE',  #676 ) ;
#95 = FACE_OUTER_BOUND ( 'NONE', #519, .T. ) ;
#96 = VECTOR ( 'NONE', #44, 1000.000000000000000 ) ;
#97 = DIRECTION ( 'NONE',  ( -0.000000000000000000, -0.000000000000000000, 1.000000000000000000 ) ) ;
#98 = CARTESIAN_POINT ( 'NONE',  ( 17.50000000000000000, 0.000000000000000000, -11.50099999999999945 ) ) ;
#99 = ORIENTED_EDGE ( 'NONE', *, *, #70, .T. ) ;
#100 = CARTESIAN_POINT ( 'NONE',  ( -2.549999999999999822, 2.549999999999999822, -11.50000000000000000 ) ) ;
#101 = CARTESIAN_POINT ( 'NONE',  ( 11.50000000000000000, 0.000000000000000000, -0.0009999999999992653654 ) ) ;
#102 = ADVANCED_BREP_SHAPE_REPRESENTATION ( 'wave-generator', ( #861, #220 ), #68 ) ;
#103 = LINE ( 'NONE', #560, #712 ) ;
#104 = ORIENTED_EDGE ( 'NONE', *, *, #356, .F. ) ;
#105 = EDGE_CURVE ( 'NONE', #202, #1167, #677, .T. ) ;
#106 = AXIS2_PLACEMENT_3D ( 'NONE', #453, #263, #707 ) ;
#107 = CARTESIAN_POINT ( 'NONE',  ( -8.000000000000000000, 0.000000000000000000, 3.000000000000000000 ) ) ;
#108 = DIRECTION ( 'NONE',  ( -0.000000000000000000, -0.000000000000000000, 1.000000000000000000 ) ) ;
#109 = AXIS2_PLACEMENT_3D ( 'NONE', #321, #708, #961 ) ;
#110 = ORIENTED_EDGE ( 'NONE', *, *, #762, .T. ) ;
#111 = ORIENTED_EDGE ( 'NONE', *, *, #503, .F. ) ;
#112 = ADVANCED_FACE ( 'NONE', ( #288 ), #83, .T. ) ;
#113 = DIRECTION ( 'NONE',  ( -0.000000000000000000, -0.000000000000000000, 1.000000000000000000 ) ) ;
#114 = APPLICATION_PROTOCOL_DEFINITION ( 'draft international standard', 'automotive_design', 1998, #223 ) ;
#115 = CARTESIAN_POINT ( 'NONE',  ( -10.30923826147104982, 2.206742305224202561, -0.3945424325008680677 ) ) ;
#116 = CIRCLE ( 'NONE', #994, 5.000000000000000000 ) ;
#117 = CARTESIAN_POINT ( 'NONE',  ( 14.00000000000000000, 0.000000000000000000, 0.000000000000000000 ) ) ;
#118 = ORIENTED_EDGE ( 'NONE', *, *, #1059, .F. ) ;
#119 = AXIS2_PLACEMENT_3D ( 'NONE', #908, #9, #79 ) ;
#120 = DIRECTION ( 'NONE',  ( 2.602085213965211825E-15, 1.000000000000000000, -0.000000000000000000 ) ) ;
#121 = PRODUCT_CONTEXT ( 'NONE', #285, 'mechanical' ) ;
#122 = CARTESIAN_POINT ( 'NONE',  ( -10.14340371744854785, 2.108309770039024755, -0.4771397149201881405 ) ) ;
#123 = EDGE_CURVE ( 'NONE', #244, #414, #815, .T. ) ;
#124 = CARTESIAN_POINT ( 'NONE',  ( 11.50000000000000000, 0.000000000000000000, 2.000000000000000000 ) ) ;
#125 = ORIENTED_EDGE ( 'NONE', *, *, #463, .T. ) ;
#126 = CARTESIAN_POINT ( 'NONE',  ( 2.549999999999999822, 2.549999999999999822, -11.50000000000000000 ) ) ;
#127 = DIRECTION ( 'NONE',  ( -1.000000000000000000, 1.224646799147352714E-16, 0.000000000000000000 ) ) ;
#128 = EDGE_CURVE ( 'NONE', #189, #1179, #1032, .T. ) ;
#129 = CARTESIAN_POINT ( 'NONE',  ( -11.50000000000000000, 0.000000000000000000, 3.000000000000000000 ) ) ;
#130 = ORIENTED_EDGE ( 'NONE', *, *, #773, .F. ) ;
#131 = CARTESIAN_POINT ( 'NONE',  ( 11.50000000000000000, 0.000000000000000000, 13.00000000000000178 ) ) ;
#132 = VECTOR ( 'NONE', #247, 1000.000000000000000 ) ;
#133 = CARTESIAN_POINT ( 'NONE',  ( -9.470345155002481974, 1.471351700205334234, -0.9353636012514970899 ) ) ;
#134 = VERTEX_POINT ( 'NONE', #951 ) ;
#135 = CARTESIAN_POINT ( 'NONE',  ( 12.27173913043478315, -2.377902166733476985, 0.000000000000000000 ) ) ;
#136 = ORIENTED_EDGE ( 'NONE', *, *, #1131, .F. ) ;
#137 = CARTESIAN_POINT ( 'NONE',  ( -11.45860403778425329, 2.508145992045966111, -0.05565048259115860929 ) ) ;
#138 = CARTESIAN_POINT ( 'NONE',  ( -11.50000000000000711, -6.000000000000000888, 2.000000000000000000 ) ) ;
#139 = ORIENTED_EDGE ( 'NONE', *, *, #196, .T. ) ;
#140 = CARTESIAN_POINT ( 'NONE',  ( -11.50000000000000000, 0.000000000000000000, -11.50099999999999945 ) ) ;
#141 = EDGE_CURVE ( 'NONE', #579, #664, #514, .T. ) ;
#142 = DIRECTION ( 'NONE',  ( 0.000000000000000000, 0.000000000000000000, 1.000000000000000000 ) ) ;
#143 = AXIS2_PLACEMENT_3D ( 'NONE', #812, #1175, #363 ) ;
#144 = CARTESIAN_POINT ( 'NONE',  ( 15.00000000000000000, 0.000000000000000000, 2.000000000000000000 ) ) ;
#145 = ORIENTED_EDGE ( 'NONE', *, *, #123, .F. ) ;
#146 = DIRECTION ( 'NONE',  ( 2.602085213965211825E-15, 1.000000000000000000, 0.000000000000000000 ) ) ;
#147 = CIRCLE ( 'NONE', #1176, 2.500000000000000444 ) ;
#148 = CARTESIAN_POINT ( 'NONE',  ( 2.549999999999999822, -2.549999999999999822, -4.500000000000000000 ) ) ;
#149 = CARTESIAN_POINT ( 'NONE',  ( 12.27173913043478315, 2.377902166733476985, 0.000000000000000000 ) ) ;
#150 = VERTEX_POINT ( 'NONE', #577 ) ;
#151 = VERTEX_POINT ( 'NONE', #768 ) ;
#152 = CARTESIAN_POINT ( 'NONE',  ( 17.50000000000000000, 0.000000000000000000, 0.000000000000000000 ) ) ;
#153 = FACE_OUTER_BOUND ( 'NONE', #485, .T. ) ;
#154 = EDGE_CURVE ( 'NONE', #988, #398, #201, .T. ) ;
#155 = PRODUCT_DEFINITION_CONTEXT ( 'detailed design', #223, 'design' ) ;
#156 = PLANE ( 'NONE',  #937 ) ;
#157 = ORIENTED_EDGE ( 'NONE', *, *, #850, .T. ) ;
#158 = CARTESIAN_POINT ( 'NONE',  ( 9.000000000000000000, -1.847130140338335961E-11, -1.429285785728575897 ) ) ;
#159 = FACE_OUTER_BOUND ( 'NONE', #804, .T. ) ;
#160 = PLANE ( 'NONE',  #625 ) ;
#161 = ORIENTED_EDGE ( 'NONE', *, *, #105, .T. ) ;
#162 = ORIENTED_EDGE ( 'NONE', *, *, #921, .T. ) ;
#163 =( GEOMETRIC_REPRESENTATION_CONTEXT ( 3 ) GLOBAL_UNCERTAINTY_ASSIGNED_CONTEXT ( ( #1055 ) ) GLOBAL_UNIT_ASSIGNED_CONTEXT ( ( #902, #629, #817 ) ) REPRESENTATION_CONTEXT ( 'NONE', 'WORKASPACE' ) );
#164 = EDGE_CURVE ( 'NONE', #479, #610, #147, .T. ) ;
#165 = CARTESIAN_POINT ( 'NONE',  ( 11.50000000000000000, 0.000000000000000000, 3.000000000000000000 ) ) ;
#166 = EDGE_LOOP ( 'NONE', ( #51, #145, #175, #761, #304, #110 ) ) ;
#167 = ORIENTED_EDGE ( 'NONE', *, *, #615, .T. ) ;
#168 = DIRECTION ( 'NONE',  ( -0.000000000000000000, -0.000000000000000000, 1.000000000000000000 ) ) ;
#169 = EDGE_CURVE ( 'NONE', #1179, #988, #634, .T. ) ;
#170 = EDGE_CURVE ( 'NONE', #1063, #610, #968, .T. ) ;
#171 = DIRECTION ( 'NONE',  ( 1.000000000000000000, 0.000000000000000000, 0.000000000000000000 ) ) ;
#172 = AXIS2_PLACEMENT_3D ( 'NONE', #735, #180, #1101 ) ;
#173 = CARTESIAN_POINT ( 'NONE',  ( -11.50000000000000000, 0.000000000000000000, 3.000000000000000000 ) ) ;
#174 = CARTESIAN_POINT ( 'NONE',  ( 11.49999999999999289, 6.000000000000000888, 2.000000000000000000 ) ) ;
#175 = ORIENTED_EDGE ( 'NONE', *, *, #876, .F. ) ;
#176 = CARTESIAN_POINT ( 'NONE',  ( -11.50000000000000533, -6.000000000000000888, -11.50099999999999945 ) ) ;
#177 = ORIENTED_EDGE ( 'NONE', *, *, #282, .F. ) ;
#178 = ADVANCED_FACE ( 'NONE', ( #494 ), #1135, .T. ) ;
#179 = CYLINDRICAL_SURFACE ( 'NONE', #259, 2.500000000000000444 ) ;
#180 = DIRECTION ( 'NONE',  ( 0.000000000000000000, 0.000000000000000000, 1.000000000000000000 ) ) ;
#181 = ORIENTED_EDGE ( 'NONE', *, *, #1131, .T. ) ;
#182 = LINE ( 'NONE', #1072, #1026 ) ;
#183 = PLANE ( 'NONE',  #793 ) ;
#184 = DIRECTION ( 'NONE',  ( -0.000000000000000000, -0.000000000000000000, -1.000000000000000000 ) ) ;
#185 = ORIENTED_EDGE ( 'NONE', *, *, #666, .F. ) ;
#186 = CARTESIAN_POINT ( 'NONE',  ( 0.000000000000000000, -2.725000000000001865, 0.000000000000000000 ) ) ;
#187 = CYLINDRICAL_SURFACE ( 'NONE', #1004, 2.500000000000000444 ) ;
#188 = FILL_AREA_STYLE ('',( #811 ) ) ;
#189 = VERTEX_POINT ( 'NONE', #844 ) ;
#190 = CARTESIAN_POINT ( 'NONE',  ( -11.50000000000000000, 0.000000000000000000, -0.0009999999999992653654 ) ) ;
#191 = ORIENTED_EDGE ( 'NONE', *, *, #598, .T. ) ;
#192 = ORIENTED_EDGE ( 'NONE', *, *, #169, .T. ) ;
#193 = PRODUCT ( 'wave-generator', 'wave-generator', '', ( #121 ) ) ;
#194 = DIRECTION ( 'NONE',  ( 0.000000000000000000, 0.000000000000000000, 1.000000000000000000 ) ) ;
#195 = ORIENTED_EDGE ( 'NONE', *, *, #88, .F. ) ;
#196 = EDGE_CURVE ( 'NONE', #952, #536, #849, .T. ) ;
#197 = VECTOR ( 'NONE', #649, 1000.000000000000000 ) ;
#198 = CARTESIAN_POINT ( 'NONE',  ( 11.49999999999999467, -8.000000000000001776, -3.469446951953614189E-15 ) ) ;
#199 = DIRECTION ( 'NONE',  ( 0.000000000000000000, 0.000000000000000000, -1.000000000000000000 ) ) ;
#200 = LINE ( 'NONE', #23, #869 ) ;
#201 = CIRCLE ( 'NONE', #1122, 5.000000000000000888 ) ;
#202 = VERTEX_POINT ( 'NONE', #312 ) ;
#203 = CARTESIAN_POINT ( 'NONE',  ( 17.50000000000000000, 0.000000000000000000, 2.000000000000000000 ) ) ;
#204 = EDGE_CURVE ( 'NONE', #584, #330, #661, .T. ) ;
#205 =( NAMED_UNIT ( * ) PLANE_ANGLE_UNIT ( ) SI_UNIT ( $, .RADIAN. ) );
#206 = CARTESIAN_POINT ( 'NONE',  ( -9.032263518103512467, 0.4133528439880999605, -1.389342603327697212 ) ) ;
#207 = ORIENTED_EDGE ( 'NONE', *, *, #339, .F. ) ;
#208 = VECTOR ( 'NONE', #717, 1000.000000000000000 ) ;
#209 = DIRECTION ( 'NONE',  ( 1.000000000000000000, 0.000000000000000000, 0.000000000000000000 ) ) ;
#210 = ORIENTED_EDGE ( 'NONE', *, *, #41, .F. ) ;
#211 = CIRCLE ( 'NONE', #668, 15.72499999999999964 ) ;
#212 = CARTESIAN_POINT ( 'NONE',  ( 11.50000000000000000, 0.000000000000000000, 0.000000000000000000 ) ) ;
#213 = EDGE_CURVE ( 'NONE', #274, #1008, #989, .T. ) ;
#214 = DIRECTION ( 'NONE',  ( 1.224646799147353207E-16, 1.000000000000000000, -0.000000000000000000 ) ) ;
#215 = CARTESIAN_POINT ( 'NONE',  ( 11.50000000000000000, 0.000000000000000000, 2.000000000000000000 ) ) ;
#216 = ORIENTED_EDGE ( 'NONE', *, *, #123, .T. ) ;
#217 = AXIS2_PLACEMENT_3D ( 'NONE', #978, #527, #81 ) ;
#218 = DIRECTION ( 'NONE',  ( -1.000000000000000000, 0.000000000000000000, 0.000000000000000000 ) ) ;
#219 = CIRCLE ( 'NONE', #950, 2.500000000000000444 ) ;
#220 = AXIS2_PLACEMENT_3D ( 'NONE', #493, #1012, #292 ) ;
#221 = CYLINDRICAL_SURFACE ( 'NONE', #552, 6.000000000000001776 ) ;
#222 = VERTEX_POINT ( 'NONE', #1049 ) ;
#223 = APPLICATION_CONTEXT ( 'automotive_design' ) ;
#224 = CARTESIAN_POINT ( 'NONE',  ( -12.50000000000000000, 1.530808498934191521E-15, -5.000000000000000000 ) ) ;
#225 = CARTESIAN_POINT ( 'NONE',  ( -11.50000000000000000, 0.000000000000000000, 2.000000000000000000 ) ) ;
#226 = ORIENTED_EDGE ( 'NONE', *, *, #814, .T. ) ;
#227 = EDGE_CURVE ( 'NONE', #604, #72, #838, .T. ) ;
#228 = CARTESIAN_POINT ( 'NONE',  ( -9.470205564105940610, -1.471065471151320914, -0.9355209879148786989 ) ) ;
#229 = DIRECTION ( 'NONE',  ( 0.000000000000000000, 0.000000000000000000, 1.000000000000000000 ) ) ;
#230 = ORIENTED_EDGE ( 'NONE', *, *, #544, .T. ) ;
#231 = CARTESIAN_POINT ( 'NONE',  ( -8.000000000000000000, 0.000000000000000000, 2.000000000000000000 ) ) ;
#232 = VERTEX_POINT ( 'NONE', #673 ) ;
#233 = CARTESIAN_POINT ( 'NONE',  ( 11.86524881568181833, 2.481662447941345384, -0.01036156359467805751 ) ) ;
#234 = FACE_BOUND ( 'NONE', #1015, .T. ) ;
#235 = DIRECTION ( 'NONE',  ( -0.000000000000000000, -0.000000000000000000, 1.000000000000000000 ) ) ;
#236 = EDGE_LOOP ( 'NONE', ( #719, #828, #710, #490 ) ) ;
#237 = ORIENTED_EDGE ( 'NONE', *, *, #767, .T. ) ;
#238 = VECTOR ( 'NONE', #656, 1000.000000000000000 ) ;
#239 = CARTESIAN_POINT ( 'NONE',  ( 11.50000000000000000, 0.000000000000000000, 0.000000000000000000 ) ) ;
#240 = AXIS2_PLACEMENT_3D ( 'NONE', #1114, #589, #1041 ) ;
#241 = DIRECTION ( 'NONE',  ( 0.000000000000000000, 1.000000000000000000, 0.000000000000000000 ) ) ;
#242 = CARTESIAN_POINT ( 'NONE',  ( 10.14340371744855673, -2.108309770039029640, -0.4771397149201853094 ) ) ;
#243 = ORIENTED_EDGE ( 'NONE', *, *, #227, .T. ) ;
#244 = VERTEX_POINT ( 'NONE', #504 ) ;
#245 = CARTESIAN_POINT ( 'NONE',  ( -9.367584541579729418, -1.318468566007181098, -1.028979378636686315 ) ) ;
#246 = DIRECTION ( 'NONE',  ( 1.000000000000000000, 0.000000000000000000, 0.000000000000000000 ) ) ;
#247 = DIRECTION ( 'NONE',  ( 8.673617379884031528E-16, -1.000000000000000000, 0.000000000000000000 ) ) ;
#248 = ADVANCED_FACE ( 'NONE', ( #794 ), #510, .F. ) ;
#249 = CARTESIAN_POINT ( 'NONE',  ( 0.000000000000000000, 0.000000000000000000, -11.50000000000000000 ) ) ;
#250 = ORIENTED_EDGE ( 'NONE', *, *, #893, .F. ) ;
#251 = ORIENTED_EDGE ( 'NONE', *, *, #196, .F. ) ;
#252 = CARTESIAN_POINT ( 'NONE',  ( 8.999999999999236167, 0.1036172112700236292, -1.429285785729535130 ) ) ;
#253 = CYLINDRICAL_SURFACE ( 'NONE', #408, 3.499999999999999556 ) ;
#254 = FACE_OUTER_BOUND ( 'NONE', #852, .T. ) ;
#255 = DIRECTION ( 'NONE',  ( -1.000000000000000000, 0.000000000000000000, 0.000000000000000000 ) ) ;
#256 = DIRECTION ( 'NONE',  ( 0.000000000000000000, 0.000000000000000000, 1.000000000000000000 ) ) ;
#257 = ORIENTED_EDGE ( 'NONE', *, *, #955, .T. ) ;
#258 = ORIENTED_EDGE ( 'NONE', *, *, #1030, .T. ) ;
#259 = AXIS2_PLACEMENT_3D ( 'NONE', #545, #904, #87 ) ;
#260 = ADVANCED_FACE ( 'NONE', ( #700, #620 ), #160, .T. ) ;
#261 = DIRECTION ( 'NONE',  ( -0.000000000000000000, -0.000000000000000000, 1.000000000000000000 ) ) ;
#262 = CIRCLE ( 'NONE', #1048, 6.000000000000001776 ) ;
#263 = DIRECTION ( 'NONE',  ( -0.000000000000000000, -0.000000000000000000, -1.000000000000000000 ) ) ;
#264 = AXIS2_PLACEMENT_3D ( 'NONE', #349, #229, #516 ) ;
#265 = LINE ( 'NONE', #126, #422 ) ;
#266 = CARTESIAN_POINT ( 'NONE',  ( 14.00000000000000000, 0.000000000000000000, 3.000000000000000000 ) ) ;
#267 = ORIENTED_EDGE ( 'NONE', *, *, #767, .F. ) ;
#268 = EDGE_CURVE ( 'NONE', #330, #222, #868, .T. ) ;
#269 = AXIS2_PLACEMENT_3D ( 'NONE', #540, #357, #723 ) ;
#270 = VECTOR ( 'NONE', #261, 1000.000000000000000 ) ;
#271 = CYLINDRICAL_SURFACE ( 'NONE', #430, 15.72499999999999964 ) ;
#272 = VERTEX_POINT ( 'NONE', #874 ) ;
#273 = SURFACE_STYLE_USAGE ( .BOTH. , #1094 ) ;
#274 = VERTEX_POINT ( 'NONE', #1080 ) ;
#275 = CARTESIAN_POINT ( 'NONE',  ( -9.000000000000000000, 0.000000000000000000, 3.000000000000000000 ) ) ;
#276 = DIRECTION ( 'NONE',  ( 0.000000000000000000, 0.000000000000000000, -1.000000000000000000 ) ) ;
#277 = CARTESIAN_POINT ( 'NONE',  ( -11.50000000000000000, 0.000000000000000000, 2.000000000000000000 ) ) ;
#278 = B_SPLINE_CURVE_WITH_KNOTS ( 'NONE', 3,
 ( #606, #705, #59, #1071, #532, #805, #693, #245, #228, #778, #423, #685, #879, #437, #612, #592, #977, #63, #1078, #53 ),
 .UNSPECIFIED., .F., .F.,
 ( 4, 2, 2, 2, 2, 2, 2, 2, 2, 4 ),
 ( 0.004952267425074156210, 0.005261518530840434728, 0.005570769636606713246, 0.006189271848139268548, 0.006807774059671822982, 0.007426276271204379151, 0.008044778482736934452, 0.008663280694269488019, 0.009281782905802043321, 0.009900285117334598622 ),
 .UNSPECIFIED. ) ;
#279 = PLANE ( 'NONE',  #119 ) ;
#280 = EDGE_LOOP ( 'NONE', ( #535, #653 ) ) ;
#281 = CARTESIAN_POINT ( 'NONE',  ( 2.549999999999999822, -2.549999999999999822, -4.500000000000000000 ) ) ;
#282 = EDGE_CURVE ( 'NONE', #1063, #189, #929, .T. ) ;
#283 = ORIENTED_EDGE ( 'NONE', *, *, #128, .F. ) ;
#284 = ORIENTED_EDGE ( 'NONE', *, *, #305, .T. ) ;
#285 = APPLICATION_CONTEXT ( 'automotive_design' ) ;
#286 = DIRECTION ( 'NONE',  ( 1.000000000000000000, 0.000000000000000000, 0.000000000000000000 ) ) ;
#287 = EDGE_CURVE ( 'NONE', #664, #232, #48, .T. ) ;
#288 = FACE_OUTER_BOUND ( 'NONE', #1148, .T. ) ;
#289 = DIRECTION ( 'NONE',  ( 1.000000000000000000, 0.000000000000000000, 0.000000000000000000 ) ) ;
#290 = ORIENTED_EDGE ( 'NONE', *, *, #845, .T. ) ;
#291 = LINE ( 'NONE', #1126, #436 ) ;
#292 = DIRECTION ( 'NONE',  ( 1.000000000000000000, 0.000000000000000000, 0.000000000000000000 ) ) ;
#293 = CARTESIAN_POINT ( 'NONE',  ( -9.237808946912814179, 1.068279899402308164, -1.158309950940866306 ) ) ;
#294 = ADVANCED_FACE ( 'NONE', ( #1060 ), #967, .T. ) ;
#295 = CARTESIAN_POINT ( 'NONE',  ( -11.50000000000000000, 0.000000000000000000, 2.000000000000000000 ) ) ;
#296 = ORIENTED_EDGE ( 'NONE', *, *, #170, .F. ) ;
#297 = ADVANCED_FACE ( 'NONE', ( #234, #1165 ), #889, .T. ) ;
#298 = CIRCLE ( 'NONE', #599, 2.500000000000000444 ) ;
#299 = DIRECTION ( 'NONE',  ( -0.000000000000000000, -1.000000000000000000, -0.000000000000000000 ) ) ;
#300 = CARTESIAN_POINT ( 'NONE',  ( -11.50000000000000533, -6.000000000000000888, 2.000000000000000000 ) ) ;
#301 = UNCERTAINTY_MEASURE_WITH_UNIT (LENGTH_MEASURE( 1.000000000000000082E-05 ), #993, 'distance_accuracy_value', 'NONE');
#302 = CARTESIAN_POINT ( 'NONE',  ( -8.673617379884035472E-16, -2.725000000000020961, 13.00000000000000178 ) ) ;
#303 = VECTOR ( 'NONE', #241, 1000.000000000000000 ) ;
#304 = ORIENTED_EDGE ( 'NONE', *, *, #339, .T. ) ;
#305 = EDGE_CURVE ( 'NONE', #675, #681, #686, .T. ) ;
#306 = DIRECTION ( 'NONE',  ( -0.000000000000000000, -0.000000000000000000, 1.000000000000000000 ) ) ;
#307 = CARTESIAN_POINT ( 'NONE',  ( 11.50000000000000000, 0.000000000000000000, 0.000000000000000000 ) ) ;
#308 = ORIENTED_EDGE ( 'NONE', *, *, #1115, .F. ) ;
#309 = CIRCLE ( 'NONE', #1037, 6.000000000000001776 ) ;
#310 = DIRECTION ( 'NONE',  ( 1.000000000000000000, 0.000000000000000000, 0.000000000000000000 ) ) ;
#311 = ORIENTED_EDGE ( 'NONE', *, *, #914, .F. ) ;
#312 = CARTESIAN_POINT ( 'NONE',  ( -11.50000000000000000, 8.000000000000000000, 13.00000000000000178 ) ) ;
#313 = CARTESIAN_POINT ( 'NONE',  ( 10.85662890035256467, -2.424124391816909085, -0.1886449608995820482 ) ) ;
#314 = ORIENTED_EDGE ( 'NONE', *, *, #706, .T. ) ;
#315 = DIRECTION ( 'NONE',  ( 1.000000000000000000, 0.000000000000000000, 0.000000000000000000 ) ) ;
#316 = ADVANCED_FACE ( 'NONE', ( #254 ), #496, .F. ) ;
#317 = ORIENTED_EDGE ( 'NONE', *, *, #1149, .T. ) ;
#318 = CARTESIAN_POINT ( 'NONE',  ( 9.006644776838538036, -0.2091976310797139527, -1.420900606415307355 ) ) ;
#319 = ORIENTED_EDGE ( 'NONE', *, *, #332, .F. ) ;
#320 = CARTESIAN_POINT ( 'NONE',  ( 9.844369357244611152, 1.882460504701817250, -0.6528873854274154231 ) ) ;
#321 = CARTESIAN_POINT ( 'NONE',  ( 5.750000000000000000, 1.362500000000000933, 3.000000000000000000 ) ) ;
#322 = EDGE_CURVE ( 'NONE', #502, #731, #785, .T. ) ;
#323 = CARTESIAN_POINT ( 'NONE',  ( 11.49999999999999822, 8.000000000000000000, 0.000000000000000000 ) ) ;
#324 = ORIENTED_EDGE ( 'NONE', *, *, #1019, .T. ) ;
#325 = CIRCLE ( 'NONE', #576, 8.000000000000000000 ) ;
#326 = CARTESIAN_POINT ( 'NONE',  ( 9.193945312990120300, 0.9837005781123207004, -1.202026303332856649 ) ) ;
#327 = DIRECTION ( 'NONE',  ( 1.000000000000000000, 0.000000000000000000, 0.000000000000000000 ) ) ;
#328 = CARTESIAN_POINT ( 'NONE',  ( -8.000000000000000000, 0.000000000000000000, 2.000000000000000000 ) ) ;
#329 = ORIENTED_EDGE ( 'NONE', *, *, #732, .F. ) ;
#330 = VERTEX_POINT ( 'NONE', #441 ) ;
#331 = CARTESIAN_POINT ( 'NONE',  ( 11.49999999999999467, -8.000000000000001776, 2.000000000000000000 ) ) ;
#332 = EDGE_CURVE ( 'NONE', #150, #345, #1159, .T. ) ;
#333 = B_SPLINE_CURVE_WITH_KNOTS ( 'NONE', 3,
 ( #158, #252, #885, #446, #507, #526, #326, #800, #69, #1163, #320, #74, #1053, #867, #597, #1058, #416, #233, #784, #892 ),
 .UNSPECIFIED., .F., .F.,
 ( 4, 2, 2, 2, 2, 2, 2, 2, 2, 4 ),
 ( 0.004952267425074138862, 0.005261518530840418248, 0.005570769636606697633, 0.006189271848139254670, 0.006807774059671812573, 0.007426276271204370477, 0.008044778482736927513, 0.008663280694269484550, 0.009281782905802041586, 0.009900285117334598622 ),
 .UNSPECIFIED. ) ;
#334 = DIRECTION ( 'NONE',  ( -0.000000000000000000, -0.000000000000000000, -1.000000000000000000 ) ) ;
#335 = CARTESIAN_POINT ( 'NONE',  ( -11.50000000000000533, 6.000000000000000888, -3.469446951953614189E-15 ) ) ;
#336 = ORIENTED_EDGE ( 'NONE', *, *, #438, .F. ) ;
#337 = EDGE_LOOP ( 'NONE', ( #561, #434, #916, #691, #1102, #1107 ) ) ;
#338 = DIRECTION ( 'NONE',  ( 0.000000000000000000, 0.000000000000000000, 1.000000000000000000 ) ) ;
#339 = EDGE_CURVE ( 'NONE', #392, #688, #431, .T. ) ;
#340 = AXIS2_PLACEMENT_3D ( 'NONE', #919, #395, #315 ) ;
#341 = DIRECTION ( 'NONE',  ( -0.000000000000000000, -0.000000000000000000, -1.000000000000000000 ) ) ;
#342 = DIRECTION ( 'NONE',  ( 1.000000000000000000, 8.881784197001250351E-16, 0.000000000000000000 ) ) ;
#343 = DIRECTION ( 'NONE',  ( 0.000000000000000000, 0.000000000000000000, 1.000000000000000000 ) ) ;
#344 = ORIENTED_EDGE ( 'NONE', *, *, #47, .F. ) ;
#345 = VERTEX_POINT ( 'NONE', #594 ) ;
#346 = DIRECTION ( 'NONE',  ( 1.000000000000000000, 0.000000000000000000, 0.000000000000000000 ) ) ;
#347 = AXIS2_PLACEMENT_3D ( 'NONE', #870, #518, #787 ) ;
#348 = DIRECTION ( 'NONE',  ( -0.000000000000000000, -0.000000000000000000, 1.000000000000000000 ) ) ;
#349 = CARTESIAN_POINT ( 'NONE',  ( 11.50000000000000000, 0.000000000000000000, 2.000000000000000000 ) ) ;
#350 = EDGE_CURVE ( 'NONE', #272, #1154, #802, .T. ) ;
#351 = CARTESIAN_POINT ( 'NONE',  ( -2.549999999999999822, 2.549999999999999822, -4.500000000000000000 ) ) ;
#352 = ORIENTED_EDGE ( 'NONE', *, *, #350, .F. ) ;
#353 = ORIENTED_EDGE ( 'NONE', *, *, #1170, .F. ) ;
#354 = FACE_OUTER_BOUND ( 'NONE', #525, .T. ) ;
#355 = DIRECTION ( 'NONE',  ( 0.000000000000000000, 0.000000000000000000, 1.000000000000000000 ) ) ;
#356 = EDGE_CURVE ( 'NONE', #740, #1084, #529, .T. ) ;
#357 = DIRECTION ( 'NONE',  ( 0.000000000000000000, 0.000000000000000000, 1.000000000000000000 ) ) ;
#358 = DIRECTION ( 'NONE',  ( 0.000000000000000000, 1.000000000000000000, -0.000000000000000000 ) ) ;
#359 = ORIENTED_EDGE ( 'NONE', *, *, #154, .F. ) ;
#360 = AXIS2_PLACEMENT_3D ( 'NONE', #665, #945, #286 ) ;
#361 = LINE ( 'NONE', #365, #522 ) ;
#362 = PRODUCT_DEFINITION_FORMATION_WITH_SPECIFIED_SOURCE ( 'ANY', '', #193, .NOT_KNOWN. ) ;
#363 = DIRECTION ( 'NONE',  ( -8.673617379884032514E-16, -1.000000000000000000, 0.000000000000000000 ) ) ;
#364 = VECTOR ( 'NONE', #755, 1000.000000000000000 ) ;
#365 = CARTESIAN_POINT ( 'NONE',  ( 8.000000000000000000, 4.286263797015736595E-16, 2.000000000000000000 ) ) ;
#366 = ORIENTED_EDGE ( 'NONE', *, *, #164, .T. ) ;
#367 = CARTESIAN_POINT ( 'NONE',  ( 9.000000000000000000, 3.061616997868383141E-16, -0.0009999999999992653654 ) ) ;
#368 = CARTESIAN_POINT ( 'NONE',  ( 0.000000000000000000, 2.725000000000001865, 3.000000000000000000 ) ) ;
#369 = DIRECTION ( 'NONE',  ( -0.000000000000000000, -0.000000000000000000, -1.000000000000000000 ) ) ;
#370 = FACE_OUTER_BOUND ( 'NONE', #996, .T. ) ;
#371 = ORIENTED_EDGE ( 'NONE', *, *, #70, .F. ) ;
#372 = ADVANCED_FACE ( 'NONE', ( #153 ), #523, .F. ) ;
#373 = CARTESIAN_POINT ( 'NONE',  ( -11.50000000000000000, 8.000000000000000000, 2.000000000000000000 ) ) ;
#374 = DIRECTION ( 'NONE',  ( 1.000000000000000000, 0.000000000000000000, 0.000000000000000000 ) ) ;
#375 = SURFACE_STYLE_FILL_AREA ( #188 ) ;
#376 = EDGE_LOOP ( 'NONE', ( #648, #777, #596, #284 ) ) ;
#377 = CIRCLE ( 'NONE', #528, 6.000000000000001776 ) ;
#378 = DIRECTION ( 'NONE',  ( -0.000000000000000000, -0.000000000000000000, -1.000000000000000000 ) ) ;
#379 = DIRECTION ( 'NONE',  ( 0.000000000000000000, 0.000000000000000000, 1.000000000000000000 ) ) ;
#380 = CYLINDRICAL_SURFACE ( 'NONE', #905, 3.499999999999999556 ) ;
#381 = ORIENTED_EDGE ( 'NONE', *, *, #914, .T. ) ;
#382 = DIRECTION ( 'NONE',  ( -1.000000000000000000, 0.000000000000000000, 0.000000000000000000 ) ) ;
#383 = CARTESIAN_POINT ( 'NONE',  ( -9.006644776838532707, 0.2091976310796978267, -1.420900606415311573 ) ) ;
#384 = EDGE_CURVE ( 'NONE', #688, #1084, #910, .T. ) ;
#385 = CARTESIAN_POINT ( 'NONE',  ( 11.49999999999999822, 8.000000000000000000, 13.00000000000000178 ) ) ;
#386 = ORIENTED_EDGE ( 'NONE', *, *, #55, .F. ) ;
#387 = FACE_OUTER_BOUND ( 'NONE', #782, .T. ) ;
#388 = DIRECTION ( 'NONE',  ( 1.000000000000000000, 0.000000000000000000, 0.000000000000000000 ) ) ;
#389 = CARTESIAN_POINT ( 'NONE',  ( 0.000000000000000000, 0.000000000000000000, 0.000000000000000000 ) ) ;
#390 = ADVANCED_FACE ( 'NONE', ( #16 ), #495, .T. ) ;
#391 = DIRECTION ( 'NONE',  ( -0.000000000000000000, -0.000000000000000000, -1.000000000000000000 ) ) ;
#392 = VERTEX_POINT ( 'NONE', #385 ) ;
#393 = CARTESIAN_POINT ( 'NONE',  ( -11.50000000000000178, -8.000000000000000000, 13.00000000000000178 ) ) ;
#394 = VECTOR ( 'NONE', #1123, 1000.000000000000000 ) ;
#395 = DIRECTION ( 'NONE',  ( 0.000000000000000000, 0.000000000000000000, 1.000000000000000000 ) ) ;
#396 = CARTESIAN_POINT ( 'NONE',  ( -7.500000000000000000, 9.184850993605147944E-16, -5.000000000000000000 ) ) ;
#397 = AXIS2_PLACEMENT_3D ( 'NONE', #34, #1028, #478 ) ;
#398 = VERTEX_POINT ( 'NONE', #396 ) ;
#399 = CARTESIAN_POINT ( 'NONE',  ( -9.366887543843201769, 1.317100021231352835, -1.029678689569976768 ) ) ;
#400 = AXIS2_PLACEMENT_3D ( 'NONE', #915, #624, #1096 ) ;
#401 = CARTESIAN_POINT ( 'NONE',  ( 11.87007094446893163, -2.481039588391100725, -0.009976939661269565787 ) ) ;
#402 = ORIENTED_EDGE ( 'NONE', *, *, #955, .F. ) ;
#403 = EDGE_CURVE ( 'NONE', #330, #584, #32, .T. ) ;
#404 = CARTESIAN_POINT ( 'NONE',  ( -9.099944449541085945, 0.7069356191109485987, -1.308964702545503567 ) ) ;
#405 = DIRECTION ( 'NONE',  ( -1.000000000000000000, 0.000000000000000000, 0.000000000000000000 ) ) ;
#406 = ORIENTED_EDGE ( 'NONE', *, *, #448, .T. ) ;
#407 = CARTESIAN_POINT ( 'NONE',  ( 11.50000000000000000, 0.000000000000000000, 2.000000000000000000 ) ) ;
#408 = AXIS2_PLACEMENT_3D ( 'NONE', #626, #619, #171 ) ;
#409 = EDGE_CURVE ( 'NONE', #688, #72, #839, .T. ) ;
#410 = CARTESIAN_POINT ( 'NONE',  ( -11.50000000000000533, -6.000000000000000888, 0.000000000000000000 ) ) ;
#411 = AXIS2_PLACEMENT_3D ( 'NONE', #913, #97, #454 ) ;
#412 = ORIENTED_EDGE ( 'NONE', *, *, #850, .F. ) ;
#413 = CARTESIAN_POINT ( 'NONE',  ( 9.000000000000763833, -0.1037062056255520642, -1.429285785727616664 ) ) ;
#414 = VERTEX_POINT ( 'NONE', #484 ) ;
#415 = AXIS2_PLACEMENT_3D ( 'NONE', #1145, #334, #425 ) ;
#416 = CARTESIAN_POINT ( 'NONE',  ( 11.45594866600486306, 2.508010104216575886, -0.05609865112689745026 ) ) ;
#417 = CARTESIAN_POINT ( 'NONE',  ( -15.00000000000000000, 4.286263797015736595E-16, 2.000000000000000000 ) ) ;
#418 = EDGE_CURVE ( 'NONE', #958, #10, #835, .T. ) ;
#419 = DIRECTION ( 'NONE',  ( -0.000000000000000000, -0.000000000000000000, -1.000000000000000000 ) ) ;
#420 = ORIENTED_EDGE ( 'NONE', *, *, #1066, .F. ) ;
#421 = ORIENTED_EDGE ( 'NONE', *, *, #509, .F. ) ;
#422 = VECTOR ( 'NONE', #841, 1000.000000000000000 ) ;
#423 = CARTESIAN_POINT ( 'NONE',  ( -9.844369357244614704, -1.882460504701822801, -0.6528873854274103161 ) ) ;
#424 = COLOUR_RGB ( '',0.7921568627450980005, 0.8196078431372548767, 0.9333333333333333481 ) ;
#425 = DIRECTION ( 'NONE',  ( -1.000000000000000000, 0.000000000000000000, 0.000000000000000000 ) ) ;
#426 = CARTESIAN_POINT ( 'NONE',  ( 9.130137872932428067, -0.8019089444338984851, -1.274381396195761962 ) ) ;
#427 = EDGE_LOOP ( 'NONE', ( #1124, #1083, #344, #84 ) ) ;
#428 = ADVANCED_FACE ( 'NONE', ( #578 ), #380, .T. ) ;
#429 = CARTESIAN_POINT ( 'NONE',  ( 3.499999999999999556, 0.000000000000000000, 13.00000000000000178 ) ) ;
#430 = AXIS2_PLACEMENT_3D ( 'NONE', #368, #442, #255 ) ;
#431 = LINE ( 'NONE', #1151, #570 ) ;
#432 = DIRECTION ( 'NONE',  ( -0.000000000000000000, -0.000000000000000000, 1.000000000000000000 ) ) ;
#433 = EDGE_LOOP ( 'NONE', ( #104, #185, #381, #909 ) ) ;
#434 = ORIENTED_EDGE ( 'NONE', *, *, #384, .T. ) ;
#435 = VECTOR ( 'NONE', #995, 1000.000000000000000 ) ;
#436 = VECTOR ( 'NONE', #306, 1000.000000000000000 ) ;
#437 = CARTESIAN_POINT ( 'NONE',  ( -10.66346346251804533, -2.364019681469753831, -0.2510085368896261548 ) ) ;
#438 = EDGE_CURVE ( 'NONE', #414, #579, #200, .T. ) ;
#439 = ORIENTED_EDGE ( 'NONE', *, *, #268, .F. ) ;
#440 = DIRECTION ( 'NONE',  ( -1.000000000000000000, 0.000000000000000000, 0.000000000000000000 ) ) ;
#441 = CARTESIAN_POINT ( 'NONE',  ( -15.00000000000000000, 4.286263797015737088E-16, 2.000000000000000000 ) ) ;
#442 = DIRECTION ( 'NONE',  ( -0.000000000000000000, -0.000000000000000000, -1.000000000000000000 ) ) ;
#443 = DIRECTION ( 'NONE',  ( -0.000000000000000000, -0.000000000000000000, -1.000000000000000000 ) ) ;
#444 = EDGE_LOOP ( 'NONE', ( #786, #73, #628, #353, #314 ) ) ;
#445 = ORIENTED_EDGE ( 'NONE', *, *, #481, .T. ) ;
#446 = CARTESIAN_POINT ( 'NONE',  ( 9.031843849493382592, 0.4108624307497154571, -1.389855300699601059 ) ) ;
#447 = MECHANICAL_DESIGN_GEOMETRIC_PRESENTATION_REPRESENTATION (  '', ( #1095 ), #163 ) ;
#448 = EDGE_CURVE ( 'NONE', #675, #134, #1035, .T. ) ;
#449 = DIRECTION ( 'NONE',  ( -0.000000000000000000, -0.000000000000000000, -1.000000000000000000 ) ) ;
#450 = ORIENTED_EDGE ( 'NONE', *, *, #169, .F. ) ;
#451 = ORIENTED_EDGE ( 'NONE', *, *, #1141, .F. ) ;
#452 = LINE ( 'NONE', #92, #939 ) ;
#453 = CARTESIAN_POINT ( 'NONE',  ( 11.50000000000000000, 0.000000000000000000, 3.000000000000000000 ) ) ;
#454 = DIRECTION ( 'NONE',  ( 1.000000000000000000, 0.000000000000000000, 0.000000000000000000 ) ) ;
#455 = VECTOR ( 'NONE', #738, 1000.000000000000000 ) ;
#456 = CARTESIAN_POINT ( 'NONE',  ( 0.000000000000000000, 0.000000000000000000, -11.50000000000000000 ) ) ;
#457 = EDGE_LOOP ( 'NONE', ( #386, #897, #283, #177, #924, #29 ) ) ;
#458 = VECTOR ( 'NONE', #1054, 1000.000000000000000 ) ;
#459 = CARTESIAN_POINT ( 'NONE',  ( -7.500000000000000000, 9.184850993605147944E-16, -11.50000000000000000 ) ) ;
#460 = VECTOR ( 'NONE', #1111, 1000.000000000000000 ) ;
#461 = FACE_OUTER_BOUND ( 'NONE', #617, .T. ) ;
#462 = DIRECTION ( 'NONE',  ( -0.000000000000000000, -0.000000000000000000, 1.000000000000000000 ) ) ;
#463 = EDGE_CURVE ( 'NONE', #392, #202, #1125, .T. ) ;
#464 = DIRECTION ( 'NONE',  ( 1.000000000000000000, 0.000000000000000000, 0.000000000000000000 ) ) ;
#465 = ORIENTED_EDGE ( 'NONE', *, *, #1098, .T. ) ;
#466 = DIRECTION ( 'NONE',  ( -0.000000000000000000, -0.000000000000000000, 1.000000000000000000 ) ) ;
#467 = CARTESIAN_POINT ( 'NONE',  ( 11.49999999999999289, 6.000000000000000888, -3.469446951953614189E-15 ) ) ;
#468 = ORIENTED_EDGE ( 'NONE', *, *, #884, .T. ) ;
#469 = ADVANCED_FACE ( 'NONE', ( #572 ), #221, .T. ) ;
#470 = FACE_OUTER_BOUND ( 'NONE', #859, .T. ) ;
#471 = CARTESIAN_POINT ( 'NONE',  ( 11.49999999999999467, -8.000000000000001776, 13.00000000000000178 ) ) ;
#472 = EDGE_LOOP ( 'NONE', ( #420, #871, #192, #80, #1138 ) ) ;
#473 = VECTOR ( 'NONE', #120, 1000.000000000000000 ) ;
#474 = CARTESIAN_POINT ( 'NONE',  ( -7.500000000000000000, 9.184850993605147944E-16, -11.50000000000000000 ) ) ;
#475 = EDGE_CURVE ( 'NONE', #934, #684, #86, .T. ) ;
#476 = VECTOR ( 'NONE', #972, 1000.000000000000000 ) ;
#477 = FACE_OUTER_BOUND ( 'NONE', #1047, .T. ) ;
#478 = DIRECTION ( 'NONE',  ( 1.000000000000000000, 0.000000000000000000, 0.000000000000000000 ) ) ;
#479 = VERTEX_POINT ( 'NONE', #117 ) ;
#480 = DIRECTION ( 'NONE',  ( 0.000000000000000000, 0.000000000000000000, 1.000000000000000000 ) ) ;
#481 = EDGE_CURVE ( 'NONE', #72, #1134, #757, .T. ) ;
#482 = AXIS2_PLACEMENT_3D ( 'NONE', #1051, #501, #858 ) ;
#483 = ORIENTED_EDGE ( 'NONE', *, *, #980, .T. ) ;
#484 = CARTESIAN_POINT ( 'NONE',  ( -11.50000000000000000, 8.000000000000000000, -3.469446951953614189E-15 ) ) ;
#485 = EDGE_LOOP ( 'NONE', ( #566, #67, #57, #207 ) ) ;
#486 = CARTESIAN_POINT ( 'NONE',  ( -2.549999999999999822, -2.549999999999999822, -4.500000000000000000 ) ) ;
#487 = CYLINDRICAL_SURFACE ( 'NONE', #567, 2.500000000000000444 ) ;
#488 = DIRECTION ( 'NONE',  ( -0.000000000000000000, -0.000000000000000000, 1.000000000000000000 ) ) ;
#489 = DIRECTION ( 'NONE',  ( -0.000000000000000000, -0.000000000000000000, 1.000000000000000000 ) ) ;
#490 = ORIENTED_EDGE ( 'NONE', *, *, #227, .F. ) ;
#491 = CARTESIAN_POINT ( 'NONE',  ( -11.50000000000000711, -6.000000000000000888, -3.469446951953614189E-15 ) ) ;
#492 = CIRCLE ( 'NONE', #643, 3.499999999999999556 ) ;
#493 = CARTESIAN_POINT ( 'NONE',  ( 0.000000000000000000, 0.000000000000000000, 0.000000000000000000 ) ) ;
#494 = FACE_OUTER_BOUND ( 'NONE', #920, .T. ) ;
#495 = CYLINDRICAL_SURFACE ( 'NONE', #397, 7.500000000000000000 ) ;
#496 = TOROIDAL_SURFACE ( 'NONE', #699, 12.50000000000000000, 5.000000000000000000 ) ;
#497 = VERTEX_POINT ( 'NONE', #1116 ) ;
#498 = DIRECTION ( 'NONE',  ( -0.000000000000000000, -0.000000000000000000, -1.000000000000000000 ) ) ;
#499 = DIRECTION ( 'NONE',  ( 1.000000000000000000, 0.000000000000000000, 0.000000000000000000 ) ) ;
#500 = CIRCLE ( 'NONE', #824, 6.000000000000000888 ) ;
#501 = DIRECTION ( 'NONE',  ( -1.000000000000000000, -8.673617379884032514E-16, 0.000000000000000000 ) ) ;
#502 = VERTEX_POINT ( 'NONE', #39 ) ;
#503 = EDGE_CURVE ( 'NONE', #18, #781, #925, .T. ) ;
#504 = CARTESIAN_POINT ( 'NONE',  ( -11.50000000000000000, 8.000000000000000000, 2.000000000000000000 ) ) ;
#505 = CARTESIAN_POINT ( 'NONE',  ( 9.470345155002489079, -1.471351700205342450, -0.9353636012514907616 ) ) ;
#506 = ORIENTED_EDGE ( 'NONE', *, *, #6, .F. ) ;
#507 = CARTESIAN_POINT ( 'NONE',  ( 9.050950230581525702, 0.5119310580785850773, -1.366546503760813769 ) ) ;
#508 = CIRCLE ( 'NONE', #11, 2.500000000000000444 ) ;
#509 = EDGE_CURVE ( 'NONE', #1057, #926, #846, .T. ) ;
#510 = PLANE ( 'NONE',  #799 ) ;
#511 = CIRCLE ( 'NONE', #966, 15.72499999999999964 ) ;
#512 = LINE ( 'NONE', #912, #630 ) ;
#513 = EDGE_LOOP ( 'NONE', ( #621, #840, #878, #883, #818 ) ) ;
#514 = CIRCLE ( 'NONE', #240, 6.000000000000000888 ) ;
#515 = CARTESIAN_POINT ( 'NONE',  ( 15.00000000000000000, 0.000000000000000000, 3.000000000000000000 ) ) ;
#516 = DIRECTION ( 'NONE',  ( 1.000000000000000000, 0.000000000000000000, 0.000000000000000000 ) ) ;
#517 = EDGE_CURVE ( 'NONE', #134, #272, #851, .T. ) ;
#518 = DIRECTION ( 'NONE',  ( 1.000000000000000000, 0.000000000000000000, 0.000000000000000000 ) ) ;
#519 = EDGE_LOOP ( 'NONE', ( #725, #371, #311, #718, #317, #465 ) ) ;
#520 = AXIS2_PLACEMENT_3D ( 'NONE', #407, #1023, #1118 ) ;
#521 = CYLINDRICAL_SURFACE ( 'NONE', #667, 6.000000000000000888 ) ;
#522 = VECTOR ( 'NONE', #1085, 1000.000000000000000 ) ;
#523 = CYLINDRICAL_SURFACE ( 'NONE', #774, 8.000000000000000000 ) ;
#524 = CARTESIAN_POINT ( 'NONE',  ( 9.198972946141363849, -0.9821298050069553476, -1.199172985252040302 ) ) ;
#525 = EDGE_LOOP ( 'NONE', ( #970, #903, #139, #412 ) ) ;
#526 = CARTESIAN_POINT ( 'NONE',  ( 9.123673979690122948, 0.8017152676946996959, -1.281064171700058374 ) ) ;
#527 = DIRECTION ( 'NONE',  ( 0.000000000000000000, 0.000000000000000000, 1.000000000000000000 ) ) ;
#528 = AXIS2_PLACEMENT_3D ( 'NONE', #212, #922, #7 ) ;
#529 = LINE ( 'NONE', #607, #476 ) ;
#530 = ORIENTED_EDGE ( 'NONE', *, *, #509, .T. ) ;
#531 = ORIENTED_EDGE ( 'NONE', *, *, #403, .F. ) ;
#532 = CARTESIAN_POINT ( 'NONE',  ( -9.050950230581529254, -0.5119310580786001763, -1.366546503760809772 ) ) ;
#533 = EDGE_CURVE ( 'NONE', #610, #1062, #85, .T. ) ;
#534 = DIRECTION ( 'NONE',  ( 1.000000000000000000, 0.000000000000000000, 0.000000000000000000 ) ) ;
#535 = ORIENTED_EDGE ( 'NONE', *, *, #47, .T. ) ;
#536 = VERTEX_POINT ( 'NONE', #138 ) ;
#537 = DIRECTION ( 'NONE',  ( -1.000000000000000000, 0.000000000000000000, 0.000000000000000000 ) ) ;
#538 = ADVANCED_FACE ( 'NONE', ( #65 ), #1142, .T. ) ;
#539 = DIRECTION ( 'NONE',  ( 1.000000000000000000, 0.000000000000000000, 0.000000000000000000 ) ) ;
#540 = CARTESIAN_POINT ( 'NONE',  ( 11.50000000000000000, 0.000000000000000000, 2.000000000000000000 ) ) ;
#541 = CARTESIAN_POINT ( 'NONE',  ( 11.50000000000000000, 0.000000000000000000, 2.000000000000000000 ) ) ;
#542 = CARTESIAN_POINT ( 'NONE',  ( 0.000000000000000000, 2.725000000000001865, 0.000000000000000000 ) ) ;
#543 = VERTEX_POINT ( 'NONE', #323 ) ;
#544 = EDGE_CURVE ( 'NONE', #584, #1069, #864, .T. ) ;
#545 = CARTESIAN_POINT ( 'NONE',  ( -11.50000000000000000, 0.000000000000000000, -0.0009999999999992653654 ) ) ;
#546 = ADVANCED_FACE ( 'NONE', ( #957 ), #602, .F. ) ;
#547 = DIRECTION ( 'NONE',  ( -0.000000000000000000, -0.000000000000000000, -1.000000000000000000 ) ) ;
#548 = FACE_BOUND ( 'NONE', #997, .T. ) ;
#549 = VERTEX_POINT ( 'NONE', #149 ) ;
#550 = AXIS2_PLACEMENT_3D ( 'NONE', #215, #953, #652 ) ;
#551 = CARTESIAN_POINT ( 'NONE',  ( 11.49999999999999822, -8.000000000000000000, 3.000000000000000000 ) ) ;
#552 = AXIS2_PLACEMENT_3D ( 'NONE', #670, #489, #943 ) ;
#553 = ADVANCED_FACE ( 'NONE', ( #695 ), #975, .F. ) ;
#554 = DIRECTION ( 'NONE',  ( 1.000000000000000000, 0.000000000000000000, 0.000000000000000000 ) ) ;
#555 = CARTESIAN_POINT ( 'NONE',  ( 7.500000000000000000, 0.000000000000000000, -5.000000000000000000 ) ) ;
#556 = EDGE_LOOP ( 'NONE', ( #421, #130, #671, #1070, #336, #308, #329, #118, #58 ) ) ;
#557 = DIRECTION ( 'NONE',  ( 0.000000000000000000, 0.000000000000000000, 1.000000000000000000 ) ) ;
#558 = LINE ( 'NONE', #831, #435 ) ;
#559 = EDGE_CURVE ( 'NONE', #274, #810, #50, .T. ) ;
#560 = CARTESIAN_POINT ( 'NONE',  ( 11.49999999999999822, 8.000000000000000000, 3.000000000000000000 ) ) ;
#561 = ORIENTED_EDGE ( 'NONE', *, *, #409, .F. ) ;
#562 = ADVANCED_FACE ( 'NONE', ( #1056 ), #796, .F. ) ;
#563 = FACE_OUTER_BOUND ( 'NONE', #472, .T. ) ;
#564 = FACE_OUTER_BOUND ( 'NONE', #513, .T. ) ;
#565 = DIRECTION ( 'NONE',  ( 0.000000000000000000, 0.000000000000000000, 1.000000000000000000 ) ) ;
#566 = ORIENTED_EDGE ( 'NONE', *, *, #1019, .F. ) ;
#567 = AXIS2_PLACEMENT_3D ( 'NONE', #190, #466, #1119 ) ;
#568 = ADVANCED_FACE ( 'NONE', ( #962, #776 ), #156, .T. ) ;
#569 = LINE ( 'NONE', #1033, #816 ) ;
#570 = VECTOR ( 'NONE', #614, 1000.000000000000000 ) ;
#571 = DIRECTION ( 'NONE',  ( -0.000000000000000000, -0.000000000000000000, -1.000000000000000000 ) ) ;
#572 = FACE_OUTER_BOUND ( 'NONE', #1097, .T. ) ;
#573 = ORIENTED_EDGE ( 'NONE', *, *, #6, .T. ) ;
#574 = CARTESIAN_POINT ( 'NONE',  ( 2.549999999999999822, -2.549999999999999822, -4.500000000000000000 ) ) ;
#575 = CARTESIAN_POINT ( 'NONE',  ( -11.50000000000000178, -8.000000000000000000, 3.000000000000000000 ) ) ;
#576 = AXIS2_PLACEMENT_3D ( 'NONE', #131, #498, #860 ) ;
#577 = CARTESIAN_POINT ( 'NONE',  ( 15.00000000000000000, 0.000000000000000000, 2.000000000000000000 ) ) ;
#578 = FACE_OUTER_BOUND ( 'NONE', #1147, .T. ) ;
#579 = VERTEX_POINT ( 'NONE', #335 ) ;
#580 = LINE ( 'NONE', #281, #33 ) ;
#581 = CARTESIAN_POINT ( 'NONE',  ( -9.709590776957414349, 1.754653649459933185, -0.7465694245853462530 ) ) ;
#582 = ADVANCED_FACE ( 'NONE', ( #690 ), #595, .F. ) ;
#583 = CARTESIAN_POINT ( 'NONE',  ( 12.07266323841730760, -2.442511492527207118, -2.258754526011468213E-18 ) ) ;
#584 = VERTEX_POINT ( 'NONE', #231 ) ;
#585 = EDGE_CURVE ( 'NONE', #536, #891, #500, .T. ) ;
#586 = EDGE_LOOP ( 'NONE', ( #319, #451 ) ) ;
#587 = CARTESIAN_POINT ( 'NONE',  ( 11.49999999999999289, -6.000000000000000888, 0.000000000000000000 ) ) ;
#588 = ORIENTED_EDGE ( 'NONE', *, *, #973, .T. ) ;
#589 = DIRECTION ( 'NONE',  ( 0.000000000000000000, 0.000000000000000000, 1.000000000000000000 ) ) ;
#590 = DIRECTION ( 'NONE',  ( 1.000000000000000000, 0.000000000000000000, 0.000000000000000000 ) ) ;
#591 = EDGE_LOOP ( 'NONE', ( #226, #93 ) ) ;
#592 = CARTESIAN_POINT ( 'NONE',  ( -11.24889829572511069, -2.495530293089286200, -0.09211595224431361195 ) ) ;
#593 = EDGE_CURVE ( 'NONE', #150, #684, #780, .T. ) ;
#594 = CARTESIAN_POINT ( 'NONE',  ( 8.000000000000000000, 4.286263797015737088E-16, 2.000000000000000000 ) ) ;
#595 = PLANE ( 'NONE',  #482 ) ;
#596 = ORIENTED_EDGE ( 'NONE', *, *, #1110, .T. ) ;
#597 = CARTESIAN_POINT ( 'NONE',  ( 10.85187768085213555, 2.422944689636650661, -0.1899991235167387549 ) ) ;
#598 = EDGE_CURVE ( 'NONE', #681, #272, #512, .T. ) ;
#599 = AXIS2_PLACEMENT_3D ( 'NONE', #930, #654, #388 ) ;
#600 = AXIS2_PLACEMENT_3D ( 'NONE', #389, #753, #1132 ) ;
#601 = DIRECTION ( 'NONE',  ( 1.000000000000000000, 0.000000000000000000, -0.000000000000000000 ) ) ;
#602 = CYLINDRICAL_SURFACE ( 'NONE', #917, 8.000000000000000000 ) ;
#603 = EDGE_LOOP ( 'NONE', ( #530, #237, #1029, #99 ) ) ;
#604 = VERTEX_POINT ( 'NONE', #467 ) ;
#605 = AXIS2_PLACEMENT_3D ( 'NONE', #302, #565, #854 ) ;
#606 = CARTESIAN_POINT ( 'NONE',  ( -9.000000000000000000, 1.845383755996413229E-11, -1.429285785728575675 ) ) ;
#607 = CARTESIAN_POINT ( 'NONE',  ( 3.499999999999999556, 0.000000000000000000, 13.00000000000000178 ) ) ;
#608 = ORIENTED_EDGE ( 'NONE', *, *, #615, .F. ) ;
#609 = CARTESIAN_POINT ( 'NONE',  ( -11.50000000000000000, 0.000000000000000000, 13.00000000000000178 ) ) ;
#610 = VERTEX_POINT ( 'NONE', #895 ) ;
#611 = VECTOR ( 'NONE', #971, 1000.000000000000000 ) ;
#612 = CARTESIAN_POINT ( 'NONE',  ( -10.85187768085214088, -2.422944689636651550, -0.1899991235167376724 ) ) ;
#613 = CARTESIAN_POINT ( 'NONE',  ( -11.50000000000000533, 6.000000000000000888, 2.000000000000000000 ) ) ;
#614 = DIRECTION ( 'NONE',  ( -0.000000000000000000, -0.000000000000000000, -1.000000000000000000 ) ) ;
#615 = EDGE_CURVE ( 'NONE', #1062, #810, #116, .T. ) ;
#616 = CARTESIAN_POINT ( 'NONE',  ( 9.000000000000000000, -1.847130140338335961E-11, -1.429285785728575897 ) ) ;
#617 = EDGE_LOOP ( 'NONE', ( #1129, #789, #40, #191 ) ) ;
#618 = PLANE ( 'NONE',  #974 ) ;
#619 = DIRECTION ( 'NONE',  ( -0.000000000000000000, -0.000000000000000000, 1.000000000000000000 ) ) ;
#620 = FACE_OUTER_BOUND ( 'NONE', #337, .T. ) ;
#621 = ORIENTED_EDGE ( 'NONE', *, *, #940, .F. ) ;
#622 = CLOSED_SHELL ( 'NONE', ( #469, #672, #960, #316, #390, #372, #562, #1003, #1155, #260, #568, #297, #1177, #294, #899, #1081, #20, #546, #1013, #931, #538, #836, #743, #632, #748, #553, #36, #248, #428, #178, #582, #112, #991, #726, #682, #754 ) ) ;
#623 = EDGE_CURVE ( 'NONE', #497, #1154, #906, .T. ) ;
#624 = DIRECTION ( 'NONE',  ( 0.000000000000000000, -1.000000000000000000, 0.000000000000000000 ) ) ;
#625 = AXIS2_PLACEMENT_3D ( 'NONE', #715, #1158, #987 ) ;
#626 = CARTESIAN_POINT ( 'NONE',  ( -11.50000000000000000, 0.000000000000000000, 2.000000000000000000 ) ) ;
#627 = CARTESIAN_POINT ( 'NONE',  ( 11.50000000000000000, 0.000000000000000000, 0.000000000000000000 ) ) ;
#628 = ORIENTED_EDGE ( 'NONE', *, *, #418, .F. ) ;
#629 =( NAMED_UNIT ( * ) PLANE_ANGLE_UNIT ( ) SI_UNIT ( $, .RADIAN. ) );
#630 = VECTOR ( 'NONE', #443, 1000.000000000000000 ) ;
#631 = VECTOR ( 'NONE', #168, 1000.000000000000000 ) ;
#632 = ADVANCED_FACE ( 'NONE', ( #461 ), #1089, .F. ) ;
#633 = PLANE ( 'NONE',  #217 ) ;
#634 = B_SPLINE_CURVE_WITH_KNOTS ( 'NONE', 3,
 ( #1034, #853, #679, #137, #27, #764, #749, #115, #122, #21, #581, #133, #399, #293, #38, #947, #404, #933, #206, #383, #1027, #956 ),
 .UNSPECIFIED., .F., .F.,
 ( 4, 2, 2, 2, 2, 2, 2, 2, 2, 2, 4 ),
 ( 0.000000000000000000, 0.0006190334281342700683, 0.001238066856268540137, 0.001857100284402810313, 0.002476133712537080273, 0.003095167140671350233, 0.003714200568805620627, 0.004023717282872754306, 0.004333233996939887984, 0.004642750711007021663, 0.004952267425074156210 ),
 .UNSPECIFIED. ) ;
#635 = DIRECTION ( 'NONE',  ( 0.000000000000000000, -1.000000000000000000, 0.000000000000000000 ) ) ;
#636 = LINE ( 'NONE', #727, #631 ) ;
#637 = ORIENTED_EDGE ( 'NONE', *, *, #448, .F. ) ;
#638 = EDGE_CURVE ( 'NONE', #222, #1069, #687, .T. ) ;
#639 = CARTESIAN_POINT ( 'NONE',  ( -11.50000000000000178, -8.000000000000000000, 2.000000000000000000 ) ) ;
#640 = CARTESIAN_POINT ( 'NONE',  ( 2.549999999999999822, 2.549999999999999822, -4.500000000000000000 ) ) ;
#641 = PLANE ( 'NONE',  #400 ) ;
#642 = ORIENTED_EDGE ( 'NONE', *, *, #305, .F. ) ;
#643 = AXIS2_PLACEMENT_3D ( 'NONE', #1090, #650, #739 ) ;
#644 = CARTESIAN_POINT ( 'NONE',  ( -12.27173913043478315, -2.377902166733476985, 0.000000000000000000 ) ) ;
#645 = AXIS2_PLACEMENT_3D ( 'NONE', #124, #194, #310 ) ;
#646 = ORIENTED_EDGE ( 'NONE', *, *, #1110, .F. ) ;
#647 = CARTESIAN_POINT ( 'NONE',  ( 2.549999999999999822, 2.549999999999999822, -11.50000000000000000 ) ) ;
#648 = ORIENTED_EDGE ( 'NONE', *, *, #1093, .T. ) ;
#649 = DIRECTION ( 'NONE',  ( -0.000000000000000000, -0.000000000000000000, 1.000000000000000000 ) ) ;
#650 = DIRECTION ( 'NONE',  ( 0.000000000000000000, 0.000000000000000000, 1.000000000000000000 ) ) ;
#651 = EDGE_CURVE ( 'NONE', #1084, #731, #1130, .T. ) ;
#652 = DIRECTION ( 'NONE',  ( 1.000000000000000000, 0.000000000000000000, 0.000000000000000000 ) ) ;
#653 = ORIENTED_EDGE ( 'NONE', *, *, #638, .T. ) ;
#654 = DIRECTION ( 'NONE',  ( -0.000000000000000000, -0.000000000000000000, -1.000000000000000000 ) ) ;
#655 = CARTESIAN_POINT ( 'NONE',  ( -11.50000000000000000, 0.000000000000000000, 0.000000000000000000 ) ) ;
#656 = DIRECTION ( 'NONE',  ( -0.000000000000000000, -0.000000000000000000, -1.000000000000000000 ) ) ;
#657 = ORIENTED_EDGE ( 'NONE', *, *, #475, .F. ) ;
#658 = VECTOR ( 'NONE', #894, 1000.000000000000000 ) ;
#659 = EDGE_CURVE ( 'NONE', #1154, #781, #265, .T. ) ;
#660 = CARTESIAN_POINT ( 'NONE',  ( -14.00000000000000000, 3.061616997868383141E-16, -0.0009999999999992653654 ) ) ;
#661 = CIRCLE ( 'NONE', #340, 3.499999999999999556 ) ;
#662 = CARTESIAN_POINT ( 'NONE',  ( 11.49999999999999289, 6.000000000000000888, -11.50099999999999945 ) ) ;
#663 = CARTESIAN_POINT ( 'NONE',  ( 2.549999999999999822, -2.549999999999999822, -11.50000000000000000 ) ) ;
#664 = VERTEX_POINT ( 'NONE', #491 ) ;
#665 = CARTESIAN_POINT ( 'NONE',  ( 11.50000000000000000, 0.000000000000000000, 13.00000000000000178 ) ) ;
#666 = EDGE_CURVE ( 'NONE', #35, #740, #325, .T. ) ;
#667 = AXIS2_PLACEMENT_3D ( 'NONE', #140, #1144, #346 ) ;
#668 = AXIS2_PLACEMENT_3D ( 'NONE', #542, #1178, #1000 ) ;
#669 = DIRECTION ( 'NONE',  ( 1.000000000000000000, 0.000000000000000000, 0.000000000000000000 ) ) ;
#670 = CARTESIAN_POINT ( 'NONE',  ( 11.50000000000000000, 0.000000000000000000, -11.50099999999999945 ) ) ;
#671 = ORIENTED_EDGE ( 'NONE', *, *, #287, .F. ) ;
#672 = ADVANCED_FACE ( 'NONE', ( #387 ), #46, .T. ) ;
#673 = CARTESIAN_POINT ( 'NONE',  ( -11.50000000000000178, -8.000000000000000000, 0.000000000000000000 ) ) ;
#674 = DIRECTION ( 'NONE',  ( 1.000000000000000000, 0.000000000000000000, 0.000000000000000000 ) ) ;
#675 = VERTEX_POINT ( 'NONE', #574 ) ;
#676 = AXIS2_PLACEMENT_3D ( 'NONE', #792, #1157, #440 ) ;
#677 = CIRCLE ( 'NONE', #771, 8.000000000000000000 ) ;
#678 = AXIS2_PLACEMENT_3D ( 'NONE', #747, #557, #1113 ) ;
#679 = CARTESIAN_POINT ( 'NONE',  ( -11.87007094446892985, 2.481039588391100725, -0.009976939661269718443 ) ) ;
#680 = VECTOR ( 'NONE', #1043, 1000.000000000000000 ) ;
#681 = VERTEX_POINT ( 'NONE', #486 ) ;
#682 = ADVANCED_FACE ( 'NONE', ( #959 ), #521, .T. ) ;
#683 = DIRECTION ( 'NONE',  ( 1.000000000000000000, 0.000000000000000000, -0.000000000000000000 ) ) ;
#684 = VERTEX_POINT ( 'NONE', #515 ) ;
#685 = CARTESIAN_POINT ( 'NONE',  ( -10.14195041144068199, -2.107242675157924516, -0.4779771644701401034 ) ) ;
#686 = LINE ( 'NONE', #148, #458 ) ;
#687 = CIRCLE ( 'NONE', #842, 3.499999999999999556 ) ;
#688 = VERTEX_POINT ( 'NONE', #713 ) ;
#689 = AXIS2_PLACEMENT_3D ( 'NONE', #456, #1106, #537 ) ;
#690 = FACE_OUTER_BOUND ( 'NONE', #603, .T. ) ;
#691 = ORIENTED_EDGE ( 'NONE', *, *, #322, .F. ) ;
#692 = EDGE_CURVE ( 'NONE', #926, #736, #309, .T. ) ;
#693 = CARTESIAN_POINT ( 'NONE',  ( -9.193945312990120300, -0.9837005781123324688, -1.202026303332850876 ) ) ;
#694 = CARTESIAN_POINT ( 'NONE',  ( 0.000000000000000000, 0.000000000000000000, -5.000000000000000000 ) ) ;
#695 = FACE_OUTER_BOUND ( 'NONE', #855, .T. ) ;
#696 = ORIENTED_EDGE ( 'NONE', *, *, #503, .T. ) ;
#697 = ORIENTED_EDGE ( 'NONE', *, *, #1149, .F. ) ;
#698 = LINE ( 'NONE', #1064, #611 ) ;
#699 = AXIS2_PLACEMENT_3D ( 'NONE', #694, #142, #327 ) ;
#700 = FACE_BOUND ( 'NONE', #586, .T. ) ;
#701 = CIRCLE ( 'NONE', #678, 3.499999999999999556 ) ;
#702 = CARTESIAN_POINT ( 'NONE',  ( 9.032263518103512467, -0.4133528439881146710, -1.389342603327690995 ) ) ;
#703 = ORIENTED_EDGE ( 'NONE', *, *, #332, .T. ) ;
#704 = AXIS2_PLACEMENT_3D ( 'NONE', #1045, #488, #669 ) ;
#705 = CARTESIAN_POINT ( 'NONE',  ( -8.999999999999237943, -0.1036172112700406434, -1.429285785729533353 ) ) ;
#706 = EDGE_CURVE ( 'NONE', #988, #1063, #278, .T. ) ;
#707 = DIRECTION ( 'NONE',  ( 1.000000000000000000, 0.000000000000000000, 0.000000000000000000 ) ) ;
#708 = DIRECTION ( 'NONE',  ( 0.000000000000000000, 0.000000000000000000, 1.000000000000000000 ) ) ;
#709 = CARTESIAN_POINT ( 'NONE',  ( 10.30923826147105693, -2.206742305224205225, -0.3945424325008657362 ) ) ;
#710 = ORIENTED_EDGE ( 'NONE', *, *, #409, .T. ) ;
#711 = ORIENTED_EDGE ( 'NONE', *, *, #791, .F. ) ;
#712 = VECTOR ( 'NONE', #184, 1000.000000000000000 ) ;
#713 = CARTESIAN_POINT ( 'NONE',  ( 11.49999999999999467, 8.000000000000001776, 2.000000000000000000 ) ) ;
#714 = CARTESIAN_POINT ( 'NONE',  ( 8.000000000000000000, 4.286263797015737088E-16, 3.000000000000000000 ) ) ;
#715 = CARTESIAN_POINT ( 'NONE',  ( 11.50000000000000000, 0.000000000000000000, 2.000000000000000000 ) ) ;
#716 = EDGE_CURVE ( 'NONE', #1062, #549, #333, .T. ) ;
#717 = DIRECTION ( 'NONE',  ( -0.000000000000000000, -0.000000000000000000, -1.000000000000000000 ) ) ;
#718 = ORIENTED_EDGE ( 'NONE', *, *, #980, .F. ) ;
#719 = ORIENTED_EDGE ( 'NONE', *, *, #732, .T. ) ;
#720 = FACE_OUTER_BOUND ( 'NONE', #872, .T. ) ;
#721 = CARTESIAN_POINT ( 'NONE',  ( -9.000000000000000000, 1.845383755996413229E-11, -1.429285785728575675 ) ) ;
#722 = VECTOR ( 'NONE', #348, 1000.000000000000000 ) ;
#723 = DIRECTION ( 'NONE',  ( 1.000000000000000000, 0.000000000000000000, 0.000000000000000000 ) ) ;
#724 = DIRECTION ( 'NONE',  ( 0.000000000000000000, 0.000000000000000000, 1.000000000000000000 ) ) ;
#725 = ORIENTED_EDGE ( 'NONE', *, *, #773, .T. ) ;
#726 = ADVANCED_FACE ( 'NONE', ( #964 ), #618, .F. ) ;
#727 = CARTESIAN_POINT ( 'NONE',  ( 11.49999999999999289, -6.000000000000000888, -11.50099999999999945 ) ) ;
#728 = AXIS2_PLACEMENT_3D ( 'NONE', #129, #391, #674 ) ;
#729 = FACE_OUTER_BOUND ( 'NONE', #444, .T. ) ;
#730 = DIRECTION ( 'NONE',  ( 1.000000000000000000, 0.000000000000000000, 0.000000000000000000 ) ) ;
#731 = VERTEX_POINT ( 'NONE', #331 ) ;
#732 = EDGE_CURVE ( 'NONE', #604, #543, #698, .T. ) ;
#733 = CYLINDRICAL_SURFACE ( 'NONE', #1136, 8.000000000000000000 ) ;
#734 = DIRECTION ( 'NONE',  ( 1.000000000000000000, -8.881784197001250351E-16, 0.000000000000000000 ) ) ;
#735 = CARTESIAN_POINT ( 'NONE',  ( 11.50000000000000000, 0.000000000000000000, 3.000000000000000000 ) ) ;
#736 = VERTEX_POINT ( 'NONE', #152 ) ;
#737 = PRODUCT_DEFINITION ( 'UNKNOWN', '', #362, #155 ) ;
#738 = DIRECTION ( 'NONE',  ( 0.000000000000000000, 1.000000000000000000, 0.000000000000000000 ) ) ;
#739 = DIRECTION ( 'NONE',  ( 1.000000000000000000, 0.000000000000000000, 0.000000000000000000 ) ) ;
#740 = VERTEX_POINT ( 'NONE', #429 ) ;
#741 = AXIS2_PLACEMENT_3D ( 'NONE', #8, #2, #90 ) ;
#742 = LINE ( 'NONE', #575, #795 ) ;
#743 = ADVANCED_FACE ( 'NONE', ( #790 ), #763, .F. ) ;
#744 = DIRECTION ( 'NONE',  ( 1.000000000000000000, 0.000000000000000000, 0.000000000000000000 ) ) ;
#745 = DIRECTION ( 'NONE',  ( 0.000000000000000000, 0.000000000000000000, 1.000000000000000000 ) ) ;
#746 = ORIENTED_EDGE ( 'NONE', *, *, #82, .T. ) ;
#747 = CARTESIAN_POINT ( 'NONE',  ( 11.50000000000000000, 0.000000000000000000, 2.000000000000000000 ) ) ;
#748 = ADVANCED_FACE ( 'NONE', ( #370 ), #641, .F. ) ;
#749 = CARTESIAN_POINT ( 'NONE',  ( -10.66387704272343662, 2.364005820620119991, -0.2509619905777321636 ) ) ;
#750 = CARTESIAN_POINT ( 'NONE',  ( 2.549999999999999822, 2.549999999999999822, -4.500000000000000000 ) ) ;
#751 = ORIENTED_EDGE ( 'NONE', *, *, #921, .F. ) ;
#752 = CARTESIAN_POINT ( 'NONE',  ( 9.000000000000000000, -1.847130140338335961E-11, -1.429285785728575897 ) ) ;
#753 = DIRECTION ( 'NONE',  ( 0.000000000000000000, 0.000000000000000000, 1.000000000000000000 ) ) ;
#754 = ADVANCED_FACE ( 'NONE', ( #354 ), #822, .F. ) ;
#755 = DIRECTION ( 'NONE',  ( -0.000000000000000000, -0.000000000000000000, -1.000000000000000000 ) ) ;
#756 = ORIENTED_EDGE ( 'NONE', *, *, #876, .T. ) ;
#757 = CIRCLE ( 'NONE', #550, 6.000000000000001776 ) ;
#758 = DIRECTION ( 'NONE',  ( -0.000000000000000000, -0.000000000000000000, -1.000000000000000000 ) ) ;
#759 = CARTESIAN_POINT ( 'NONE',  ( 0.000000000000000000, 0.000000000000000000, -11.50000000000000000 ) ) ;
#760 = DIRECTION ( 'NONE',  ( 1.000000000000000000, 0.000000000000000000, 0.000000000000000000 ) ) ;
#761 = ORIENTED_EDGE ( 'NONE', *, *, #463, .F. ) ;
#762 = EDGE_CURVE ( 'NONE', #688, #543, #103, .T. ) ;
#763 = TOROIDAL_SURFACE ( 'NONE', #1074, 12.50000000000000000, 5.000000000000000000 ) ;
#764 = CARTESIAN_POINT ( 'NONE',  ( -10.85662890035255579, 2.424124391816906421, -0.1886449608995841576 ) ) ;
#765 = CARTESIAN_POINT ( 'NONE',  ( 11.45860403778425685, -2.508145992045966111, -0.05565048259115813745 ) ) ;
#766 = ORIENTED_EDGE ( 'NONE', *, *, #1050, .F. ) ;
#767 = EDGE_CURVE ( 'NONE', #926, #502, #636, .T. ) ;
#768 = CARTESIAN_POINT ( 'NONE',  ( 9.000000000000000000, 3.061616997868382648E-16, 3.000000000000000000 ) ) ;
#769 = CARTESIAN_POINT ( 'NONE',  ( 9.843435320765793861, -1.881785594531985684, -0.6534196511704019050 ) ) ;
#770 = ORIENTED_EDGE ( 'NONE', *, *, #418, .T. ) ;
#771 = AXIS2_PLACEMENT_3D ( 'NONE', #1109, #901, #730 ) ;
#772 = DIRECTION ( 'NONE',  ( 0.000000000000000000, -0.000000000000000000, 1.000000000000000000 ) ) ;
#773 = EDGE_CURVE ( 'NONE', #232, #1057, #211, .T. ) ;
#774 = AXIS2_PLACEMENT_3D ( 'NONE', #880, #64, #979 ) ;
#775 = ORIENTED_EDGE ( 'NONE', *, *, #438, .T. ) ;
#776 = FACE_OUTER_BOUND ( 'NONE', #591, .T. ) ;
#777 = ORIENTED_EDGE ( 'NONE', *, *, #893, .T. ) ;
#778 = CARTESIAN_POINT ( 'NONE',  ( -9.708371465623431007, -1.753330050848326715, -0.7474846473642078326 ) ) ;
#779 = CARTESIAN_POINT ( 'NONE',  ( -11.50000000000000000, 0.000000000000000000, 0.000000000000000000 ) ) ;
#780 = LINE ( 'NONE', #144, #96 ) ;
#781 = VERTEX_POINT ( 'NONE', #647 ) ;
#782 = EDGE_LOOP ( 'NONE', ( #703, #1161, #865, #788 ) ) ;
#783 = PRESENTATION_LAYER_ASSIGNMENT (  '', '', ( #1095 ) ) ;
#784 = CARTESIAN_POINT ( 'NONE',  ( 12.07240395215313988, 2.442595642900956765, 4.038653092508503228E-15 ) ) ;
#785 = LINE ( 'NONE', #1073, #132 ) ;
#786 = ORIENTED_EDGE ( 'NONE', *, *, #282, .T. ) ;
#787 = DIRECTION ( 'NONE',  ( 0.000000000000000000, 0.000000000000000000, -1.000000000000000000 ) ) ;
#788 = ORIENTED_EDGE ( 'NONE', *, *, #593, .F. ) ;
#789 = ORIENTED_EDGE ( 'NONE', *, *, #623, .F. ) ;
#790 = FACE_OUTER_BOUND ( 'NONE', #62, .T. ) ;
#791 = EDGE_CURVE ( 'NONE', #1008, #274, #25, .T. ) ;
#792 = CARTESIAN_POINT ( 'NONE',  ( 5.750000000000000000, -1.362500000000010481, 13.00000000000000178 ) ) ;
#793 = AXIS2_PLACEMENT_3D ( 'NONE', #821, #358, #724 ) ;
#794 = FACE_OUTER_BOUND ( 'NONE', #376, .T. ) ;
#795 = VECTOR ( 'NONE', #918, 1000.000000000000000 ) ;
#796 = CYLINDRICAL_SURFACE ( 'NONE', #22, 2.500000000000000444 ) ;
#797 = ORIENTED_EDGE ( 'NONE', *, *, #884, .F. ) ;
#798 = EDGE_LOOP ( 'NONE', ( #775, #181, #45, #216 ) ) ;
#799 = AXIS2_PLACEMENT_3D ( 'NONE', #1140, #772, #601 ) ;
#800 = CARTESIAN_POINT ( 'NONE',  ( 9.367584541579722313, 1.318468566007171994, -1.028979378636692088 ) ) ;
#801 = LINE ( 'NONE', #911, #658 ) ;
#802 = LINE ( 'NONE', #1067, #303 ) ;
#803 = CARTESIAN_POINT ( 'NONE',  ( -12.27173913043478315, 2.377902166733476985, 0.000000000000000000 ) ) ;
#804 = EDGE_LOOP ( 'NONE', ( #125, #161, #483, #823, #324 ) ) ;
#805 = CARTESIAN_POINT ( 'NONE',  ( -9.123673979690130054, -0.8017152676947127965, -1.281064171700052823 ) ) ;
#806 = CARTESIAN_POINT ( 'NONE',  ( -1.734723475976807094E-15, 2.725000000000031175, 13.00000000000000178 ) ) ;
#807 = EDGE_CURVE ( 'NONE', #345, #934, #361, .T. ) ;
#808 = DIRECTION ( 'NONE',  ( 0.000000000000000000, 0.000000000000000000, 1.000000000000000000 ) ) ;
#809 = ORIENTED_EDGE ( 'NONE', *, *, #1141, .T. ) ;
#810 = VERTEX_POINT ( 'NONE', #555 ) ;
#811 = FILL_AREA_STYLE_COLOUR ( '', #424 ) ;
#812 = CARTESIAN_POINT ( 'NONE',  ( 11.49999999999999467, 8.000000000000001776, -11.50099999999999945 ) ) ;
#813 = AXIS2_PLACEMENT_3D ( 'NONE', #806, #355, #534 ) ;
#814 = EDGE_CURVE ( 'NONE', #684, #934, #3, .T. ) ;
#815 = LINE ( 'NONE', #1121, #927 ) ;
#816 = VECTOR ( 'NONE', #1010, 1000.000000000000000 ) ;
#817 =( NAMED_UNIT ( * ) SI_UNIT ( $, .STERADIAN. ) SOLID_ANGLE_UNIT ( ) );
#818 = ORIENTED_EDGE ( 'NONE', *, *, #973, .F. ) ;
#819 = AXIS2_PLACEMENT_3D ( 'NONE', #759, #199, #218 ) ;
#820 = LINE ( 'NONE', #1087, #886 ) ;
#821 = CARTESIAN_POINT ( 'NONE',  ( 2.549999999999999822, 2.549999999999999822, -4.500000000000000000 ) ) ;
#822 = PLANE ( 'NONE',  #42 ) ;
#823 = ORIENTED_EDGE ( 'NONE', *, *, #666, .T. ) ;
#824 = AXIS2_PLACEMENT_3D ( 'NONE', #225, #419, #590 ) ;
#825 = CARTESIAN_POINT ( 'NONE',  ( -2.549999999999999822, -2.549999999999999822, -4.500000000000000000 ) ) ;
#826 = CARTESIAN_POINT ( 'NONE',  ( 0.000000000000000000, 0.000000000000000000, -5.000000000000000000 ) ) ;
#827 = PRESENTATION_STYLE_ASSIGNMENT (( #273 ) ) ;
#828 = ORIENTED_EDGE ( 'NONE', *, *, #762, .F. ) ;
#829 = DIRECTION ( 'NONE',  ( 1.000000000000000000, 0.000000000000000000, -0.000000000000000000 ) ) ;
#830 = AXIS2_PLACEMENT_3D ( 'NONE', #1169, #1099, #246 ) ;
#831 = CARTESIAN_POINT ( 'NONE',  ( 11.49999999999999822, -8.000000000000000000, 3.000000000000000000 ) ) ;
#832 = CARTESIAN_POINT ( 'NONE',  ( 10.66387704272344195, -2.364005820620122211, -0.2509619905777307203 ) ) ;
#833 = ORIENTED_EDGE ( 'NONE', *, *, #154, .T. ) ;
#834 = CIRCLE ( 'NONE', #741, 12.50000000000000000 ) ;
#835 = CIRCLE ( 'NONE', #728, 2.500000000000000444 ) ;
#836 = ADVANCED_FACE ( 'NONE', ( #548, #720 ), #279, .T. ) ;
#837 = CARTESIAN_POINT ( 'NONE',  ( 11.50000000000000000, 0.000000000000000000, 13.00000000000000178 ) ) ;
#838 = LINE ( 'NONE', #662, #1139 ) ;
#839 = LINE ( 'NONE', #948, #460 ) ;
#840 = ORIENTED_EDGE ( 'NONE', *, *, #716, .T. ) ;
#841 = DIRECTION ( 'NONE',  ( 1.000000000000000000, -0.000000000000000000, -0.000000000000000000 ) ) ;
#842 = AXIS2_PLACEMENT_3D ( 'NONE', #173, #808, #1171 ) ;
#843 = CARTESIAN_POINT ( 'NONE',  ( 3.499999999999997780, 0.000000000000000000, 2.000000000000000000 ) ) ;
#844 = CARTESIAN_POINT ( 'NONE',  ( -14.00000000000000000, 3.061616997868382648E-16, 0.000000000000000000 ) ) ;
#845 = EDGE_CURVE ( 'NONE', #736, #1134, #1174, .T. ) ;
#846 = LINE ( 'NONE', #587, #394 ) ;
#847 = ORIENTED_EDGE ( 'NONE', *, *, #533, .F. ) ;
#848 = PLANE ( 'NONE',  #52 ) ;
#849 = LINE ( 'NONE', #300, #1065 ) ;
#850 = EDGE_CURVE ( 'NONE', #664, #536, #452, .T. ) ;
#851 = LINE ( 'NONE', #663, #680 ) ;
#852 = EDGE_LOOP ( 'NONE', ( #1042, #833, #797, #608, #847, #296 ) ) ;
#853 = CARTESIAN_POINT ( 'NONE',  ( -12.07266323841730760, 2.442511492527207562, -2.258754526011471294E-18 ) ) ;
#854 = DIRECTION ( 'NONE',  ( -1.000000000000000000, 0.000000000000000000, 0.000000000000000000 ) ) ;
#855 = EDGE_LOOP ( 'NONE', ( #162, #637, #646, #696 ) ) ;
#856 = AXIS2_PLACEMENT_3D ( 'NONE', #249, #235, #969 ) ;
#857 = DIRECTION ( 'NONE',  ( -0.000000000000000000, -0.000000000000000000, -1.000000000000000000 ) ) ;
#858 = DIRECTION ( 'NONE',  ( 8.673617379884032514E-16, -1.000000000000000000, 0.000000000000000000 ) ) ;
#859 = EDGE_LOOP ( 'NONE', ( #251, #1021, #1031, #963 ) ) ;
#860 = DIRECTION ( 'NONE',  ( 1.000000000000000000, 0.000000000000000000, 0.000000000000000000 ) ) ;
#861 = MANIFOLD_SOLID_BREP ( 'Wytnij-wyci\X2\0105\X0\gni\X2\0119\X0\cie4', #622 ) ;
#862 = DIRECTION ( 'NONE',  ( -0.000000000000000000, -0.000000000000000000, -1.000000000000000000 ) ) ;
#863 = EDGE_LOOP ( 'NONE', ( #1001, #157, #928, #136 ) ) ;
#864 = LINE ( 'NONE', #328, #1166 ) ;
#865 = ORIENTED_EDGE ( 'NONE', *, *, #814, .F. ) ;
#866 = VECTOR ( 'NONE', #113, 1000.000000000000000 ) ;
#867 = CARTESIAN_POINT ( 'NONE',  ( 10.66346346251804000, 2.364019681469752943, -0.2510085368896279867 ) ) ;
#868 = LINE ( 'NONE', #417, #91 ) ;
#869 = VECTOR ( 'NONE', #1046, 1000.000000000000000 ) ;
#870 = CARTESIAN_POINT ( 'NONE',  ( 2.549999999999999822, -2.549999999999999822, -4.500000000000000000 ) ) ;
#871 = ORIENTED_EDGE ( 'NONE', *, *, #128, .T. ) ;
#872 = EDGE_LOOP ( 'NONE', ( #1117, #1143 ) ) ;
#873 = DIRECTION ( 'NONE',  ( 1.000000000000000000, 0.000000000000000000, 0.000000000000000000 ) ) ;
#874 = CARTESIAN_POINT ( 'NONE',  ( -2.549999999999999822, -2.549999999999999822, -11.50000000000000000 ) ) ;
#875 = AXIS2_PLACEMENT_3D ( 'NONE', #1082, #1005, #256 ) ;
#876 = EDGE_CURVE ( 'NONE', #202, #244, #182, .T. ) ;
#877 = DIRECTION ( 'NONE',  ( -0.000000000000000000, -0.000000000000000000, 1.000000000000000000 ) ) ;
#878 = ORIENTED_EDGE ( 'NONE', *, *, #55, .T. ) ;
#879 = CARTESIAN_POINT ( 'NONE',  ( -10.30542062448974150, -2.204849779128768006, -0.3962103902471184047 ) ) ;
#880 = CARTESIAN_POINT ( 'NONE',  ( 11.50000000000000000, 0.000000000000000000, 13.00000000000000178 ) ) ;
#881 = CARTESIAN_POINT ( 'NONE',  ( 9.366887543843210651, -1.317100021231362383, -1.029678689569970551 ) ) ;
#882 = ORIENTED_EDGE ( 'NONE', *, *, #845, .F. ) ;
#883 = ORIENTED_EDGE ( 'NONE', *, *, #75, .T. ) ;
#884 = EDGE_CURVE ( 'NONE', #810, #398, #985, .T. ) ;
#885 = CARTESIAN_POINT ( 'NONE',  ( 9.006416077224265848, 0.2064992502639941274, -1.421186700345022258 ) ) ;
#886 = VECTOR ( 'NONE', #986, 1000.000000000000000 ) ;
#887 = FACE_OUTER_BOUND ( 'NONE', #427, .T. ) ;
#888 = VECTOR ( 'NONE', #1100, 1000.000000000000000 ) ;
#889 = PLANE ( 'NONE',  #109 ) ;
#890 = ORIENTED_EDGE ( 'NONE', *, *, #213, .F. ) ;
#891 = VERTEX_POINT ( 'NONE', #613 ) ;
#892 = CARTESIAN_POINT ( 'NONE',  ( 12.27173913043478315, 2.377902166733476985, 0.000000000000000000 ) ) ;
#893 = EDGE_CURVE ( 'NONE', #497, #18, #801, .T. ) ;
#894 = DIRECTION ( 'NONE',  ( 1.000000000000000000, -0.000000000000000000, -0.000000000000000000 ) ) ;
#895 = CARTESIAN_POINT ( 'NONE',  ( 12.27173913043478315, -2.377902166733476985, 0.000000000000000000 ) ) ;
#896 = ORIENTED_EDGE ( 'NONE', *, *, #403, .T. ) ;
#897 = ORIENTED_EDGE ( 'NONE', *, *, #41, .T. ) ;
#898 = DIRECTION ( 'NONE',  ( 0.000000000000000000, 0.000000000000000000, 1.000000000000000000 ) ) ;
#899 = ADVANCED_FACE ( 'NONE', ( #1002, #1079 ), #633, .F. ) ;
#900 = FACE_OUTER_BOUND ( 'NONE', #236, .T. ) ;
#901 = DIRECTION ( 'NONE',  ( -0.000000000000000000, -0.000000000000000000, -1.000000000000000000 ) ) ;
#902 =( LENGTH_UNIT ( ) NAMED_UNIT ( * ) SI_UNIT ( .MILLI., .METRE. ) );
#903 = ORIENTED_EDGE ( 'NONE', *, *, #1098, .F. ) ;
#904 = DIRECTION ( 'NONE',  ( -0.000000000000000000, -0.000000000000000000, 1.000000000000000000 ) ) ;
#905 = AXIS2_PLACEMENT_3D ( 'NONE', #1128, #108, #760 ) ;
#906 = LINE ( 'NONE', #351, #208 ) ;
#907 = DIRECTION ( 'NONE',  ( 1.000000000000000000, 0.000000000000000000, 0.000000000000000000 ) ) ;
#908 = CARTESIAN_POINT ( 'NONE',  ( 0.000000000000000000, 0.000000000000000000, -11.50000000000000000 ) ) ;
#909 = ORIENTED_EDGE ( 'NONE', *, *, #651, .F. ) ;
#910 = CIRCLE ( 'NONE', #645, 8.000000000000003553 ) ;
#911 = CARTESIAN_POINT ( 'NONE',  ( 2.549999999999999822, 2.549999999999999822, -4.500000000000000000 ) ) ;
#912 = CARTESIAN_POINT ( 'NONE',  ( -2.549999999999999822, -2.549999999999999822, -4.500000000000000000 ) ) ;
#913 = CARTESIAN_POINT ( 'NONE',  ( 11.50000000000000000, 0.000000000000000000, -11.50099999999999945 ) ) ;
#914 = EDGE_CURVE ( 'NONE', #35, #731, #992, .T. ) ;
#915 = CARTESIAN_POINT ( 'NONE',  ( 2.549999999999999822, -2.549999999999999822, -4.500000000000000000 ) ) ;
#916 = ORIENTED_EDGE ( 'NONE', *, *, #651, .T. ) ;
#917 = AXIS2_PLACEMENT_3D ( 'NONE', #609, #61, #405 ) ;
#918 = DIRECTION ( 'NONE',  ( -0.000000000000000000, -0.000000000000000000, -1.000000000000000000 ) ) ;
#919 = CARTESIAN_POINT ( 'NONE',  ( -11.50000000000000000, 0.000000000000000000, 2.000000000000000000 ) ) ;
#920 = EDGE_LOOP ( 'NONE', ( #954, #809, #1168, #657 ) ) ;
#921 = EDGE_CURVE ( 'NONE', #781, #134, #820, .T. ) ;
#922 = DIRECTION ( 'NONE',  ( 0.000000000000000000, 0.000000000000000000, 1.000000000000000000 ) ) ;
#923 = CIRCLE ( 'NONE', #360, 8.000000000000000000 ) ;
#924 = ORIENTED_EDGE ( 'NONE', *, *, #170, .T. ) ;
#925 = LINE ( 'NONE', #750, #238 ) ;
#926 = VERTEX_POINT ( 'NONE', #76 ) ;
#927 = VECTOR ( 'NONE', #857, 1000.000000000000000 ) ;
#928 = ORIENTED_EDGE ( 'NONE', *, *, #585, .T. ) ;
#929 = CIRCLE ( 'NONE', #1009, 2.500000000000000444 ) ;
#930 = CARTESIAN_POINT ( 'NONE',  ( -11.50000000000000000, 0.000000000000000000, 3.000000000000000000 ) ) ;
#931 = ADVANCED_FACE ( 'NONE', ( #159 ), #94, .F. ) ;
#932 =( NAMED_UNIT ( * ) SI_UNIT ( $, .STERADIAN. ) SOLID_ANGLE_UNIT ( ) );
#933 = CARTESIAN_POINT ( 'NONE',  ( -9.051097468273860969, 0.5127387297266732258, -1.366365625614787360 ) ) ;
#934 = VERTEX_POINT ( 'NONE', #714 ) ;
#935 = CARTESIAN_POINT ( 'NONE',  ( 11.50000000000000000, 0.000000000000000000, 3.000000000000000000 ) ) ;
#936 = EDGE_LOOP ( 'NONE', ( #257, #588 ) ) ;
#937 = AXIS2_PLACEMENT_3D ( 'NONE', #1137, #343, #683 ) ;
#938 = CARTESIAN_POINT ( 'NONE',  ( -11.50000000000000000, 0.000000000000000000, 2.000000000000000000 ) ) ;
#939 = VECTOR ( 'NONE', #1007, 1000.000000000000000 ) ;
#940 = EDGE_CURVE ( 'NONE', #1062, #151, #71, .T. ) ;
#941 = DIRECTION ( 'NONE',  ( -0.000000000000000000, -0.000000000000000000, -1.000000000000000000 ) ) ;
#942 = ORIENTED_EDGE ( 'NONE', *, *, #517, .T. ) ;
#943 = DIRECTION ( 'NONE',  ( 1.000000000000000000, 0.000000000000000000, 0.000000000000000000 ) ) ;
#944 = ORIENTED_EDGE ( 'NONE', *, *, #204, .F. ) ;
#945 = DIRECTION ( 'NONE',  ( -0.000000000000000000, -0.000000000000000000, -1.000000000000000000 ) ) ;
#946 = PRODUCT_RELATED_PRODUCT_CATEGORY ( 'part', '', ( #193 ) ) ;
#947 = CARTESIAN_POINT ( 'NONE',  ( -9.130137872932419185, 0.8019089444338849404, -1.274381396195765292 ) ) ;
#948 = CARTESIAN_POINT ( 'NONE',  ( 11.49999999999999467, 8.000000000000001776, 2.000000000000000000 ) ) ;
#949 = EDGE_LOOP ( 'NONE', ( #711, #1077, #573, #1173 ) ) ;
#950 = AXIS2_PLACEMENT_3D ( 'NONE', #627, #369, #734 ) ;
#951 = CARTESIAN_POINT ( 'NONE',  ( 2.549999999999999822, -2.549999999999999822, -11.50000000000000000 ) ) ;
#952 = VERTEX_POINT ( 'NONE', #639 ) ;
#953 = DIRECTION ( 'NONE',  ( -0.000000000000000000, -0.000000000000000000, -1.000000000000000000 ) ) ;
#954 = ORIENTED_EDGE ( 'NONE', *, *, #807, .F. ) ;
#955 = EDGE_CURVE ( 'NONE', #24, #151, #1120, .T. ) ;
#956 = CARTESIAN_POINT ( 'NONE',  ( -9.000000000000000000, 1.845383755996413229E-11, -1.429285785728575675 ) ) ;
#957 = FACE_OUTER_BOUND ( 'NONE', #1038, .T. ) ;
#958 = VERTEX_POINT ( 'NONE', #275 ) ;
#959 = FACE_OUTER_BOUND ( 'NONE', #863, .T. ) ;
#960 = ADVANCED_FACE ( 'NONE', ( #887 ), #253, .T. ) ;
#961 = DIRECTION ( 'NONE',  ( 1.000000000000000000, 0.000000000000000000, -0.000000000000000000 ) ) ;
#962 = FACE_BOUND ( 'NONE', #936, .T. ) ;
#963 = ORIENTED_EDGE ( 'NONE', *, *, #585, .F. ) ;
#964 = FACE_OUTER_BOUND ( 'NONE', #798, .T. ) ;
#965 = AXIS2_PLACEMENT_3D ( 'NONE', #935, #745, #289 ) ;
#966 = AXIS2_PLACEMENT_3D ( 'NONE', #186, #480, #382 ) ;
#967 = CYLINDRICAL_SURFACE ( 'NONE', #415, 15.72499999999999964 ) ;
#968 = CIRCLE ( 'NONE', #600, 12.50000000000000000 ) ;
#969 = DIRECTION ( 'NONE',  ( 1.000000000000000000, 0.000000000000000000, 0.000000000000000000 ) ) ;
#970 = ORIENTED_EDGE ( 'NONE', *, *, #287, .T. ) ;
#971 = DIRECTION ( 'NONE',  ( 8.673617379884032514E-16, 1.000000000000000000, -0.000000000000000000 ) ) ;
#972 = DIRECTION ( 'NONE',  ( -0.000000000000000000, -0.000000000000000000, -1.000000000000000000 ) ) ;
#973 = EDGE_CURVE ( 'NONE', #151, #24, #508, .T. ) ;
#974 = AXIS2_PLACEMENT_3D ( 'NONE', #984, #1150, #146 ) ;
#975 = PLANE ( 'NONE',  #347 ) ;
#976 = EDGE_LOOP ( 'NONE', ( #944, #531 ) ) ;
#977 = CARTESIAN_POINT ( 'NONE',  ( -11.45594866600486661, -2.508010104216576330, -0.05609865112689789435 ) ) ;
#978 = CARTESIAN_POINT ( 'NONE',  ( 5.750000000000000000, 1.362500000000000933, 0.000000000000000000 ) ) ;
#979 = DIRECTION ( 'NONE',  ( -1.000000000000000000, 0.000000000000000000, 0.000000000000000000 ) ) ;
#980 = EDGE_CURVE ( 'NONE', #1167, #35, #49, .T. ) ;
#981 = CARTESIAN_POINT ( 'NONE',  ( 11.50000000000000000, 0.000000000000000000, -0.0009999999999992653654 ) ) ;
#982 = ORIENTED_EDGE ( 'NONE', *, *, #659, .T. ) ;
#983 = ORIENTED_EDGE ( 'NONE', *, *, #623, .T. ) ;
#984 = CARTESIAN_POINT ( 'NONE',  ( -11.50000000000000000, 8.000000000000000000, -11.50099999999999945 ) ) ;
#985 = CIRCLE ( 'NONE', #830, 7.500000000000000000 ) ;
#986 = DIRECTION ( 'NONE',  ( -0.000000000000000000, -1.000000000000000000, -0.000000000000000000 ) ) ;
#987 = DIRECTION ( 'NONE',  ( 1.000000000000000000, 0.000000000000000000, -0.000000000000000000 ) ) ;
#988 = VERTEX_POINT ( 'NONE', #721 ) ;
#989 = CIRCLE ( 'NONE', #819, 7.500000000000000000 ) ;
#990 = CARTESIAN_POINT ( 'NONE',  ( 0.000000000000000000, 0.000000000000000000, -5.000000000000000000 ) ) ;
#991 = ADVANCED_FACE ( 'NONE', ( #900 ), #998, .F. ) ;
#992 = LINE ( 'NONE', #551, #1086 ) ;
#993 =( LENGTH_UNIT ( ) NAMED_UNIT ( * ) SI_UNIT ( .MILLI., .METRE. ) );
#994 = AXIS2_PLACEMENT_3D ( 'NONE', #89, #635, #276 ) ;
#995 = DIRECTION ( 'NONE',  ( -0.000000000000000000, -0.000000000000000000, -1.000000000000000000 ) ) ;
#996 = EDGE_LOOP ( 'NONE', ( #942, #1112, #642, #406 ) ) ;
#997 = EDGE_LOOP ( 'NONE', ( #352, #1162, #751, #1076 ) ) ;
#998 = PLANE ( 'NONE',  #143 ) ;
#999 = ORIENTED_EDGE ( 'NONE', *, *, #533, .T. ) ;
#1000 = DIRECTION ( 'NONE',  ( 1.000000000000000000, 0.000000000000000000, 0.000000000000000000 ) ) ;
#1001 = ORIENTED_EDGE ( 'NONE', *, *, #141, .T. ) ;
#1002 = FACE_OUTER_BOUND ( 'NONE', #556, .T. ) ;
#1003 = ADVANCED_FACE ( 'NONE', ( #729 ), #179, .F. ) ;
#1004 = AXIS2_PLACEMENT_3D ( 'NONE', #101, #462, #374 ) ;
#1005 = DIRECTION ( 'NONE',  ( -1.000000000000000000, 0.000000000000000000, 0.000000000000000000 ) ) ;
#1006 = CARTESIAN_POINT ( 'NONE',  ( 14.00000000000000000, 0.000000000000000000, -0.0009999999999992653654 ) ) ;
#1007 = DIRECTION ( 'NONE',  ( -0.000000000000000000, -0.000000000000000000, 1.000000000000000000 ) ) ;
#1008 = VERTEX_POINT ( 'NONE', #459 ) ;
#1009 = AXIS2_PLACEMENT_3D ( 'NONE', #779, #862, #342 ) ;
#1010 = DIRECTION ( 'NONE',  ( -0.000000000000000000, -0.000000000000000000, 1.000000000000000000 ) ) ;
#1011 = PRODUCT_DEFINITION_SHAPE ( 'NONE', 'NONE',  #737 ) ;
#1012 = DIRECTION ( 'NONE',  ( 0.000000000000000000, 0.000000000000000000, 1.000000000000000000 ) ) ;
#1013 = ADVANCED_FACE ( 'NONE', ( #1 ), #733, .F. ) ;
#1014 = DIRECTION ( 'NONE',  ( -1.734723475976808080E-15, 1.000000000000000000, 0.000000000000000000 ) ) ;
#1015 = EDGE_LOOP ( 'NONE', ( #770, #258 ) ) ;
#1016 = VECTOR ( 'NONE', #877, 1000.000000000000000 ) ;
#1017 = CARTESIAN_POINT ( 'NONE',  ( -11.50000000000000178, -8.000000000000000000, 3.000000000000000000 ) ) ;
#1018 = DIRECTION ( 'NONE',  ( -0.000000000000000000, -0.000000000000000000, -1.000000000000000000 ) ) ;
#1019 = EDGE_CURVE ( 'NONE', #740, #392, #923, .T. ) ;
#1020 = CARTESIAN_POINT ( 'NONE',  ( 2.549999999999999822, -2.549999999999999822, -4.500000000000000000 ) ) ;
#1021 = ORIENTED_EDGE ( 'NONE', *, *, #88, .T. ) ;
#1022 = EDGE_CURVE ( 'NONE', #891, #244, #1024, .T. ) ;
#1023 = DIRECTION ( 'NONE',  ( -0.000000000000000000, -0.000000000000000000, 1.000000000000000000 ) ) ;
#1024 = LINE ( 'NONE', #373, #473 ) ;
#1025 = SHAPE_DEFINITION_REPRESENTATION ( #1011, #102 ) ;
#1026 = VECTOR ( 'NONE', #341, 1000.000000000000000 ) ;
#1027 = CARTESIAN_POINT ( 'NONE',  ( -9.000000000000762057, 0.1037062056255349113, -1.429285785727616442 ) ) ;
#1028 = DIRECTION ( 'NONE',  ( -0.000000000000000000, -0.000000000000000000, 1.000000000000000000 ) ) ;
#1029 = ORIENTED_EDGE ( 'NONE', *, *, #322, .T. ) ;
#1030 = EDGE_CURVE ( 'NONE', #10, #958, #298, .T. ) ;
#1031 = ORIENTED_EDGE ( 'NONE', *, *, #1022, .F. ) ;
#1032 = CIRCLE ( 'NONE', #37, 2.500000000000000444 ) ;
#1033 = CARTESIAN_POINT ( 'NONE',  ( -11.50000000000000533, 6.000000000000000888, -11.50099999999999945 ) ) ;
#1034 = CARTESIAN_POINT ( 'NONE',  ( -12.27173913043478315, 2.377902166733476985, 0.000000000000000000 ) ) ;
#1035 = LINE ( 'NONE', #1020, #364 ) ;
#1036 = ORIENTED_EDGE ( 'NONE', *, *, #638, .F. ) ;
#1037 = AXIS2_PLACEMENT_3D ( 'NONE', #239, #338, #873 ) ;
#1038 = EDGE_LOOP ( 'NONE', ( #77, #756, #195, #697 ) ) ;
#1039 = LINE ( 'NONE', #474, #866 ) ;
#1040 = APPLICATION_PROTOCOL_DEFINITION ( 'draft international standard', 'automotive_design', 1998, #285 ) ;
#1041 = DIRECTION ( 'NONE',  ( 1.000000000000000000, 0.000000000000000000, 0.000000000000000000 ) ) ;
#1042 = ORIENTED_EDGE ( 'NONE', *, *, #706, .F. ) ;
#1043 = DIRECTION ( 'NONE',  ( -1.000000000000000000, 0.000000000000000000, 0.000000000000000000 ) ) ;
#1044 = ORIENTED_EDGE ( 'NONE', *, *, #692, .T. ) ;
#1045 = CARTESIAN_POINT ( 'NONE',  ( 11.50000000000000000, 0.000000000000000000, 2.000000000000000000 ) ) ;
#1046 = DIRECTION ( 'NONE',  ( -2.602085213965211825E-15, -1.000000000000000000, 0.000000000000000000 ) ) ;
#1047 = EDGE_LOOP ( 'NONE', ( #982, #111, #250, #983 ) ) ;
#1048 = AXIS2_PLACEMENT_3D ( 'NONE', #541, #1018, #554 ) ;
#1049 = CARTESIAN_POINT ( 'NONE',  ( -15.00000000000000000, 4.286263797015737088E-16, 3.000000000000000000 ) ) ;
#1050 = EDGE_CURVE ( 'NONE', #1008, #398, #1039, .T. ) ;
#1051 = CARTESIAN_POINT ( 'NONE',  ( 11.49999999999999289, -6.000000000000000888, -11.50099999999999945 ) ) ;
#1052 = EDGE_LOOP ( 'NONE', ( #999, #1172, #402, #66, #366 ) ) ;
#1053 = CARTESIAN_POINT ( 'NONE',  ( 10.30542062448973795, 2.204849779128765341, -0.3962103902471214023 ) ) ;
#1054 = DIRECTION ( 'NONE',  ( -1.000000000000000000, 0.000000000000000000, 0.000000000000000000 ) ) ;
#1055 = UNCERTAINTY_MEASURE_WITH_UNIT (LENGTH_MEASURE( 1.000000000000000082E-05 ), #902, 'distance_accuracy_value', 'NONE');
#1056 = FACE_OUTER_BOUND ( 'NONE', #1052, .T. ) ;
#1057 = VERTEX_POINT ( 'NONE', #198 ) ;
#1058 = CARTESIAN_POINT ( 'NONE',  ( 11.24889829572510891, 2.495530293089285312, -0.09211595224431408380 ) ) ;
#1059 = EDGE_CURVE ( 'NONE', #736, #604, #377, .T. ) ;
#1060 = FACE_OUTER_BOUND ( 'NONE', #166, .T. ) ;
#1061 = CARTESIAN_POINT ( 'NONE',  ( 9.099944449541091274, -0.7069356191109631427, -1.308964702545499348 ) ) ;
#1062 = VERTEX_POINT ( 'NONE', #752 ) ;
#1063 = VERTEX_POINT ( 'NONE', #644 ) ;
#1064 = CARTESIAN_POINT ( 'NONE',  ( 11.49999999999999467, 8.000000000000001776, 0.000000000000000000 ) ) ;
#1065 = VECTOR ( 'NONE', #31, 1000.000000000000000 ) ;
#1066 = EDGE_CURVE ( 'NONE', #189, #10, #12, .T. ) ;
#1067 = CARTESIAN_POINT ( 'NONE',  ( -2.549999999999999822, -2.549999999999999822, -11.50000000000000000 ) ) ;
#1068 = CARTESIAN_POINT ( 'NONE',  ( 9.237808946912817731, -1.068279899402319044, -1.158309950940860311 ) ) ;
#1069 = VERTEX_POINT ( 'NONE', #107 ) ;
#1070 = ORIENTED_EDGE ( 'NONE', *, *, #141, .F. ) ;
#1071 = CARTESIAN_POINT ( 'NONE',  ( -9.031843849493386145, -0.4108624307497314443, -1.389855300699598395 ) ) ;
#1072 = CARTESIAN_POINT ( 'NONE',  ( -11.50000000000000000, 8.000000000000000000, 3.000000000000000000 ) ) ;
#1073 = CARTESIAN_POINT ( 'NONE',  ( 11.49999999999999289, -6.000000000000000888, 2.000000000000000000 ) ) ;
#1074 = AXIS2_PLACEMENT_3D ( 'NONE', #990, #898, #464 ) ;
#1075 = CARTESIAN_POINT ( 'NONE',  ( 9.709590776957419678, -1.754653649459939402, -0.7465694245853410349 ) ) ;
#1076 = ORIENTED_EDGE ( 'NONE', *, *, #659, .F. ) ;
#1077 = ORIENTED_EDGE ( 'NONE', *, *, #1050, .T. ) ;
#1078 = CARTESIAN_POINT ( 'NONE',  ( -12.07240395215314166, -2.442595642900956765, 4.037806059561248927E-15 ) ) ;
#1079 = FACE_BOUND ( 'NONE', #457, .T. ) ;
#1080 = CARTESIAN_POINT ( 'NONE',  ( 7.500000000000000000, 0.000000000000000000, -11.50000000000000000 ) ) ;
#1081 = ADVANCED_FACE ( 'NONE', ( #563 ), #487, .F. ) ;
#1082 = CARTESIAN_POINT ( 'NONE',  ( -2.549999999999999822, -2.549999999999999822, -4.500000000000000000 ) ) ;
#1083 = ORIENTED_EDGE ( 'NONE', *, *, #268, .T. ) ;
#1084 = VERTEX_POINT ( 'NONE', #843 ) ;
#1085 = DIRECTION ( 'NONE',  ( -0.000000000000000000, -0.000000000000000000, 1.000000000000000000 ) ) ;
#1086 = VECTOR ( 'NONE', #1164, 1000.000000000000000 ) ;
#1087 = CARTESIAN_POINT ( 'NONE',  ( 2.549999999999999822, -2.549999999999999822, -11.50000000000000000 ) ) ;
#1088 = CIRCLE ( 'NONE', #13, 8.000000000000000000 ) ;
#1089 = PLANE ( 'NONE',  #875 ) ;
#1090 = CARTESIAN_POINT ( 'NONE',  ( -11.50000000000000000, 0.000000000000000000, 3.000000000000000000 ) ) ;
#1091 = EDGE_LOOP ( 'NONE', ( #766, #890, #1152, #468 ) ) ;
#1092 = VECTOR ( 'NONE', #60, 1000.000000000000000 ) ;
#1093 = EDGE_CURVE ( 'NONE', #681, #497, #26, .T. ) ;
#1094 = SURFACE_SIDE_STYLE ('',( #375 ) ) ;
#1095 = STYLED_ITEM ( 'NONE', ( #827 ), #861 ) ;
#1096 = DIRECTION ( 'NONE',  ( 0.000000000000000000, -0.000000000000000000, -1.000000000000000000 ) ) ;
#1097 = EDGE_LOOP ( 'NONE', ( #1044, #290, #746, #267 ) ) ;
#1098 = EDGE_CURVE ( 'NONE', #952, #232, #19, .T. ) ;
#1099 = DIRECTION ( 'NONE',  ( -0.000000000000000000, -0.000000000000000000, -1.000000000000000000 ) ) ;
#1100 = DIRECTION ( 'NONE',  ( -0.000000000000000000, -0.000000000000000000, 1.000000000000000000 ) ) ;
#1101 = DIRECTION ( 'NONE',  ( 1.000000000000000000, 0.000000000000000000, 0.000000000000000000 ) ) ;
#1102 = ORIENTED_EDGE ( 'NONE', *, *, #82, .F. ) ;
#1103 = DIRECTION ( 'NONE',  ( -1.000000000000000000, 0.000000000000000000, 0.000000000000000000 ) ) ;
#1104 = AXIS2_PLACEMENT_3D ( 'NONE', #826, #547, #907 ) ;
#1105 = CARTESIAN_POINT ( 'NONE',  ( -14.00000000000000000, 3.061616997868382648E-16, 3.000000000000000000 ) ) ;
#1106 = DIRECTION ( 'NONE',  ( 0.000000000000000000, 0.000000000000000000, -1.000000000000000000 ) ) ;
#1107 = ORIENTED_EDGE ( 'NONE', *, *, #481, .F. ) ;
#1108 = FACE_BOUND ( 'NONE', #976, .T. ) ;
#1109 = CARTESIAN_POINT ( 'NONE',  ( -11.50000000000000000, 0.000000000000000000, 13.00000000000000178 ) ) ;
#1110 = EDGE_CURVE ( 'NONE', #18, #675, #580, .T. ) ;
#1111 = DIRECTION ( 'NONE',  ( -8.673617379884031528E-16, -1.000000000000000000, 0.000000000000000000 ) ) ;
#1112 = ORIENTED_EDGE ( 'NONE', *, *, #598, .F. ) ;
#1113 = DIRECTION ( 'NONE',  ( 1.000000000000000000, 0.000000000000000000, 0.000000000000000000 ) ) ;
#1114 = CARTESIAN_POINT ( 'NONE',  ( -11.50000000000000000, 0.000000000000000000, 0.000000000000000000 ) ) ;
#1115 = EDGE_CURVE ( 'NONE', #543, #414, #511, .T. ) ;
#1116 = CARTESIAN_POINT ( 'NONE',  ( -2.549999999999999822, 2.549999999999999822, -4.500000000000000000 ) ) ;
#1117 = ORIENTED_EDGE ( 'NONE', *, *, #213, .T. ) ;
#1118 = DIRECTION ( 'NONE',  ( 1.000000000000000000, 0.000000000000000000, 0.000000000000000000 ) ) ;
#1119 = DIRECTION ( 'NONE',  ( 1.000000000000000000, 0.000000000000000000, 0.000000000000000000 ) ) ;
#1120 = CIRCLE ( 'NONE', #106, 2.500000000000000444 ) ;
#1121 = CARTESIAN_POINT ( 'NONE',  ( -11.50000000000000000, 8.000000000000000000, 3.000000000000000000 ) ) ;
#1122 = AXIS2_PLACEMENT_3D ( 'NONE', #224, #214, #127 ) ;
#1123 = DIRECTION ( 'NONE',  ( -8.673617379884032514E-16, 1.000000000000000000, 0.000000000000000000 ) ) ;
#1124 = ORIENTED_EDGE ( 'NONE', *, *, #204, .T. ) ;
#1125 = CIRCLE ( 'NONE', #605, 15.72500000000001386 ) ;
#1126 = CARTESIAN_POINT ( 'NONE',  ( -9.000000000000000000, 0.000000000000000000, -0.0009999999999992653654 ) ) ;
#1127 = DIRECTION ( 'NONE',  ( -0.000000000000000000, -0.000000000000000000, 1.000000000000000000 ) ) ;
#1128 = CARTESIAN_POINT ( 'NONE',  ( -11.50000000000000000, 0.000000000000000000, 2.000000000000000000 ) ) ;
#1129 = ORIENTED_EDGE ( 'NONE', *, *, #350, .T. ) ;
#1130 = CIRCLE ( 'NONE', #269, 8.000000000000003553 ) ;
#1131 = EDGE_CURVE ( 'NONE', #579, #891, #569, .T. ) ;
#1132 = DIRECTION ( 'NONE',  ( 1.000000000000000000, 0.000000000000000000, 0.000000000000000000 ) ) ;
#1133 = CARTESIAN_POINT ( 'NONE',  ( 11.25171699208162934, -2.495728548308540073, -0.09160733202550519483 ) ) ;
#1134 = VERTEX_POINT ( 'NONE', #203 ) ;
#1135 = CYLINDRICAL_SURFACE ( 'NONE', #704, 3.499999999999999556 ) ;
#1136 = AXIS2_PLACEMENT_3D ( 'NONE', #837, #758, #1103 ) ;
#1137 = CARTESIAN_POINT ( 'NONE',  ( 5.750000000000000000, 1.362500000000000933, 3.000000000000000000 ) ) ;
#1138 = ORIENTED_EDGE ( 'NONE', *, *, #1030, .F. ) ;
#1139 = VECTOR ( 'NONE', #1127, 1000.000000000000000 ) ;
#1140 = CARTESIAN_POINT ( 'NONE',  ( 0.000000000000000000, 0.000000000000000000, -4.500000000000000000 ) ) ;
#1141 = EDGE_CURVE ( 'NONE', #345, #150, #701, .T. ) ;
#1142 = CYLINDRICAL_SURFACE ( 'NONE', #856, 7.500000000000000000 ) ;
#1143 = ORIENTED_EDGE ( 'NONE', *, *, #791, .T. ) ;
#1144 = DIRECTION ( 'NONE',  ( -0.000000000000000000, -0.000000000000000000, 1.000000000000000000 ) ) ;
#1145 = CARTESIAN_POINT ( 'NONE',  ( 0.000000000000000000, -2.725000000000001865, 3.000000000000000000 ) ) ;
#1146 = CARTESIAN_POINT ( 'NONE',  ( 9.051097468273866298, -0.5127387297266885469, -1.366365625614784252 ) ) ;
#1147 = EDGE_LOOP ( 'NONE', ( #439, #896, #230, #1036 ) ) ;
#1148 = EDGE_LOOP ( 'NONE', ( #882, #5, #243, #445 ) ) ;
#1149 = EDGE_CURVE ( 'NONE', #1167, #952, #742, .T. ) ;
#1150 = DIRECTION ( 'NONE',  ( 1.000000000000000000, -2.602085213965211825E-15, 0.000000000000000000 ) ) ;
#1151 = CARTESIAN_POINT ( 'NONE',  ( 11.49999999999999822, 8.000000000000000000, 3.000000000000000000 ) ) ;
#1152 = ORIENTED_EDGE ( 'NONE', *, *, #559, .T. ) ;
#1153 = DIRECTION ( 'NONE',  ( 1.000000000000000000, 0.000000000000000000, 0.000000000000000000 ) ) ;
#1154 = VERTEX_POINT ( 'NONE', #100 ) ;
#1155 = ADVANCED_FACE ( 'NONE', ( #1108, #470 ), #848, .T. ) ;
#1156 = CIRCLE ( 'NONE', #1104, 7.500000000000000000 ) ;
#1157 = DIRECTION ( 'NONE',  ( -0.000000000000000000, 0.000000000000000000, -1.000000000000000000 ) ) ;
#1158 = DIRECTION ( 'NONE',  ( 0.000000000000000000, 0.000000000000000000, 1.000000000000000000 ) ) ;
#1159 = CIRCLE ( 'NONE', #264, 3.499999999999999556 ) ;
#1160 = DIRECTION ( 'NONE',  ( -0.000000000000000000, -0.000000000000000000, 1.000000000000000000 ) ) ;
#1161 = ORIENTED_EDGE ( 'NONE', *, *, #807, .T. ) ;
#1162 = ORIENTED_EDGE ( 'NONE', *, *, #517, .F. ) ;
#1163 = CARTESIAN_POINT ( 'NONE',  ( 9.708371465623423902, 1.753330050848321164, -0.7474846473642136058 ) ) ;
#1164 = DIRECTION ( 'NONE',  ( -0.000000000000000000, -0.000000000000000000, -1.000000000000000000 ) ) ;
#1165 = FACE_OUTER_BOUND ( 'NONE', #280, .T. ) ;
#1166 = VECTOR ( 'NONE', #432, 1000.000000000000000 ) ;
#1167 = VERTEX_POINT ( 'NONE', #393 ) ;
#1168 = ORIENTED_EDGE ( 'NONE', *, *, #593, .T. ) ;
#1169 = CARTESIAN_POINT ( 'NONE',  ( 0.000000000000000000, 0.000000000000000000, -5.000000000000000000 ) ) ;
#1170 = EDGE_CURVE ( 'NONE', #988, #958, #291, .T. ) ;
#1171 = DIRECTION ( 'NONE',  ( 1.000000000000000000, 0.000000000000000000, 0.000000000000000000 ) ) ;
#1172 = ORIENTED_EDGE ( 'NONE', *, *, #940, .T. ) ;
#1173 = ORIENTED_EDGE ( 'NONE', *, *, #559, .F. ) ;
#1174 = LINE ( 'NONE', #98, #270 ) ;
#1175 = DIRECTION ( 'NONE',  ( -1.000000000000000000, 8.673617379884032514E-16, 0.000000000000000000 ) ) ;
#1176 = AXIS2_PLACEMENT_3D ( 'NONE', #307, #571, #499 ) ;
#1177 = ADVANCED_FACE ( 'NONE', ( #95 ), #271, .T. ) ;
#1178 = DIRECTION ( 'NONE',  ( 0.000000000000000000, 0.000000000000000000, 1.000000000000000000 ) ) ;
#1179 = VERTEX_POINT ( 'NONE', #803 ) ;
ENDSEC;
END-ISO-10303-21;
